SplineFontDB: 3.0
FontName: OpenDyslexic-Bold
FullName: OpenDyslexic Bold
FamilyName: OpenDyslexic
Weight: Bold
Copyright: Attribution-NonCommercial-ShareAlike 3.0 Unported (CC BY-NC-SA 3.0)
Version: 0.050
ItalicAngle: 0
UnderlinePosition: -142
UnderlineWidth: 143
Ascent: 1638
Descent: 410
sfntRevision: 0x00000ccd
LayerCount: 2
Layer: 0 1 "Back"  1
Layer: 1 1 "Fore"  0
XUID: [1021 306 1845811580 10576022]
FSType: 0
OS2Version: 3
OS2_WeightWidthSlopeOnly: 0
OS2_UseTypoMetrics: 1
CreationTime: 1327818000
ModificationTime: 1332742753
PfmFamily: 17
TTFWeight: 700
TTFWidth: 5
LineGap: 0
VLineGap: 0
Panose: 2 0 5 3 0 0 0 2 0 4
OS2TypoAscent: -82
OS2TypoAOffset: 1
OS2TypoDescent: -16
OS2TypoDOffset: 1
OS2TypoLinegap: 410
OS2WinAscent: 0
OS2WinAOffset: 1
OS2WinDescent: -33
OS2WinDOffset: 1
HheadAscent: 21
HheadAOffset: 1
HheadDescent: 13
HheadDOffset: 1
OS2SubXSize: 1351
OS2SubYSize: 1228
OS2SubXOff: 0
OS2SubYOff: -446
OS2SupXSize: 1351
OS2SupYSize: 1228
OS2SupXOff: 0
OS2SupYOff: 595
OS2StrikeYSize: 102
OS2StrikeYPos: 512
OS2FamilyClass: 2050
OS2Vendor: 'Ab  '
OS2CodePages: 00000001.00000000
OS2UnicodeRanges: 800000af.4000204a.00000000.00000000
Lookup: 258 0 0 "'kern' Horizontal Kerning in Latin lookup 0"  {"'kern' Horizontal Kerning in Latin lookup 0 subtable"  } ['kern' ('latn' <'dflt' > ) ]
DEI: 91125
TtTable: prep
PUSHW_1
 0
CALL
SVTCA[y-axis]
PUSHW_3
 1
 3
 2
CALL
SVTCA[x-axis]
PUSHW_3
 4
 3
 2
CALL
SVTCA[x-axis]
PUSHW_8
 4
 41
 37
 30
 22
 14
 0
 8
CALL
PUSHW_8
 5
 51
 45
 30
 22
 14
 0
 8
CALL
PUSHW_8
 6
 46
 37
 30
 22
 14
 0
 8
CALL
SVTCA[y-axis]
PUSHW_8
 1
 49
 37
 30
 22
 14
 0
 8
CALL
PUSHW_8
 2
 60
 45
 37
 27
 14
 0
 8
CALL
PUSHW_8
 3
 55
 45
 37
 22
 14
 0
 8
CALL
SVTCA[y-axis]
PUSHW_3
 7
 4
 7
CALL
PUSHW_1
 0
DUP
RCVT
RDTG
ROUND[Black]
RTG
WCVTP
EndTTInstrs
TtTable: fpgm
PUSHW_1
 0
FDEF
MPPEM
PUSHW_1
 8
LT
IF
PUSHB_2
 1
 1
INSTCTRL
EIF
PUSHW_1
 511
SCANCTRL
PUSHW_1
 68
SCVTCI
PUSHW_2
 8
 3
SDS
SDB
ENDF
PUSHW_1
 1
FDEF
DUP
DUP
RCVT
ROUND[Black]
WCVTP
PUSHB_1

StartChar: .notdef
Encoding: 65536 -1 0
Width: 1658
Flags: W
LayerCount: 2
Fore
SplineSet
306 -344 m 1,0,-1
 306 1446 l 1,1,-1
 1354 1446 l 1,2,-1
 1354 -344 l 1,3,-1
 306 -344 l 1,0,-1
492 11 m 1,4,-1
 1170 11 l 1,5,-1
 1170 1261 l 1,6,-1
 492 1261 l 1,7,-1
 492 11 l 1,4,-1
EndSplineSet
Validated: 1
EndChar

StartChar: exclam
Encoding: 33 33 4
Width: 701
Flags: W
LayerCount: 2
Fore
SplineSet
226 312 m 1,0,-1
 494 312 l 1,1,-1
 518 0 l 1,2,-1
 202 0 l 1,3,-1
 226 312 l 1,0,-1
233 1468 m 1,4,-1
 486 1468 l 1,5,-1
 496 822 l 1,6,-1
 528 449 l 1,7,-1
 194 449 l 1,8,-1
 214 821 l 1,9,-1
 214 820 l 1,10,-1
 233 1468 l 1,4,-1
EndSplineSet
Validated: 1
EndChar

StartChar: quotedbl
Encoding: 34 34 5
Width: 1215
Flags: W
LayerCount: 2
Fore
SplineSet
542 1468 m 1,0,-1
 554 846 l 1,1,-1
 290 846 l 1,2,-1
 302 1468 l 1,3,-1
 542 1468 l 1,0,-1
915 1468 m 1,4,-1
 927 846 l 1,5,-1
 663 846 l 1,6,-1
 674 1468 l 1,7,-1
 915 1468 l 1,4,-1
EndSplineSet
Validated: 1
EndChar

StartChar: numbersign
Encoding: 35 35 6
Width: 1463
Flags: W
LayerCount: 2
Fore
SplineSet
860 841 m 1,0,-1
 665 841 l 1,1,-1
 607 604 l 1,2,-1
 802 604 l 1,3,-1
 860 841 l 1,0,-1
816 1447 m 1,4,-1
 719 1059 l 1,5,-1
 914 1059 l 1,6,-1
 1013 1447 l 1,7,-1
 1238 1447 l 1,8,-1
 1142 1059 l 1,9,-1
 1423 1059 l 1,10,-1
 1423 841 l 1,11,-1
 1088 841 l 1,12,13
 1080 809 1080 809 1073.5 781 c 128,-1,14
 1067 753 1067 753 1060 725 c 128,-1,15
 1053 697 1053 697 1045.5 668 c 128,-1,16
 1038 639 1038 639 1029 604 c 1,17,-1
 1316 604 l 1,18,-1
 1316 386 l 1,19,-1
 975 386 l 1,20,-1
 878 0 l 1,21,-1
 651 0 l 1,22,-1
 747 386 l 1,23,-1
 551 386 l 1,24,-1
 455 0 l 1,25,-1
 228 0 l 1,26,-1
 325 386 l 1,27,-1
 41 386 l 1,28,-1
 41 604 l 1,29,-1
 378 604 l 1,30,-1
 437 841 l 1,31,-1
 147 841 l 1,32,-1
 147 1059 l 1,33,-1
 493 1059 l 1,34,35
 516 1153 516 1153 540 1254.5 c 128,-1,36
 564 1356 564 1356 587 1447 c 1,37,-1
 816 1447 l 1,4,-1
EndSplineSet
Validated: 1
EndChar

StartChar: dollar
Encoding: 36 36 7
Width: 1052
Flags: W
LayerCount: 2
Fore
SplineSet
649 -275 m 1,0,-1
 401 -271 l 1,1,-1
 423 11 l 1,2,3
 337 19 337 19 242 44.5 c 128,-1,4
 147 70 147 70 45 116 c 1,5,-1
 49 432 l 1,6,7
 159 360 159 360 254.5 321 c 128,-1,8
 350 282 350 282 431 274 c 1,9,10
 432 313 432 313 433 349.5 c 128,-1,11
 434 386 434 386 434.5 422 c 128,-1,12
 435 458 435 458 436 495 c 128,-1,13
 437 532 437 532 438 573 c 1,14,15
 344 593 344 593 277.5 623.5 c 128,-1,16
 211 654 211 654 165 696 c 1,17,18
 115 744 115 744 88.5 805.5 c 128,-1,19
 62 867 62 867 59 945 c 1,20,21
 62 1107 62 1107 165 1201.5 c 128,-1,22
 268 1296 268 1296 458 1313 c 1,23,-1
 462 1535 l 1,24,-1
 631 1533 l 1,25,-1
 626 1315 l 1,26,27
 709 1309 709 1309 788 1290.5 c 128,-1,28
 867 1272 867 1272 953 1242 c 1,29,-1
 948 1010 l 1,30,31
 767 1107 767 1107 624 1122 c 1,32,33
 623 1074 623 1074 622 1030 c 128,-1,34
 621 986 621 986 620.5 942 c 128,-1,35
 620 898 620 898 619 853 c 128,-1,36
 618 808 618 808 617 759 c 1,37,38
 814 721 814 721 908 644 c 0,39,40
 1016 556 1016 556 1023 393 c 1,41,42
 1020 217 1020 217 899 117 c 0,43,44
 843 72 843 72 781 46 c 128,-1,45
 719 20 719 20 635 12 c 1,46,-1
 649 -275 l 1,0,-1
440 1114 m 1,47,48
 366 1099 366 1099 320 1058 c 0,49,50
 266 1010 266 1010 266 945 c 0,51,52
 266 887 266 887 308 845.5 c 128,-1,53
 350 804 350 804 433 783 c 1,54,-1
 440 1114 l 1,47,48
618 273 m 1,55,56
 652 279 652 279 679.5 286.5 c 128,-1,57
 707 294 707 294 727 302 c 1,58,59
 764 319 764 319 764 375 c 0,60,61
 764 434 764 434 727 471.5 c 128,-1,62
 690 509 690 509 610 530 c 1,63,-1
 618 273 l 1,55,56
EndSplineSet
Validated: 1
EndChar

StartChar: percent
Encoding: 37 37 8
Width: 1970
Flags: W
LayerCount: 2
Fore
SplineSet
1465 613 m 0,0,1
 1401 613 1401 613 1365 559 c 128,-1,2
 1329 505 1329 505 1329 408 c 0,3,4
 1329 312 1329 312 1365 257.5 c 128,-1,5
 1401 203 1401 203 1465 203 c 0,6,7
 1527 203 1527 203 1563 257.5 c 128,-1,8
 1599 312 1599 312 1599 408 c 256,9,10
 1599 504 1599 504 1563 558.5 c 128,-1,11
 1527 613 1527 613 1465 613 c 0,0,1
1465 806 m 256,12,13
 1629 806 1629 806 1727 691 c 0,14,15
 1823 578 1823 578 1823 389 c 0,16,17
 1823 295 1823 295 1799.5 220 c 128,-1,18
 1776 145 1776 145 1726 88 c 1,19,20
 1629 -27 1629 -27 1465 -27 c 0,21,22
 1298 -27 1298 -27 1201 88 c 1,23,24
 1105 199 1105 199 1105 389 c 0,25,26
 1105 578 1105 578 1201 691 c 1,27,28
 1301 806 1301 806 1465 806 c 256,12,13
502 1300 m 256,29,30
 439 1300 439 1300 402.5 1242 c 128,-1,31
 366 1184 366 1184 366 1083 c 0,32,33
 366 979 366 979 402 921.5 c 128,-1,34
 438 864 438 864 502 864 c 256,35,36
 566 864 566 864 602 921.5 c 128,-1,37
 638 979 638 979 638 1083 c 0,38,39
 638 1183 638 1183 601.5 1241.5 c 128,-1,40
 565 1300 565 1300 502 1300 c 256,29,30
1332 1493 m 1,41,-1
 1569 1493 l 1,42,-1
 644 -27 l 1,43,-1
 407 -27 l 1,44,-1
 1332 1493 l 1,41,-1
502 1493 m 256,45,46
 665 1493 665 1493 765 1378 c 0,47,48
 862 1265 862 1265 862 1077 c 0,49,50
 862 887 862 887 765 775 c 1,51,52
 668 660 668 660 502 660 c 0,53,54
 335 660 335 660 238 775 c 0,55,56
 143 887 143 887 143 1077 c 0,57,58
 143 1264 143 1264 239 1378 c 1,59,60
 339 1493 339 1493 502 1493 c 256,45,46
EndSplineSet
Validated: 1
EndChar

StartChar: ampersand
Encoding: 38 38 9
Width: 1612
Flags: W
LayerCount: 2
Fore
SplineSet
487 772 m 1,0,1
 420 707 420 707 389.5 644.5 c 128,-1,2
 359 582 359 582 359 513 c 0,3,4
 359 393 359 393 447 313 c 0,5,6
 538 231 538 231 672 231 c 0,7,8
 816 231 816 231 930 315 c 1,9,-1
 487 772 l 1,0,1
1103 484 m 1,10,11
 1118 513 1118 513 1129 542 c 128,-1,12
 1140 571 1140 571 1146 600 c 0,13,14
 1154 641 1154 641 1160 696.5 c 128,-1,15
 1166 752 1166 752 1169 822 c 1,16,-1
 1419 822 l 1,17,18
 1416 791 1416 791 1412 753.5 c 128,-1,19
 1408 716 1408 716 1403.5 677.5 c 128,-1,20
 1399 639 1399 639 1393.5 602 c 128,-1,21
 1388 565 1388 565 1383 535 c 0,22,23
 1372 477 1372 477 1349 420 c 128,-1,24
 1326 363 1326 363 1288 307 c 1,25,-1
 1589 0 l 1,26,-1
 1248 0 l 1,27,-1
 1127 124 l 1,28,29
 1029 46 1029 46 924.5 9.5 c 128,-1,30
 820 -27 820 -27 699 -27 c 256,31,32
 578 -27 578 -27 480.5 7.5 c 128,-1,33
 383 42 383 42 306 110 c 0,34,35
 151 249 151 249 151 468 c 0,36,37
 151 710 151 710 387 897 c 1,38,39
 349 954 349 954 329.5 1010 c 128,-1,40
 310 1066 310 1066 310 1121 c 0,41,42
 310 1288 310 1288 426 1392 c 1,43,-1
 425 1392 l 1,44,45
 538 1493 538 1493 726 1493 c 0,46,47
 890 1493 890 1493 1088 1408 c 1,48,-1
 988 1205 l 1,49,50
 894 1256 894 1256 816.5 1282.5 c 128,-1,51
 739 1309 739 1309 679 1309 c 0,52,53
 596 1309 596 1309 544 1265 c 1,54,-1
 544 1266 l 1,55,56
 496 1225 496 1225 496 1160 c 0,57,58
 496 1123 496 1123 519 1082 c 1,59,-1
 518 1083 l 1,60,61
 543 1041 543 1041 626 955 c 1,62,-1
 625 955 l 1,63,-1
 1103 484 l 1,10,11
EndSplineSet
Validated: 1
EndChar

StartChar: quotesingle
Encoding: 39 39 10
Width: 837
Flags: W
LayerCount: 2
Fore
SplineSet
540 1468 m 1,0,-1
 540 875 l 1,1,-1
 306 875 l 1,2,-1
 306 1468 l 1,3,-1
 540 1468 l 1,0,-1
EndSplineSet
Validated: 1
EndChar

StartChar: parenleft
Encoding: 40 40 11
Width: 698
Flags: W
LayerCount: 2
Fore
SplineSet
681 1514 m 1,0,1
 522 1290 522 1290 435 1077.5 c 128,-1,2
 348 865 348 865 339 656 c 1,3,4
 348 447 348 447 381 231 c 0,5,6
 414 17 414 17 542 -256 c 1,7,-1
 260 -238 l 1,8,9
 162 6 162 6 118 233 c 128,-1,10
 74 460 74 460 74 675 c 1,11,12
 92 888 92 888 184 1100.5 c 128,-1,13
 276 1313 276 1313 446 1533 c 1,14,-1
 681 1514 l 1,0,1
EndSplineSet
Validated: 1
EndChar

StartChar: parenright
Encoding: 41 41 12
Width: 705
Flags: W
LayerCount: 2
Fore
SplineSet
400 1541 m 1,0,1
 466 1412 466 1412 510 1293.5 c 128,-1,2
 554 1175 554 1175 575 1064 c 1,3,-1
 575 1065 l 1,4,5
 596 954 596 954 607 847.5 c 128,-1,6
 618 741 618 741 619 635 c 1,7,8
 619 418 619 418 529 205 c 1,9,10
 485 104 485 104 432.5 -3.5 c 128,-1,11
 380 -111 380 -111 316 -229 c 1,12,-1
 11 -211 l 1,13,14
 170 15 170 15 256 230.5 c 128,-1,15
 342 446 342 446 363 654 c 1,16,17
 363 861 363 861 330 1073 c 0,18,19
 313 1180 313 1180 273 1301.5 c 128,-1,20
 233 1423 233 1423 168 1561 c 1,21,-1
 400 1541 l 1,0,1
EndSplineSet
Validated: 1
EndChar

StartChar: asterisk
Encoding: 42 42 13
Width: 1021
Flags: W
LayerCount: 2
Fore
SplineSet
983 1187 m 1,0,-1
 675 1019 l 1,1,2
 752 977 752 977 832 933.5 c 128,-1,3
 912 890 912 890 983 852 c 1,4,-1
 890 695 l 1,5,-1
 602 871 l 1,6,-1
 602 547 l 1,7,-1
 421 547 l 1,8,-1
 421 871 l 1,9,10
 347 826 347 826 274 781.5 c 128,-1,11
 201 737 201 737 132 695 c 1,12,-1
 39 852 l 1,13,-1
 347 1019 l 1,14,15
 269 1061 269 1061 190 1105 c 128,-1,16
 111 1149 111 1149 39 1187 c 1,17,-1
 130 1345 l 1,18,-1
 421 1169 l 1,19,-1
 421 1493 l 1,20,-1
 602 1493 l 1,21,-1
 602 1169 l 1,22,23
 674 1213 674 1213 749 1259 c 128,-1,24
 824 1305 824 1305 891 1345 c 1,25,-1
 983 1187 l 1,0,-1
EndSplineSet
Validated: 1
EndChar

StartChar: plus
Encoding: 43 43 14
Width: 1271
Flags: W
LayerCount: 2
Fore
SplineSet
751 1273 m 1,0,-1
 751 753 l 1,1,-1
 1271 753 l 1,2,-1
 1271 520 l 1,3,-1
 751 520 l 1,4,-1
 751 0 l 1,5,-1
 520 0 l 1,6,-1
 520 520 l 1,7,-1
 0 520 l 1,8,-1
 0 753 l 1,9,-1
 520 753 l 1,10,-1
 520 1273 l 1,11,-1
 751 1273 l 1,0,-1
EndSplineSet
Validated: 1
EndChar

StartChar: comma
Encoding: 44 44 15
Width: 583
Flags: W
LayerCount: 2
Fore
SplineSet
198 302 m 1,0,-1
 507 302 l 1,1,-1
 507 55 l 1,2,-1
 280 -269 l 1,3,-1
 89 -269 l 1,4,-1
 198 74 l 1,5,-1
 198 302 l 1,0,-1
EndSplineSet
Validated: 1
EndChar

StartChar: hyphen
Encoding: 45 45 16
Width: 1152
Flags: W
LayerCount: 2
Fore
SplineSet
295 674 m 1,0,-1
 874 685 l 1,1,-1
 865 456 l 1,2,-1
 286 446 l 1,3,-1
 295 674 l 1,0,-1
EndSplineSet
Validated: 1
EndChar

StartChar: period
Encoding: 46 46 17
Width: 959
Flags: W
LayerCount: 2
Fore
SplineSet
306 376 m 1,0,-1
 659 376 l 1,1,-1
 659 0 l 1,2,-1
 306 0 l 1,3,-1
 306 376 l 1,0,-1
EndSplineSet
Validated: 1
EndChar

StartChar: slash
Encoding: 47 47 18
Width: 782
Flags: W
LayerCount: 2
Fore
SplineSet
566 1451 m 1,0,-1
 782 1445 l 1,1,-1
 294 -186 l 1,2,-1
 0 -176 l 1,3,-1
 566 1451 l 1,0,-1
EndSplineSet
Validated: 1
EndChar

StartChar: zero
Encoding: 48 48 19
Width: 1376
Flags: W
LayerCount: 2
Fore
SplineSet
698 1344 m 0,0,1
 443 1344 443 1344 443 868 c 0,2,3
 443 740 443 740 458.5 647.5 c 128,-1,4
 474 555 474 555 503 496 c 1,5,-1
 502 497 l 1,6,7
 555 393 555 393 679 393 c 0,8,9
 741 393 741 393 788 425 c 128,-1,10
 835 457 835 457 869 518.5 c 128,-1,11
 903 580 903 580 923.5 669 c 128,-1,12
 944 758 944 758 954 871 c 1,13,14
 954 1344 954 1344 698 1344 c 0,0,1
698 1493 m 0,15,16
 951 1493 951 1493 1079 1298 c 128,-1,17
 1207 1103 1207 1103 1207 732 c 1,18,19
 1197 362 1197 362 1064.5 167.5 c 128,-1,20
 932 -27 932 -27 679 -27 c 256,21,22
 426 -27 426 -27 298 167.5 c 128,-1,23
 170 362 170 362 170 733 c 1,24,25
 175 918 175 918 210.5 1060 c 128,-1,26
 246 1202 246 1202 312.5 1298 c 128,-1,27
 379 1394 379 1394 475.5 1443.5 c 128,-1,28
 572 1493 572 1493 698 1493 c 0,15,16
EndSplineSet
Validated: 1
EndChar

StartChar: one
Encoding: 49 49 20
Width: 1210
Flags: W
LayerCount: 2
Fore
SplineSet
267 336 m 1,0,-1
 575 336 l 1,1,-1
 575 1213 l 1,2,-1
 240 1146 l 1,3,-1
 240 1394 l 1,4,-1
 608 1468 l 1,5,-1
 836 1468 l 1,6,-1
 836 336 l 1,7,-1
 1144 336 l 1,8,-1
 1144 0 l 1,9,-1
 267 0 l 1,10,-1
 267 336 l 1,0,-1
EndSplineSet
Validated: 1
EndChar

StartChar: two
Encoding: 50 50 21
Width: 1431
Flags: W
LayerCount: 2
Fore
SplineSet
1217 345 m 1,0,-1
 1217 0 l 1,1,-1
 258 0 l 1,2,-1
 258 326 l 1,3,4
 332 387 332 387 416.5 454.5 c 128,-1,5
 501 522 501 522 584 585 c 0,6,7
 749 708 749 708 793 760 c 1,8,9
 836 809 836 809 866 849.5 c 128,-1,10
 896 890 896 890 913 924 c 0,11,12
 929 956 929 956 937.5 986.5 c 128,-1,13
 946 1017 946 1017 946 1046 c 0,14,15
 946 1140 946 1140 879 1199 c 1,16,17
 812 1260 812 1260 702 1260 c 0,18,19
 617 1260 617 1260 510 1223 c 128,-1,20
 403 1186 403 1186 267 1110 c 1,21,-1
 267 1389 l 1,22,23
 528 1493 528 1493 698 1493 c 0,24,25
 928 1493 928 1493 1068 1377 c 1,26,27
 1210 1256 1210 1256 1210 1058 c 0,28,29
 1210 965 1210 965 1174 881 c 1,30,31
 1141 799 1141 799 1051 690 c 0,32,33
 1039 676 1039 676 1002 636.5 c 128,-1,34
 965 597 965 597 902 531 c 1,35,36
 807 435 807 435 770 345 c 1,37,-1
 1217 345 l 1,0,-1
EndSplineSet
Validated: 1
EndChar

StartChar: three
Encoding: 51 51 22
Width: 1383
Flags: W
LayerCount: 2
Fore
SplineSet
1182 1095 m 0,0,1
 1182 995 1182 995 1138.5 919.5 c 128,-1,2
 1095 844 1095 844 1012 796 c 1,3,4
 1081 767 1081 767 1130 711 c 1,5,6
 1172 660 1172 660 1193.5 597.5 c 128,-1,7
 1215 535 1215 535 1215 461 c 0,8,9
 1215 339 1215 339 1176.5 247.5 c 128,-1,10
 1138 156 1138 156 1063.5 95 c 128,-1,11
 989 34 989 34 880.5 3.5 c 128,-1,12
 772 -27 772 -27 632 -27 c 0,13,14
 452 -27 452 -27 223 52 c 1,15,-1
 223 439 l 1,16,17
 325 379 325 379 427.5 348.5 c 128,-1,18
 530 318 530 318 627 318 c 0,19,20
 790 318 790 318 872 388 c 0,21,22
 953 457 953 457 953 489 c 0,23,24
 953 566 953 566 880 624 c 0,25,26
 803 686 803 686 663 686 c 2,27,-1
 464 686 l 1,28,-1
 464 916 l 1,29,-1
 671 916 l 2,30,31
 792 916 792 916 856 961.5 c 128,-1,32
 920 1007 920 1007 920 1094 c 0,33,34
 920 1183 920 1183 854 1231 c 128,-1,35
 788 1279 788 1279 663 1279 c 0,36,37
 588 1279 588 1279 491 1259 c 128,-1,38
 394 1239 394 1239 265 1195 c 1,39,-1
 265 1425 l 1,40,41
 387 1460 387 1460 489.5 1476.5 c 128,-1,42
 592 1493 592 1493 680 1493 c 0,43,44
 794 1493 794 1493 885 1467 c 128,-1,45
 976 1441 976 1441 1043 1387 c 1,46,-1
 1043 1388 l 1,47,48
 1182 1280 1182 1280 1182 1095 c 0,0,1
EndSplineSet
Validated: 1
EndChar

StartChar: four
Encoding: 52 52 23
Width: 1175
Flags: W
LayerCount: 2
Fore
SplineSet
628 1202 m 1,0,-1
 260 625 l 1,1,-1
 620 625 l 1,2,-1
 628 1202 l 1,0,-1
598 1468 m 1,3,-1
 892 1468 l 1,4,-1
 901 625 l 1,5,-1
 1090 625 l 1,6,-1
 1090 394 l 1,7,-1
 902 394 l 1,8,9
 904 347 904 347 907 296.5 c 128,-1,10
 910 246 910 246 912.5 195 c 128,-1,11
 915 144 915 144 917.5 94.5 c 128,-1,12
 920 45 920 45 922 0 c 1,13,-1
 590 0 l 1,14,-1
 610 394 l 1,15,-1
 0 394 l 1,16,-1
 0 558 l 1,17,-1
 598 1468 l 1,3,-1
EndSplineSet
Validated: 1
EndChar

StartChar: five
Encoding: 53 53 24
Width: 1343
Flags: W
LayerCount: 2
Fore
SplineSet
293 1468 m 1,0,-1
 1108 1468 l 1,1,-1
 1108 1253 l 1,2,-1
 522 1253 l 1,3,-1
 522 978 l 1,4,5
 565 987 565 987 598.5 991.5 c 128,-1,6
 632 996 632 996 667 996 c 0,7,8
 913 996 913 996 1062 858 c 1,9,10
 1210 719 1210 719 1210 484 c 0,11,12
 1210 242 1210 242 1058 106 c 1,13,14
 907 -27 907 -27 638 -27 c 0,15,16
 460 -27 460 -27 234 43 c 1,17,-1
 234 425 l 1,18,19
 343 366 343 366 441 337.5 c 128,-1,20
 539 309 539 309 635 309 c 0,21,22
 783 309 783 309 859 384 c 1,23,24
 938 457 938 457 938 512 c 0,25,26
 938 639 938 639 858.5 701 c 128,-1,27
 779 763 779 763 635 763 c 0,28,29
 562 763 562 763 478.5 741.5 c 128,-1,30
 395 720 395 720 293 673 c 1,31,-1
 293 1468 l 1,0,-1
EndSplineSet
Validated: 1
EndChar

StartChar: six
Encoding: 54 54 25
Width: 1355
Flags: W
LayerCount: 2
Fore
SplineSet
688 772 m 256,0,1
 577 772 577 772 515 698 c 0,2,3
 450 622 450 622 450 484 c 0,4,5
 450 409 450 409 509 365 c 0,6,7
 572 318 572 318 688 318 c 256,8,9
 804 318 804 318 867 365 c 0,10,11
 926 409 926 409 926 484 c 0,12,13
 926 622 926 622 861 698 c 0,14,15
 799 772 799 772 688 772 c 256,0,1
1100 1169 m 1,16,17
 1007 1214 1007 1214 925.5 1237 c 128,-1,18
 844 1260 844 1260 776 1260 c 0,19,20
 630 1260 630 1260 543 1169 c 128,-1,21
 456 1078 456 1078 427 901 c 1,22,23
 484 948 484 948 552 972 c 128,-1,24
 620 996 620 996 700 996 c 0,25,26
 925 996 925 996 1058 857 c 0,27,28
 1124 787 1124 787 1157.5 694.5 c 128,-1,29
 1191 602 1191 602 1191 484 c 0,30,31
 1191 253 1191 253 1053 114 c 1,32,33
 915 -27 915 -27 688 -27 c 0,34,35
 425 -27 425 -27 288 174 c 1,36,37
 154 368 154 368 154 733 c 0,38,39
 154 1076 154 1076 319 1282 c 0,40,41
 487 1493 487 1493 769 1493 c 0,42,43
 843 1493 843 1493 924 1476.5 c 128,-1,44
 1005 1460 1005 1460 1100 1426 c 1,45,-1
 1100 1169 l 1,16,17
EndSplineSet
Validated: 1
EndChar

StartChar: seven
Encoding: 55 55 26
Width: 1108
Flags: W
LayerCount: 2
Fore
SplineSet
82 1468 m 1,0,-1
 1043 1468 l 1,1,-1
 1043 1345 l 1,2,-1
 687 0 l 1,3,-1
 266 0 l 1,4,-1
 780 1253 l 1,5,-1
 82 1253 l 1,6,-1
 82 1468 l 1,0,-1
EndSplineSet
Validated: 1
EndChar

StartChar: eight
Encoding: 56 56 27
Width: 1375
Flags: W
LayerCount: 2
Fore
SplineSet
688 680 m 256,0,1
 566 680 566 680 501 619 c 0,2,3
 437 558 437 558 437 448 c 0,4,5
 437 394 437 394 501 339 c 0,6,7
 567 281 567 281 688 281 c 256,8,9
 809 281 809 281 876 339 c 1,10,-1
 875 339 l 1,11,12
 940 396 940 396 940 448 c 0,13,14
 940 559 940 559 875 619 c 0,15,16
 810 680 810 680 688 680 c 256,0,1
250 680 m 0,17,18
 280 712 280 712 314.5 737.5 c 128,-1,19
 349 763 349 763 390 781 c 1,20,21
 305 829 305 829 264.5 909 c 128,-1,22
 224 989 224 989 224 1095 c 0,23,24
 224 1261 224 1261 346 1368 c 256,25,26
 468 1475 468 1475 688 1475 c 0,27,28
 909 1475 909 1475 1031 1368 c 1,29,30
 1152 1259 1152 1259 1152 1095 c 0,31,32
 1152 989 1152 989 1111.5 909 c 128,-1,33
 1071 829 1071 829 987 781 c 1,34,35
 1067 745 1067 745 1126 680 c 0,36,37
 1222 576 1222 576 1222 429 c 0,38,39
 1222 208 1222 208 1075 90 c 1,40,41
 931 -27 931 -27 688 -27 c 0,42,43
 443 -27 443 -27 301 90 c 1,44,45
 154 208 154 208 154 429 c 0,46,47
 154 576 154 576 250 680 c 0,17,18
468 1133 m 0,48,49
 468 1042 468 1042 525 991.5 c 128,-1,50
 582 941 582 941 688 941 c 0,51,52
 792 941 792 941 850.5 991.5 c 128,-1,53
 909 1042 909 1042 909 1133 c 0,54,55
 909 1208 909 1208 853 1255 c 1,56,57
 824 1281 824 1281 783 1294 c 128,-1,58
 742 1307 742 1307 688 1307 c 0,59,60
 582 1307 582 1307 522 1255 c 1,61,-1
 523 1255 l 1,62,63
 468 1206 468 1206 468 1133 c 0,48,49
EndSplineSet
Validated: 1
EndChar

StartChar: nine
Encoding: 57 57 28
Width: 1360
Flags: W
LayerCount: 2
Fore
SplineSet
260 409 m 1,0,1
 353 364 353 364 435 341 c 128,-1,2
 517 318 517 318 584 318 c 0,3,4
 672 318 672 318 737 334 c 128,-1,5
 802 350 802 350 847 381 c 0,6,7
 909 424 909 424 933 567 c 1,8,9
 876 520 876 520 807.5 496 c 128,-1,10
 739 472 739 472 661 472 c 0,11,12
 436 472 436 472 302 609 c 1,13,14
 171 746 171 746 171 982 c 0,15,16
 171 1214 171 1214 308 1352 c 1,17,18
 445 1493 445 1493 673 1493 c 0,19,20
 803 1493 803 1493 902.5 1443.5 c 128,-1,21
 1002 1394 1002 1394 1069.5 1298 c 128,-1,22
 1137 1202 1137 1202 1172 1060 c 128,-1,23
 1207 918 1207 918 1207 733 c 0,24,25
 1207 391 1207 391 1041 183 c 0,26,27
 874 -27 874 -27 592 -27 c 0,28,29
 518 -27 518 -27 436.5 -10.5 c 128,-1,30
 355 6 355 6 260 40 c 1,31,-1
 260 409 l 1,0,1
657 827 m 0,32,33
 804 827 804 827 888 860 c 1,34,35
 955 884 955 884 955 1012 c 0,36,37
 955 1145 955 1145 875 1222 c 256,38,39
 795 1299 795 1299 657 1299 c 0,40,41
 518 1299 518 1299 438 1222 c 0,42,43
 358 1146 358 1146 358 1012 c 0,44,45
 358 884 358 884 424 860 c 1,46,47
 508 827 508 827 657 827 c 0,32,33
EndSplineSet
Validated: 1
EndChar

StartChar: colon
Encoding: 58 58 29
Width: 924
Flags: W
LayerCount: 2
Fore
SplineSet
306 360 m 1,0,-1
 624 360 l 1,1,-1
 624 0 l 1,2,-1
 306 0 l 1,3,-1
 306 360 l 1,0,-1
306 1102 m 1,4,-1
 624 1102 l 1,5,-1
 624 762 l 1,6,-1
 306 762 l 1,7,-1
 306 1102 l 1,4,-1
EndSplineSet
Validated: 1
EndChar

StartChar: semicolon
Encoding: 59 59 30
Width: 603
Flags: W
LayerCount: 2
Fore
SplineSet
168 1098 m 1,0,-1
 469 1098 l 1,1,-1
 469 749 l 1,2,-1
 168 749 l 1,3,-1
 168 1098 l 1,0,-1
172 278 m 1,4,-1
 465 278 l 1,5,-1
 465 53 l 1,6,-1
 282 -306 l 1,7,-1
 77 -306 l 1,8,-1
 172 67 l 1,9,-1
 172 278 l 1,4,-1
EndSplineSet
Validated: 1
EndChar

StartChar: less
Encoding: 60 60 31
Width: 1563
Flags: W
LayerCount: 2
Fore
SplineSet
1307 929 m 1,0,-1
 394 692 l 1,1,-1
 1252 301 l 1,2,-1
 1226 -3 l 1,3,-1
 0 567 l 1,4,-1
 22 830 l 1,5,-1
 1329 1178 l 1,6,-1
 1307 929 l 1,0,-1
EndSplineSet
Validated: 1
EndChar

StartChar: equal
Encoding: 61 61 32
Width: 1881
Flags: W
LayerCount: 2
Fore
SplineSet
306 943 m 1,0,-1
 1577 943 l 1,1,-1
 1577 711 l 1,2,-1
 306 711 l 1,3,-1
 306 943 l 1,0,-1
306 590 m 1,4,-1
 1577 590 l 1,5,-1
 1577 329 l 1,6,-1
 306 329 l 1,7,-1
 306 590 l 1,4,-1
EndSplineSet
Validated: 1
EndChar

StartChar: greater
Encoding: 62 62 33
Width: 1564
Flags: W
LayerCount: 2
Fore
SplineSet
317 1048 m 1,0,-1
 338 1296 l 1,1,-1
 1564 726 l 1,2,-1
 1542 463 l 1,3,-1
 235 115 l 1,4,-1
 262 420 l 1,5,-1
 1172 656 l 1,6,-1
 317 1048 l 1,0,-1
EndSplineSet
Validated: 1
EndChar

StartChar: question
Encoding: 63 63 34
Width: 939
Flags: W
LayerCount: 2
Fore
SplineSet
274 330 m 1,0,-1
 594 330 l 1,1,-1
 594 -9 l 1,2,-1
 274 -9 l 1,3,-1
 274 330 l 1,0,-1
598 374 m 1,4,-1
 279 374 l 1,5,-1
 279 555 l 2,6,7
 279 606 279 606 286.5 649 c 128,-1,8
 294 692 294 692 308 729 c 1,9,10
 323 765 323 765 352.5 805 c 128,-1,11
 382 845 382 845 428 888 c 1,12,-1
 522 972 l 1,13,14
 557 1001 557 1001 583 1023 c 128,-1,15
 609 1045 609 1045 624 1062 c 1,16,17
 637 1075 637 1075 645 1088 c 128,-1,18
 653 1101 653 1101 656 1118 c 1,19,20
 656 1185 656 1185 604 1240 c 1,21,22
 556 1294 556 1294 471 1294 c 0,23,24
 402 1294 402 1294 309.5 1252.5 c 128,-1,25
 217 1211 217 1211 102 1132 c 1,26,-1
 102 1371 l 1,27,28
 303 1493 303 1493 503 1493 c 0,29,30
 597 1493 597 1493 670.5 1468.5 c 128,-1,31
 744 1444 744 1444 799 1393 c 0,32,33
 911 1291 911 1291 911 1127 c 0,34,35
 911 1043 911 1043 862 970 c 0,36,37
 841 939 841 939 810.5 901.5 c 128,-1,38
 780 864 780 864 740 822 c 0,39,40
 722 802 722 802 706.5 784.5 c 128,-1,41
 691 767 691 767 672 747 c 1,42,43
 662 730 662 730 651.5 714 c 128,-1,44
 641 698 641 698 634 687 c 0,45,46
 624 672 624 672 617 661 c 128,-1,47
 610 650 610 650 607 640 c 0,48,49
 602 624 602 624 600 598 c 128,-1,50
 598 572 598 572 598 526 c 2,51,-1
 598 374 l 1,4,-1
EndSplineSet
Validated: 1
EndChar

StartChar: at
Encoding: 64 64 35
Width: 1998
Flags: W
LayerCount: 2
Fore
SplineSet
776 615 m 0,0,1
 776 513 776 513 832 454 c 0,2,3
 886 397 886 397 987 397 c 0,4,5
 1086 397 1086 397 1140 454 c 0,6,7
 1196 513 1196 513 1196 615 c 0,8,9
 1196 716 1196 716 1139 775 c 1,10,11
 1081 833 1081 833 985 833 c 0,12,13
 890 833 890 833 832 775 c 1,14,15
 804 745 804 745 790 705.5 c 128,-1,16
 776 666 776 666 776 615 c 0,0,1
1238 166 m 1,17,18
 1184 121 1184 121 1121.5 101.5 c 128,-1,19
 1059 82 1059 82 978 82 c 0,20,21
 801 82 801 82 689 211 c 0,22,23
 580 338 580 338 580 539 c 0,24,25
 580 639 580 639 607 720.5 c 128,-1,26
 634 802 634 802 690 866 c 0,27,28
 803 996 803 996 978 996 c 0,29,30
 1134 996 1134 996 1238 911 c 1,31,-1
 1238 977 l 1,32,-1
 1446 977 l 1,33,-1
 1446 300 l 1,34,35
 1491 313 1491 313 1527.5 338.5 c 128,-1,36
 1564 364 1564 364 1592 399 c 1,37,38
 1626 447 1626 447 1644 509 c 128,-1,39
 1662 571 1662 571 1662 647 c 0,40,41
 1662 833 1662 833 1552 973 c 1,42,43
 1458 1089 1458 1089 1327 1150 c 128,-1,44
 1196 1211 1196 1211 1040 1211 c 0,45,46
 930 1211 930 1211 830.5 1182.5 c 128,-1,47
 731 1154 731 1154 645 1097 c 0,48,49
 505 1005 505 1005 428 861 c 0,50,51
 350 714 350 714 350 544 c 0,52,53
 350 405 350 405 399 322 c 1,54,-1
 398 322 l 1,55,56
 423 280 423 280 468 224 c 128,-1,57
 513 168 513 168 568 109 c 1,58,59
 660 19 660 19 769 -14 c 0,60,61
 826 -32 826 -32 889.5 -40.5 c 128,-1,62
 953 -49 953 -49 1024 -49 c 0,63,64
 1136 -49 1136 -49 1250.5 -11 c 128,-1,65
 1365 27 1365 27 1474 108 c 1,66,67
 1421 94 1421 94 1362.5 86.5 c 128,-1,68
 1304 79 1304 79 1238 77 c 1,69,-1
 1238 166 l 1,17,18
1711 236 m 0,70,71
 1624 152 1624 152 1490 113 c 1,72,-1
 1606 -119 l 1,73,74
 1471 -223 1471 -223 1322 -277.5 c 128,-1,75
 1173 -332 1173 -332 1024 -332 c 0,76,77
 842 -332 842 -332 683.5 -268.5 c 128,-1,78
 525 -205 525 -205 400 -83 c 0,79,80
 274 40 274 40 209 199.5 c 128,-1,81
 144 359 144 359 144 544 c 0,82,83
 144 722 144 722 210 881.5 c 128,-1,84
 276 1041 276 1041 400 1165 c 1,85,86
 527 1290 527 1290 690.5 1355.5 c 128,-1,87
 854 1421 854 1421 1038 1421 c 0,88,89
 1245 1421 1245 1421 1421 1336 c 0,90,91
 1598 1250 1598 1250 1720 1094 c 1,92,93
 1794 997 1794 997 1832.5 884.5 c 128,-1,94
 1871 772 1871 772 1871 651 c 0,95,96
 1871 389 1871 389 1711 236 c 0,70,71
EndSplineSet
Validated: 1
EndChar

StartChar: A
Encoding: 65 65 36
Width: 1480
Flags: W
LayerCount: 2
Fore
SplineSet
740 1158 m 1,0,1
 713 1077 713 1077 688 1001 c 128,-1,2
 663 925 663 925 637.5 849 c 128,-1,3
 612 773 612 773 586 694.5 c 128,-1,4
 560 616 560 616 532 532 c 1,5,-1
 949 532 l 1,6,-1
 740 1158 l 1,0,1
625 1493 m 1,7,-1
 856 1493 l 1,8,-1
 1445 0 l 1,9,-1
 1083 0 l 1,10,-1
 1030 231 l 1,11,-1
 449 231 l 1,12,-1
 377 0 l 1,13,-1
 35 0 l 1,14,-1
 625 1493 l 1,7,-1
EndSplineSet
Validated: 1
EndChar

StartChar: B
Encoding: 66 66 37
Width: 1531
Flags: W
LayerCount: 2
Fore
SplineSet
574 677 m 1,0,-1
 574 357 l 1,1,-1
 844 357 l 2,2,3
 990 357 990 357 1053 396 c 1,4,-1
 1052 396 l 1,5,6
 1109 430 1109 430 1109 541 c 0,7,8
 1109 571 1109 571 1048 622 c 1,9,10
 984 677 984 677 844 677 c 2,11,-1
 574 677 l 1,0,-1
574 1288 m 1,12,-1
 574 908 l 1,13,-1
 820 908 l 2,14,15
 1060 908 1060 908 1060 1084 c 0,16,17
 1060 1174 1060 1174 1002 1231 c 0,18,19
 945 1288 945 1288 820 1288 c 2,20,-1
 574 1288 l 1,12,-1
306 1493 m 1,21,-1
 787 1493 l 2,22,23
 906 1493 906 1493 998 1467 c 128,-1,24
 1090 1441 1090 1441 1153 1391.5 c 128,-1,25
 1216 1342 1216 1342 1248.5 1270 c 128,-1,26
 1281 1198 1281 1198 1281 1105 c 0,27,28
 1281 889 1281 889 1136 808 c 1,29,30
 1275 758 1275 758 1340.5 662 c 128,-1,31
 1406 566 1406 566 1406 435 c 0,32,33
 1406 226 1406 226 1253 111 c 0,34,35
 1104 0 1104 0 853 0 c 2,36,-1
 306 0 l 1,37,-1
 306 1493 l 1,21,-1
EndSplineSet
Validated: 1
EndChar

StartChar: C
Encoding: 67 67 38
Width: 1594
Flags: W
LayerCount: 2
Fore
SplineSet
1358 1056 m 1,0,1
 1233 1172 1233 1172 1115 1228.5 c 128,-1,2
 997 1285 997 1285 881 1285 c 0,3,4
 655 1285 655 1285 536.5 1147 c 128,-1,5
 418 1009 418 1009 418 745 c 1,6,7
 422 516 422 516 535 429 c 1,8,9
 649 339 649 339 881 339 c 0,10,11
 997 339 997 339 1115 395.5 c 128,-1,12
 1233 452 1233 452 1358 568 c 1,13,-1
 1358 127 l 1,14,15
 1245 50 1245 50 1123.5 11 c 128,-1,16
 1002 -28 1002 -28 870 -28 c 0,17,18
 532 -28 532 -28 335 181 c 0,19,20
 140 389 140 389 140 745 c 0,21,22
 140 1100 140 1100 335 1309 c 0,23,24
 531 1519 531 1519 870 1519 c 0,25,26
 1133 1519 1133 1519 1358 1366 c 1,27,-1
 1358 1056 l 1,0,1
EndSplineSet
Validated: 1
EndChar

StartChar: D
Encoding: 68 68 39
Width: 1723
Flags: W
LayerCount: 2
Fore
SplineSet
583 1260 m 1,0,-1
 583 433 l 1,1,-1
 776 433 l 2,2,3
 1055 433 1055 433 1160 503 c 1,4,5
 1205 539 1205 539 1244.5 607.5 c 128,-1,6
 1284 676 1284 676 1304 770 c 1,7,8
 1304 893 1304 893 1272.5 984.5 c 128,-1,9
 1241 1076 1241 1076 1176 1137.5 c 128,-1,10
 1111 1199 1111 1199 1011.5 1229.5 c 128,-1,11
 912 1260 912 1260 776 1260 c 2,12,-1
 583 1260 l 1,0,-1
306 1493 m 1,13,-1
 738 1493 l 2,14,15
 947 1493 947 1493 1106.5 1446.5 c 128,-1,16
 1266 1400 1266 1400 1368 1312 c 1,17,18
 1468 1220 1468 1220 1520.5 1078.5 c 128,-1,19
 1573 937 1573 937 1573 748 c 0,20,21
 1573 366 1573 366 1367 181 c 1,22,23
 1162 0 1162 0 738 0 c 2,24,-1
 306 0 l 1,25,-1
 306 1493 l 1,13,-1
EndSplineSet
Validated: 1
EndChar

StartChar: E
Encoding: 69 69 40
Width: 1565
Flags: W
LayerCount: 2
Fore
SplineSet
306 1493 m 1,0,-1
 1278 1493 l 1,1,-1
 1278 1256 l 1,2,-1
 574 1256 l 1,3,-1
 574 912 l 1,4,-1
 1248 912 l 1,5,-1
 1248 675 l 1,6,-1
 574 675 l 1,7,-1
 574 370 l 1,8,-1
 1295 370 l 1,9,-1
 1295 0 l 1,10,-1
 306 0 l 1,11,-1
 306 1493 l 1,0,-1
EndSplineSet
Validated: 1
EndChar

StartChar: F
Encoding: 70 70 41
Width: 1159
Flags: W
LayerCount: 2
Fore
SplineSet
305 1493 m 1,0,-1
 1156 1493 l 1,1,-1
 1156 1246 l 1,2,-1
 570 1246 l 1,3,4
 568 1202 568 1202 566 1162 c 128,-1,5
 564 1122 564 1122 561.5 1082 c 128,-1,6
 559 1042 559 1042 557 1001 c 128,-1,7
 555 960 555 960 553 914 c 1,8,-1
 1105 914 l 1,9,-1
 1105 639 l 1,10,-1
 563 639 l 1,11,-1
 582 0 l 1,12,-1
 265 0 l 1,13,-1
 305 1493 l 1,0,-1
EndSplineSet
Validated: 1
EndChar

StartChar: G
Encoding: 71 71 42
Width: 1692
Flags: W
LayerCount: 2
Fore
SplineSet
1170 507 m 1,0,-1
 867 507 l 1,1,-1
 867 788 l 1,2,-1
 1465 788 l 1,3,-1
 1465 150 l 1,4,5
 1215 -28 1215 -28 896 -28 c 0,6,7
 548 -28 548 -28 348 177 c 1,8,9
 151 385 151 385 151 745 c 0,10,11
 151 1108 151 1108 348 1313 c 1,12,13
 548 1519 548 1519 896 1519 c 0,14,15
 1041 1519 1041 1519 1174.5 1480.5 c 128,-1,16
 1308 1442 1308 1442 1428 1367 c 1,17,-1
 1428 1079 l 1,18,19
 1164 1304 1164 1304 912 1304 c 0,20,21
 671 1304 671 1304 550.5 1169.5 c 128,-1,22
 430 1035 430 1035 429 766 c 1,23,24
 435 648 435 648 465 565 c 128,-1,25
 495 482 495 482 549 441 c 1,26,-1
 548 441 l 1,27,28
 664 358 664 358 912 358 c 0,29,30
 962 358 962 358 1005 362 c 128,-1,31
 1048 366 1048 366 1086 374 c 1,32,-1
 1085 374 l 1,33,34
 1140 387 1140 387 1170 409 c 1,35,-1
 1170 507 l 1,0,-1
EndSplineSet
Validated: 1
EndChar

StartChar: H
Encoding: 72 72 43
Width: 1758
Flags: W
LayerCount: 2
Fore
SplineSet
311 1493 m 1,0,-1
 589 1493 l 1,1,-1
 589 817 l 1,2,-1
 1171 817 l 1,3,-1
 1171 1493 l 1,4,-1
 1449 1493 l 1,5,-1
 1468 0 l 1,6,-1
 1171 0 l 1,7,-1
 1171 476 l 1,8,-1
 589 476 l 1,9,-1
 589 0 l 1,10,-1
 292 0 l 1,11,-1
 311 1493 l 1,0,-1
EndSplineSet
Validated: 1
EndChar

StartChar: I
Encoding: 73 73 44
Width: 770
Flags: W
LayerCount: 2
Fore
SplineSet
248 1493 m 1,0,-1
 505 1493 l 1,1,-1
 524 0 l 1,2,-1
 217 0 l 1,3,-1
 248 1493 l 1,0,-1
EndSplineSet
Validated: 1
EndChar

StartChar: J
Encoding: 74 74 45
Width: 850
Flags: W
LayerCount: 2
Fore
SplineSet
395 1497 m 1,0,-1
 672 1480 l 1,1,-1
 619 96 l 1,2,3
 616 -38 616 -38 587 -135.5 c 128,-1,4
 558 -233 558 -233 504 -289 c 1,5,6
 395 -405 395 -405 150 -410 c 1,7,-1
 3 -395 l 1,8,-1
 3 0 l 1,9,-1
 138 -30 l 1,10,11
 189 -27 189 -27 229.5 -14 c 128,-1,12
 270 -1 270 -1 293 21 c 0,13,14
 339 65 339 65 341 111 c 2,15,-1
 395 1497 l 1,0,-1
EndSplineSet
Validated: 1
EndChar

StartChar: K
Encoding: 75 75 46
Width: 1675
Flags: W
LayerCount: 2
Fore
SplineSet
317 1493 m 1,0,-1
 584 1493 l 1,1,-1
 567 945 l 1,2,-1
 1148 1493 l 1,3,-1
 1505 1493 l 1,4,-1
 760 793 l 1,5,-1
 1551 0 l 1,6,-1
 988 0 l 1,7,-1
 571 590 l 1,8,9
 575 519 575 519 579.5 443 c 128,-1,10
 584 367 584 367 588.5 291 c 128,-1,11
 593 215 593 215 597 141 c 128,-1,12
 601 67 601 67 604 0 c 1,13,-1
 277 0 l 1,14,-1
 317 1493 l 1,0,-1
EndSplineSet
Validated: 1
EndChar

StartChar: L
Encoding: 76 76 47
Width: 1257
Flags: W
LayerCount: 2
Fore
SplineSet
307 1493 m 1,0,-1
 574 1493 l 1,1,-1
 565 370 l 1,2,-1
 1257 370 l 1,3,-1
 1234 0 l 1,4,-1
 287 0 l 1,5,-1
 307 1493 l 1,0,-1
EndSplineSet
Validated: 1
EndChar

StartChar: M
Encoding: 77 77 48
Width: 1985
Flags: W
LayerCount: 2
Fore
SplineSet
317 1493 m 1,0,-1
 665 1493 l 1,1,-1
 993 710 l 1,2,-1
 1340 1493 l 1,3,-1
 1669 1493 l 1,4,-1
 1699 0 l 1,5,-1
 1377 0 l 1,6,-1
 1409 1027 l 1,7,-1
 1135 225 l 1,8,-1
 850 225 l 1,9,-1
 576 1029 l 1,10,11
 584 771 584 771 592 511 c 128,-1,12
 600 251 600 251 608 0 c 1,13,-1
 287 0 l 1,14,-1
 317 1493 l 1,0,-1
EndSplineSet
Validated: 1
EndChar

StartChar: N
Encoding: 78 78 49
Width: 1741
Flags: W
LayerCount: 2
Fore
SplineSet
308 1465 m 1,0,-1
 607 1465 l 1,1,-1
 1159 451 l 1,2,-1
 1185 1493 l 1,3,-1
 1437 1493 l 1,4,-1
 1437 0 l 1,5,-1
 1099 0 l 1,6,-1
 540 1054 l 1,7,8
 553 792 553 792 565.5 524 c 128,-1,9
 578 256 578 256 590 0 c 1,10,-1
 269 0 l 1,11,-1
 308 1465 l 1,0,-1
EndSplineSet
Validated: 1
EndChar

StartChar: O
Encoding: 79 79 50
Width: 1709
Flags: W
LayerCount: 2
Fore
SplineSet
856 1287 m 0,0,1
 763 1287 763 1287 686 1249.5 c 128,-1,2
 609 1212 609 1212 553 1146 c 1,3,4
 499 1074 499 1074 469 972 c 128,-1,5
 439 870 439 870 439 745 c 0,6,7
 439 646 439 646 465.5 580.5 c 128,-1,8
 492 515 492 515 543 482 c 1,9,10
 600 448 600 448 678.5 430.5 c 128,-1,11
 757 413 757 413 856 413 c 0,12,13
 1055 413 1055 413 1166 482 c 0,14,15
 1270 547 1270 547 1270 745 c 0,16,17
 1270 1002 1270 1002 1156 1146 c 1,18,19
 1046 1287 1046 1287 856 1287 c 0,0,1
856 1519 m 0,20,21
 1170 1519 1170 1519 1361 1306 c 0,22,23
 1455 1200 1455 1200 1502 1061 c 128,-1,24
 1549 922 1549 922 1549 745 c 0,25,26
 1549 396 1549 396 1361 184 c 1,27,28
 1169 -28 1169 -28 856 -28 c 0,29,30
 540 -28 540 -28 349 184 c 1,31,32
 161 396 161 396 161 745 c 0,33,34
 161 922 161 922 208 1061 c 128,-1,35
 255 1200 255 1200 349 1306 c 0,36,37
 539 1519 539 1519 856 1519 c 0,20,21
EndSplineSet
Validated: 1
EndChar

StartChar: P
Encoding: 80 80 51
Width: 1294
Flags: W
LayerCount: 2
Fore
SplineSet
586 1335 m 1,0,1
 584 1275 584 1275 582 1219.5 c 128,-1,2
 580 1164 580 1164 577.5 1109 c 128,-1,3
 575 1054 575 1054 573 997.5 c 128,-1,4
 571 941 571 941 569 879 c 1,5,-1
 789 879 l 2,6,7
 915 879 915 879 983 938 c 128,-1,8
 1051 997 1051 997 1051 1108 c 0,9,10
 1051 1217 1051 1217 983 1276 c 128,-1,11
 915 1335 915 1335 789 1335 c 2,12,-1
 586 1335 l 1,0,1
312 1493 m 1,13,-1
 771 1493 l 2,14,15
 1030 1493 1030 1493 1160.5 1376.5 c 128,-1,16
 1291 1260 1291 1260 1291 1032 c 0,17,18
 1291 803 1291 803 1157 678 c 1,19,20
 1027 551 1027 551 771 551 c 2,21,-1
 576 551 l 1,22,-1
 557 0 l 1,23,-1
 251 0 l 1,24,-1
 312 1493 l 1,13,-1
EndSplineSet
Validated: 1
EndChar

StartChar: Q
Encoding: 81 81 52
Width: 1705
Flags: W
LayerCount: 2
Fore
SplineSet
790 1287 m 0,0,1
 697 1287 697 1287 620 1249.5 c 128,-1,2
 543 1212 543 1212 487 1146 c 1,3,4
 433 1074 433 1074 403 972 c 128,-1,5
 373 870 373 870 373 745 c 0,6,7
 373 549 373 549 476 488 c 1,8,9
 533 456 533 456 583 437 c 128,-1,10
 633 418 633 418 671 413 c 1,11,-1
 736 402 l 1,12,13
 745 418 745 418 756.5 437 c 128,-1,14
 768 456 768 456 779 475 c 128,-1,15
 790 494 790 494 800.5 511 c 128,-1,16
 811 528 811 528 819 542 c 1,17,18
 883 513 883 513 944 493.5 c 128,-1,19
 1005 474 1005 474 1057 466 c 1,20,21
 1204 552 1204 552 1204 745 c 0,22,23
 1204 1000 1204 1000 1090 1146 c 0,24,25
 979 1287 979 1287 790 1287 c 0,0,1
1595 -251 m 1,26,-1
 1042 -251 l 1,27,-1
 844 -26 l 1,28,29
 821 -28 821 -28 807 -28 c 128,-1,30
 793 -28 793 -28 780 -28 c 0,31,32
 474 -28 474 -28 283 184 c 0,33,34
 95 394 95 394 95 745 c 0,35,36
 95 1095 95 1095 283 1306 c 0,37,38
 473 1519 473 1519 790 1519 c 0,39,40
 1104 1519 1104 1519 1295 1306 c 1,41,42
 1482 1095 1482 1095 1482 745 c 0,43,44
 1482 490 1482 490 1402 338 c 0,45,46
 1367 273 1367 273 1332.5 219 c 128,-1,47
 1298 165 1298 165 1261 121 c 1,48,-1
 1595 -251 l 1,26,-1
EndSplineSet
Validated: 1
EndChar

StartChar: R
Encoding: 82 82 53
Width: 1568
Flags: W
LayerCount: 2
Fore
SplineSet
1268 1047 m 0,0,1
 1268 925 1268 925 1223.5 837 c 128,-1,2
 1179 749 1179 749 1098 700 c 1,3,4
 1148 662 1148 662 1194.5 597 c 128,-1,5
 1241 532 1241 532 1287 442 c 0,6,7
 1311 394 1311 394 1340 336.5 c 128,-1,8
 1369 279 1369 279 1399 220 c 128,-1,9
 1429 161 1429 161 1457.5 104 c 128,-1,10
 1486 47 1486 47 1509 0 c 1,11,-1
 1150 0 l 1,12,-1
 997 387 l 1,13,-1
 998 384 l 1,14,15
 933 518 933 518 873 559 c 1,16,17
 817 599 817 599 716 599 c 2,18,-1
 611 599 l 1,19,-1
 611 0 l 1,20,-1
 306 0 l 1,21,-1
 306 1493 l 1,22,-1
 777 1493 l 2,23,24
 893 1493 893 1493 984 1465.5 c 128,-1,25
 1075 1438 1075 1438 1138 1382.5 c 128,-1,26
 1201 1327 1201 1327 1234.5 1243 c 128,-1,27
 1268 1159 1268 1159 1268 1047 c 0,0,1
592 1316 m 1,28,-1
 592 870 l 1,29,-1
 796 870 l 2,30,31
 894 870 894 870 978 927 c 0,32,33
 1057 981 1057 981 1057 1047 c 0,34,35
 1057 1206 1057 1206 978 1260 c 1,36,37
 893 1316 893 1316 796 1316 c 2,38,-1
 592 1316 l 1,28,-1
EndSplineSet
Validated: 1
EndChar

StartChar: S
Encoding: 83 83 54
Width: 1445
Flags: W
LayerCount: 2
Fore
SplineSet
1200 1162 m 1,0,1
 1066 1225 1066 1225 960.5 1256 c 128,-1,2
 855 1287 855 1287 769 1287 c 0,3,4
 630 1287 630 1287 555 1236.5 c 128,-1,5
 480 1186 480 1186 480 1092 c 0,6,7
 480 1014 480 1014 523 978 c 1,8,-1
 522 979 l 1,9,10
 573 936 573 936 719 909 c 1,11,-1
 836 886 l 1,12,-1
 835 886 l 1,13,14
 1065 842 1065 842 1175 730 c 128,-1,15
 1285 618 1285 618 1285 429 c 0,16,17
 1285 205 1285 205 1137.5 88.5 c 128,-1,18
 990 -28 990 -28 704 -28 c 0,19,20
 600 -28 600 -28 477 -2.5 c 128,-1,21
 354 23 354 23 217 74 c 1,22,-1
 217 468 l 1,23,24
 359 389 359 389 479.5 348.5 c 128,-1,25
 600 308 600 308 704 308 c 0,26,27
 855 308 855 308 936 366 c 0,28,29
 1009 418 1009 418 1009 462 c 0,30,31
 1009 482 1009 482 995.5 504 c 128,-1,32
 982 526 982 526 957 550 c 1,33,34
 930 573 930 573 878.5 594 c 128,-1,35
 827 615 827 615 765 629 c 1,36,-1
 648 652 l 1,37,38
 422 695 422 695 319 795 c 0,39,40
 212 899 212 899 212 1076 c 0,41,42
 212 1283 212 1283 358 1402 c 0,43,44
 502 1519 502 1519 747 1519 c 0,45,46
 951 1519 951 1519 1200 1436 c 1,47,-1
 1200 1162 l 1,0,1
EndSplineSet
Validated: 1
EndChar

StartChar: T
Encoding: 84 84 55
Width: 1368
Flags: W
LayerCount: 2
Fore
SplineSet
47 1493 m 1,0,-1
 1322 1493 l 1,1,-1
 1322 1254 l 1,2,-1
 820 1274 l 1,3,-1
 858 0 l 1,4,-1
 511 0 l 1,5,-1
 549 1274 l 1,6,-1
 47 1255 l 1,7,-1
 47 1493 l 1,0,-1
EndSplineSet
Validated: 1
EndChar

StartChar: U
Encoding: 85 85 56
Width: 1667
Flags: W
LayerCount: 2
Fore
SplineSet
254 1493 m 1,0,-1
 523 1493 l 1,1,-1
 523 727 l 2,2,3
 523 514 523 514 597 422 c 1,4,-1
 597 423 l 1,5,6
 668 337 668 337 835 337 c 256,7,8
 1002 337 1002 337 1073 423 c 1,9,-1
 1073 422 l 1,10,11
 1147 514 1147 514 1147 727 c 2,12,-1
 1147 1493 l 1,13,-1
 1415 1493 l 1,14,-1
 1415 570 l 2,15,16
 1415 273 1415 273 1269 122.5 c 128,-1,17
 1123 -28 1123 -28 835 -28 c 0,18,19
 548 -28 548 -28 401 123.5 c 128,-1,20
 254 275 254 275 254 570 c 2,21,-1
 254 1493 l 1,0,-1
EndSplineSet
Validated: 1
EndChar

StartChar: V
Encoding: 86 86 57
Width: 1509
Flags: W
LayerCount: 2
Fore
SplineSet
571 0 m 1,0,-1
 52 1493 l 1,1,-1
 331 1493 l 1,2,-1
 755 493 l 1,3,-1
 1179 1493 l 1,4,-1
 1457 1493 l 1,5,-1
 939 0 l 1,6,-1
 571 0 l 1,0,-1
EndSplineSet
Validated: 1
EndChar

StartChar: W
Encoding: 87 87 58
Width: 2192
Flags: W
LayerCount: 2
Fore
SplineSet
158 1493 m 1,0,-1
 418 1493 l 1,1,-1
 688 542 l 1,2,3
 762 689 762 689 839.5 839 c 128,-1,4
 917 989 917 989 989 1132 c 1,5,-1
 1206 1132 l 1,6,-1
 1482 525 l 1,7,8
 1557 765 1557 765 1635 1011 c 128,-1,9
 1713 1257 1713 1257 1787 1493 c 1,10,-1
 2049 1493 l 1,11,-1
 1673 0 l 1,12,-1
 1337 0 l 1,13,-1
 1102 688 l 1,14,15
 1040 519 1040 519 974 342 c 128,-1,16
 908 165 908 165 847 0 c 1,17,-1
 492 0 l 1,18,-1
 158 1493 l 1,0,-1
EndSplineSet
Validated: 1
EndChar

StartChar: X
Encoding: 88 88 59
Width: 1711
Flags: W
LayerCount: 2
Fore
SplineSet
239 1493 m 1,0,-1
 532 1493 l 1,1,-1
 863 928 l 1,2,-1
 1195 1493 l 1,3,-1
 1489 1493 l 1,4,-1
 1030 700 l 1,5,-1
 1527 0 l 1,6,-1
 1120 0 l 1,7,-1
 847 470 l 1,8,-1
 573 0 l 1,9,-1
 165 0 l 1,10,-1
 681 702 l 1,11,-1
 239 1493 l 1,0,-1
EndSplineSet
Validated: 1
EndChar

StartChar: Y
Encoding: 89 89 60
Width: 1381
Flags: W
LayerCount: 2
Fore
SplineSet
32 1493 m 1,0,-1
 323 1493 l 1,1,-1
 693 809 l 1,2,-1
 1060 1493 l 1,3,-1
 1351 1493 l 1,4,-1
 854 513 l 1,5,-1
 854 0 l 1,6,-1
 519 0 l 1,7,-1
 519 513 l 1,8,-1
 32 1493 l 1,0,-1
EndSplineSet
Validated: 1
EndChar

StartChar: Z
Encoding: 90 90 61
Width: 1790
Flags: W
LayerCount: 2
Fore
SplineSet
294 1493 m 1,0,-1
 1483 1493 l 1,1,-1
 1483 1294 l 1,2,-1
 635 361 l 1,3,-1
 1505 361 l 1,4,-1
 1505 0 l 1,5,-1
 272 0 l 1,6,-1
 272 323 l 1,7,-1
 1120 1256 l 1,8,-1
 294 1256 l 1,9,-1
 294 1493 l 1,0,-1
EndSplineSet
Validated: 1
EndChar

StartChar: bracketleft
Encoding: 91 91 62
Width: 969
Flags: W
LayerCount: 2
Fore
SplineSet
306 1527 m 1,0,-1
 776 1527 l 1,1,-1
 776 1319 l 1,2,-1
 552 1319 l 1,3,-1
 552 31 l 1,4,-1
 776 31 l 1,5,-1
 776 -252 l 1,6,-1
 306 -252 l 1,7,-1
 306 1527 l 1,0,-1
EndSplineSet
Validated: 1
EndChar

StartChar: backslash
Encoding: 92 92 63
Width: 687
Flags: W
LayerCount: 2
Fore
SplineSet
237 1462 m 1,0,-1
 687 -202 l 1,1,-1
 412 -191 l 1,2,-1
 0 1469 l 1,3,-1
 237 1462 l 1,0,-1
EndSplineSet
Validated: 1
EndChar

StartChar: bracketright
Encoding: 93 93 64
Width: 964
Flags: W
LayerCount: 2
Fore
SplineSet
662 1527 m 1,0,-1
 662 -252 l 1,1,-1
 191 -252 l 1,2,-1
 191 21 l 1,3,-1
 414 21 l 1,4,-1
 414 1319 l 1,5,-1
 191 1319 l 1,6,-1
 191 1527 l 1,7,-1
 662 1527 l 1,0,-1
EndSplineSet
Validated: 1
EndChar

StartChar: asciicircum
Encoding: 94 94 65
Width: 1439
Flags: W
LayerCount: 2
Fore
SplineSet
807 1468 m 1,0,-1
 1408 874 l 1,1,-1
 1009 874 l 1,2,-1
 719 1272 l 1,3,-1
 430 874 l 1,4,-1
 31 874 l 1,5,-1
 632 1468 l 1,6,-1
 807 1468 l 1,0,-1
EndSplineSet
Validated: 1
EndChar

StartChar: underscore
Encoding: 95 95 66
Width: 1678
Flags: W
LayerCount: 2
Fore
SplineSet
1374 -209 m 1,0,-1
 1374 -451 l 1,1,-1
 306 -451 l 1,2,-1
 306 -209 l 1,3,-1
 1374 -209 l 1,0,-1
EndSplineSet
Validated: 1
EndChar

StartChar: grave
Encoding: 96 96 67
Width: 633
Flags: W
LayerCount: 2
Fore
SplineSet
306 1603 m 1,0,-1
 626 1180 l 1,1,-1
 274 1180 l 1,2,-1
 40 1603 l 1,3,-1
 306 1603 l 1,0,-1
EndSplineSet
Validated: 1
EndChar

StartChar: a
Encoding: 97 97 68
Width: 1372
Flags: W
LayerCount: 2
Fore
SplineSet
669 534 m 2,0,1
 491 534 491 534 438 497 c 1,2,3
 391 466 391 466 390 389 c 1,4,5
 395 364 395 364 407.5 347.5 c 128,-1,6
 420 331 420 331 439 326 c 0,7,8
 496 309 496 309 585 309 c 0,9,10
 698 309 698 309 744 347 c 1,11,12
 786 383 786 383 786 533 c 2,13,-1
 786 534 l 1,14,-1
 669 534 l 2,0,1
1129 0 m 1,15,-1
 882 0 l 1,16,-1
 882 86 l 1,17,18
 822 31 822 31 742.5 2 c 128,-1,19
 663 -27 663 -27 559 -27 c 0,20,21
 470 -27 470 -27 400.5 -2 c 128,-1,22
 331 23 331 23 277 73 c 1,23,24
 171 176 171 176 171 342 c 0,25,26
 171 537 171 537 297.5 636 c 128,-1,27
 424 735 424 735 679 735 c 2,28,-1
 881 735 l 1,29,30
 874 825 874 825 807.5 879.5 c 128,-1,31
 741 934 741 934 621 944 c 1,32,33
 535 944 535 944 442 916 c 128,-1,34
 349 888 349 888 248 833 c 1,35,-1
 248 1060 l 1,36,37
 467 1145 467 1145 641 1145 c 0,38,39
 886 1145 886 1145 1007.5 1018 c 128,-1,40
 1129 891 1129 891 1129 634 c 2,41,-1
 1129 0 l 1,15,-1
EndSplineSet
Validated: 1
EndChar

StartChar: b
Encoding: 98 98 69
Width: 1314
Flags: W
LayerCount: 2
Fore
SplineSet
1032 409 m 1,0,1
 1060 433 1060 433 1080 481.5 c 128,-1,2
 1100 530 1100 530 1111 601 c 1,3,4
 1108 686 1108 686 1090.5 750.5 c 128,-1,5
 1073 815 1073 815 1043 861 c 0,6,7
 986 948 986 948 870 948 c 0,8,9
 812 948 812 948 765.5 925 c 128,-1,10
 719 902 719 902 685 860 c 1,11,12
 651 814 651 814 633.5 747 c 128,-1,13
 616 680 616 680 615 595 c 1,14,15
 633 475 633 475 693 415 c 128,-1,16
 753 355 753 355 867 354 c 1,17,18
 918 357 918 357 959 371.5 c 128,-1,19
 1000 386 1000 386 1032 409 c 1,0,1
537 1039 m 1,20,21
 594 1096 594 1096 665 1120.5 c 128,-1,22
 736 1145 736 1145 830 1145 c 0,23,24
 1038 1145 1038 1145 1167 980 c 1,25,26
 1295 819 1295 819 1295 559 c 256,27,28
 1295 299 1295 299 1167 138 c 1,29,30
 1038 -27 1038 -27 830 -27 c 0,31,32
 736 -27 736 -27 662.5 -0.5 c 128,-1,33
 589 26 589 26 533 83 c 1,34,-1
 533 0 l 1,35,-1
 285 0 l 1,36,-1
 304 1527 l 1,37,-1
 552 1527 l 1,38,-1
 537 1039 l 1,20,21
EndSplineSet
Validated: 1
EndChar

StartChar: c
Encoding: 99 99 70
Width: 1294
Flags: W
LayerCount: 2
Fore
SplineSet
1037 829 m 1,0,1
 846 934 846 934 706 934 c 0,2,3
 556 934 556 934 480 837 c 0,4,5
 402 737 402 737 400 563 c 1,6,7
 407 506 407 506 426 464 c 128,-1,8
 445 422 445 422 475 400 c 1,9,10
 509 378 509 378 569.5 363.5 c 128,-1,11
 630 349 630 349 700 343 c 1,12,-1
 847 343 l 1,13,14
 879 344 879 344 925 360 c 128,-1,15
 971 376 971 376 1032 411 c 1,16,-1
 1037 54 l 1,17,18
 949 13 949 13 863.5 -7 c 128,-1,19
 778 -27 778 -27 687 -27 c 0,20,21
 436 -27 436 -27 285 133 c 1,22,23
 135 294 135 294 135 559 c 0,24,25
 135 830 135 830 286 987 c 0,26,27
 437 1145 437 1145 698 1145 c 0,28,29
 781 1145 781 1145 865.5 1125.5 c 128,-1,30
 950 1106 950 1106 1037 1066 c 1,31,-1
 1037 829 l 1,0,1
EndSplineSet
Validated: 1
EndChar

StartChar: d
Encoding: 100 100 71
Width: 1331
Flags: W
LayerCount: 2
Fore
SplineSet
800 1527 m 1,0,-1
 1045 1527 l 1,1,-1
 1027 0 l 1,2,-1
 780 0 l 1,3,-1
 780 83 l 1,4,5
 724 26 724 26 650.5 -0.5 c 128,-1,6
 577 -27 577 -27 483 -27 c 0,7,8
 274 -27 274 -27 145 138 c 0,9,10
 18 299 18 299 18 559 c 256,11,12
 18 819 18 819 145 980 c 0,13,14
 274 1145 274 1145 483 1145 c 0,15,16
 577 1145 577 1145 651.5 1116.5 c 128,-1,17
 726 1088 726 1088 783 1032 c 1,18,-1
 800 1527 l 1,0,-1
284 853 m 1,19,20
 215 756 215 756 213 583 c 1,21,22
 231 459 231 459 287 409 c 1,23,-1
 287 410 l 1,24,25
 342 360 342 360 463 360 c 0,26,27
 587 360 587 360 645 401 c 1,28,29
 697 440 697 440 701 590 c 1,30,31
 698 672 698 672 682.5 737.5 c 128,-1,32
 667 803 667 803 638.5 849 c 128,-1,33
 610 895 610 895 567.5 920 c 128,-1,34
 525 945 525 945 468 945 c 0,35,36
 352 945 352 945 283 852 c 1,37,-1
 284 853 l 1,19,20
EndSplineSet
Validated: 1
EndChar

StartChar: e
Encoding: 101 101 72
Width: 1367
Flags: W
LayerCount: 2
Fore
SplineSet
1180 566 m 1,0,-1
 401 566 l 1,1,2
 407 491 407 491 429 440.5 c 128,-1,3
 451 390 451 390 483 366 c 1,4,5
 526 340 526 340 592 324 c 128,-1,6
 658 308 658 308 734 302 c 1,7,8
 784 302 784 302 829 303.5 c 128,-1,9
 874 305 874 305 921 309 c 0,10,11
 1009 317 1009 317 1145 389 c 1,12,-1
 1150 65 l 1,13,14
 1042 20 1042 20 936 -3.5 c 128,-1,15
 830 -27 830 -27 724 -27 c 1,16,17
 462 -18 462 -18 303 133 c 1,18,19
 146 286 146 286 146 551 c 1,20,21
 155 821 155 821 298 982 c 0,22,23
 443 1145 443 1145 697 1145 c 1,24,25
 922 1136 922 1136 1042 1022 c 1,26,-1
 1041 1022 l 1,27,28
 1161 908 1161 908 1180 671 c 1,29,-1
 1180 566 l 1,0,-1
946 791 m 1,30,31
 935 817 935 817 915.5 846.5 c 128,-1,32
 896 876 896 876 873 904 c 0,33,34
 807 980 807 980 697 980 c 0,35,36
 568 980 568 980 493 904 c 1,37,-1
 493 905 l 1,38,39
 435 847 435 847 422 790 c 1,40,-1
 946 791 l 1,30,31
EndSplineSet
Validated: 1
EndChar

StartChar: f
Encoding: 102 102 73
Width: 797
Flags: W
LayerCount: 2
Fore
SplineSet
725 1486 m 1,0,-1
 725 1267 l 1,1,-1
 533 1291 l 1,2,3
 512 1290 512 1290 493.5 1286 c 128,-1,4
 475 1282 475 1282 468 1274 c 0,5,6
 452 1258 452 1258 452 1176 c 1,7,8
 453 1165 453 1165 454 1159.5 c 128,-1,9
 455 1154 455 1154 455.5 1149 c 128,-1,10
 456 1144 456 1144 457 1137.5 c 128,-1,11
 458 1131 458 1131 459 1120 c 1,12,-1
 735 1120 l 1,13,-1
 735 875 l 1,14,-1
 463 875 l 1,15,16
 467 770 467 770 470.5 659 c 128,-1,17
 474 548 474 548 477 436 c 128,-1,18
 480 324 480 324 483.5 214 c 128,-1,19
 487 104 487 104 491 0 c 1,20,-1
 167 0 l 1,21,-1
 194 875 l 1,22,-1
 41 875 l 1,23,-1
 41 1120 l 1,24,-1
 199 1120 l 1,25,-1
 205 1158 l 1,26,27
 206 1253 206 1253 230.5 1321 c 128,-1,28
 255 1389 255 1389 305 1429 c 1,29,-1
 304 1429 l 1,30,31
 352 1469 352 1469 411 1488.5 c 128,-1,32
 470 1508 470 1508 539 1508 c 1,33,-1
 725 1486 l 1,0,-1
EndSplineSet
Validated: 1
EndChar

StartChar: g
Encoding: 103 103 74
Width: 1414
Flags: W
LayerCount: 2
Fore
SplineSet
853 582 m 0,0,1
 853 667 853 667 836 733 c 128,-1,2
 819 799 819 799 786.5 844.5 c 128,-1,3
 754 890 754 890 706.5 913.5 c 128,-1,4
 659 937 659 937 598 937 c 0,5,6
 479 937 479 937 412 849 c 0,7,8
 377 804 377 804 360.5 737.5 c 128,-1,9
 344 671 344 671 343 586 c 1,10,11
 351 505 351 505 367 454 c 128,-1,12
 383 403 383 403 405 386 c 1,13,14
 431 370 431 370 476.5 361.5 c 128,-1,15
 522 353 522 353 585 353 c 0,16,17
 715 353 715 353 790 389 c 0,18,19
 853 420 853 420 853 582 c 0,0,1
1165 166 m 2,20,21
 1159 -1 1159 -1 1125 -126.5 c 128,-1,22
 1091 -252 1091 -252 1028 -320 c 0,23,24
 897 -463 897 -463 637 -463 c 0,25,26
 543 -463 543 -463 453.5 -446.5 c 128,-1,27
 364 -430 364 -430 273 -397 c 1,28,-1
 273 -2 l 1,29,30
 373 -57 373 -57 455.5 -82 c 128,-1,31
 538 -107 538 -107 610 -107 c 0,32,33
 684 -107 684 -107 739.5 -85.5 c 128,-1,34
 795 -64 795 -64 830 -26 c 1,35,36
 853 1 853 1 870 29 c 128,-1,37
 887 57 887 57 900 84 c 1,38,39
 877 67 877 67 848 50 c 1,40,41
 756 0 756 0 630 0 c 0,42,43
 419 0 419 0 292 161 c 1,44,45
 166 318 166 318 166 572 c 0,46,47
 166 827 166 827 292 985 c 0,48,49
 419 1145 419 1145 630 1145 c 0,50,51
 730 1145 730 1145 806 1116 c 128,-1,52
 882 1087 882 1087 939 1024 c 1,53,54
 943 1050 943 1050 945.5 1075 c 128,-1,55
 948 1100 948 1100 950 1120 c 1,56,-1
 1194 1120 l 1,57,-1
 1165 166 l 2,20,21
EndSplineSet
Validated: 1
EndChar

StartChar: h
Encoding: 104 104 75
Width: 1303
Flags: W
LayerCount: 2
Fore
SplineSet
1259 0 m 1,0,-1
 973 0 l 1,1,-1
 993 664 l 1,2,-1
 993 663 l 2,3,4
 993 794 993 794 944 867 c 128,-1,5
 895 940 895 940 798 940 c 0,6,7
 677 940 677 940 608 856 c 0,8,9
 536 767 536 767 536 629 c 1,10,11
 538 555 538 555 540.5 475 c 128,-1,12
 543 395 543 395 546 314 c 128,-1,13
 549 233 549 233 551.5 153.5 c 128,-1,14
 554 74 554 74 556 0 c 1,15,-1
 269 0 l 1,16,-1
 308 1527 l 1,17,-1
 556 1527 l 1,18,-1
 539 1029 l 1,19,20
 599 1089 599 1089 672 1117 c 128,-1,21
 745 1145 745 1145 837 1145 c 0,22,23
 1036 1145 1036 1145 1137.5 1024.5 c 128,-1,24
 1239 904 1239 904 1239 668 c 2,25,-1
 1239 669 l 1,26,-1
 1259 0 l 1,0,-1
EndSplineSet
Validated: 5
EndChar

StartChar: i
Encoding: 105 105 76
Width: 802
Flags: W
LayerCount: 2
Fore
SplineSet
287 1120 m 1,0,-1
 515 1120 l 1,1,-1
 524 0 l 1,2,-1
 278 0 l 1,3,-1
 287 1120 l 1,0,-1
288 1527 m 1,4,-1
 514 1527 l 1,5,-1
 526 1235 l 1,6,-1
 276 1235 l 1,7,-1
 288 1527 l 1,4,-1
EndSplineSet
Validated: 1
EndChar

StartChar: j
Encoding: 106 106 77
Width: 693
Flags: W
LayerCount: 2
Fore
SplineSet
298 1116 m 1,0,-1
 534 1112 l 1,1,-1
 496 10 l 2,2,3
 493 -96 493 -96 470 -173.5 c 128,-1,4
 447 -251 447 -251 404 -297 c 0,5,6
 317 -393 317 -393 132 -399 c 1,7,-1
 0 -398 l 1,8,-1
 5 -65 l 1,9,-1
 113 -66 l 1,10,11
 196 -61 196 -61 222 -32 c 0,12,13
 235 -17 235 -17 242.5 22.5 c 128,-1,14
 250 62 250 62 251 127 c 1,15,-1
 298 1116 l 1,0,-1
337 1527 m 1,16,-1
 563 1527 l 1,17,-1
 575 1235 l 1,18,-1
 325 1235 l 1,19,-1
 337 1527 l 1,16,-1
EndSplineSet
Validated: 1
EndChar

StartChar: k
Encoding: 107 107 78
Width: 1361
Flags: W
LayerCount: 2
Fore
SplineSet
313 1527 m 1,0,-1
 560 1527 l 1,1,-1
 551 770 l 1,2,-1
 850 1120 l 1,3,-1
 1164 1120 l 1,4,-1
 742 597 l 1,5,6
 813 528 813 528 892.5 451.5 c 128,-1,7
 972 375 972 375 1053 297 c 128,-1,8
 1134 219 1134 219 1213 143 c 128,-1,9
 1292 67 1292 67 1361 0 c 1,10,-1
 896 0 l 1,11,-1
 557 417 l 1,12,-1
 580 0 l 1,13,-1
 274 0 l 1,14,-1
 313 1527 l 1,0,-1
EndSplineSet
Validated: 1
EndChar

StartChar: l
Encoding: 108 108 79
Width: 709
Flags: W
LayerCount: 2
Fore
SplineSet
279 1527 m 1,0,-1
 516 1527 l 1,1,-1
 516 287 l 1,2,-1
 632 287 l 1,3,-1
 632 0 l 1,4,-1
 259 0 l 1,5,-1
 279 1527 l 1,0,-1
EndSplineSet
Validated: 1
EndChar

StartChar: m
Encoding: 109 109 80
Width: 2182
Flags: W
LayerCount: 2
Fore
SplineSet
1068 1082 m 1,0,1
 1139 1034 1139 1034 1180 961 c 1,2,3
 1236 1042 1236 1042 1299 1084 c 0,4,5
 1388 1145 1388 1145 1522 1145 c 0,6,7
 1613 1145 1613 1145 1683.5 1113.5 c 128,-1,8
 1754 1082 1754 1082 1802 1021 c 128,-1,9
 1850 960 1850 960 1875 871 c 128,-1,10
 1900 782 1900 782 1900 668 c 2,11,-1
 1900 669 l 1,12,13
 1902 590 1902 590 1904.5 505.5 c 128,-1,14
 1907 421 1907 421 1910 334.5 c 128,-1,15
 1913 248 1913 248 1915.5 163.5 c 128,-1,16
 1918 79 1918 79 1920 0 c 1,17,-1
 1603 0 l 1,18,-1
 1653 693 l 1,19,20
 1653 831 1653 831 1618 896 c 0,21,22
 1589 949 1589 949 1502 949 c 0,23,24
 1388 949 1388 949 1327 862 c 1,25,26
 1261 770 1261 770 1261 627 c 1,27,-1
 1250 0 l 1,28,-1
 935 0 l 1,29,-1
 1004 704 l 1,30,31
 1003 834 1003 834 959.5 896.5 c 128,-1,32
 916 959 916 959 824 959 c 0,33,34
 767 959 767 959 721.5 935.5 c 128,-1,35
 676 912 676 912 640 865 c 0,36,37
 565 767 565 767 565 629 c 1,38,39
 567 555 567 555 569.5 475 c 128,-1,40
 572 395 572 395 575 314 c 128,-1,41
 578 233 578 233 580.5 153.5 c 128,-1,42
 583 74 583 74 585 0 c 1,43,-1
 280 0 l 1,44,-1
 319 1120 l 1,45,-1
 569 1120 l 1,46,-1
 562 1044 l 1,47,48
 618 1096 618 1096 688 1120.5 c 128,-1,49
 758 1145 758 1145 845 1145 c 0,50,51
 907 1145 907 1145 963.5 1128.5 c 128,-1,52
 1020 1112 1020 1112 1068 1082 c 1,0,1
EndSplineSet
Validated: 1
EndChar

StartChar: n
Encoding: 110 110 81
Width: 1512
Flags: W
LayerCount: 2
Fore
SplineSet
1294 0 m 1,0,-1
 969 0 l 1,1,-1
 1008 674 l 1,2,3
 1008 803 1008 803 968 867 c 128,-1,4
 928 931 928 931 833 931 c 0,5,6
 692 931 692 931 628 855 c 0,7,8
 561 777 561 777 561 639 c 1,9,-1
 591 0 l 1,10,-1
 276 0 l 1,11,-1
 306 1129 l 1,12,-1
 552 1129 l 1,13,-1
 552 1040 l 1,14,15
 573 1054 573 1054 595 1067 c 128,-1,16
 617 1080 617 1080 641 1094 c 0,17,18
 687 1119 687 1119 739.5 1132 c 128,-1,19
 792 1145 792 1145 852 1145 c 0,20,21
 1048 1145 1048 1145 1150 1021.5 c 128,-1,22
 1252 898 1252 898 1264 670 c 1,23,-1
 1294 0 l 1,0,-1
EndSplineSet
Validated: 1
EndChar

StartChar: o
Encoding: 111 111 82
Width: 1362
Flags: W
LayerCount: 2
Fore
SplineSet
682 944 m 0,0,1
 563 944 563 944 493 853 c 0,2,3
 420 757 420 757 420 589 c 0,4,5
 420 427 420 427 482 388 c 0,6,7
 553 344 553 344 682 344 c 0,8,9
 744 344 744 344 794 356 c 128,-1,10
 844 368 844 368 879 388 c 1,11,12
 942 429 942 429 942 589 c 0,13,14
 942 758 942 758 869 852 c 1,15,16
 800 944 800 944 682 944 c 0,0,1
682 1145 m 0,17,18
 923 1145 923 1145 1061 987 c 256,19,20
 1199 829 1199 829 1199 559 c 256,21,22
 1199 289 1199 289 1061 132 c 1,23,24
 923 -27 923 -27 682 -27 c 0,25,26
 438 -27 438 -27 301 132 c 1,27,28
 232 210 232 210 198.5 316.5 c 128,-1,29
 165 423 165 423 165 559 c 256,30,31
 165 695 165 695 198.5 801.5 c 128,-1,32
 232 908 232 908 301 987 c 0,33,34
 438 1145 438 1145 682 1145 c 0,17,18
EndSplineSet
Validated: 1
EndChar

StartChar: p
Encoding: 112 112 83
Width: 1316
Flags: W
LayerCount: 2
Fore
SplineSet
515 -398 m 1,0,-1
 268 -398 l 1,1,-1
 307 1120 l 1,2,-1
 557 1120 l 1,3,-1
 551 1049 l 1,4,5
 659 1145 659 1145 832 1145 c 0,6,7
 1039 1145 1039 1145 1170 980 c 1,8,9
 1297 818 1297 818 1297 559 c 256,10,11
 1297 300 1297 300 1170 138 c 1,12,13
 1039 -27 1039 -27 832 -27 c 0,14,15
 738 -27 738 -27 663.5 1.5 c 128,-1,16
 589 30 589 30 532 86 c 1,17,-1
 515 -398 l 1,0,-1
1113 589 m 0,18,19
 1113 678 1113 678 1094.5 746 c 128,-1,20
 1076 814 1076 814 1041 863 c 0,21,22
 974 957 974 957 858 957 c 0,23,24
 743 957 743 957 673 863 c 1,25,-1
 674 864 l 1,26,27
 603 766 603 766 603 589 c 0,28,29
 603 419 603 419 668 378 c 0,30,31
 743 330 743 330 867 330 c 0,32,33
 992 330 992 330 1054 376 c 1,34,35
 1113 418 1113 418 1113 589 c 0,18,19
EndSplineSet
Validated: 1
EndChar

StartChar: q
Encoding: 113 113 84
Width: 1317
Flags: W
LayerCount: 2
Fore
SplineSet
210 583 m 0,0,1
 210 415 210 415 269 377 c 0,2,3
 336 334 336 334 460 334 c 0,4,5
 523 334 523 334 572.5 344.5 c 128,-1,6
 622 355 622 355 657 377 c 1,7,8
 721 415 721 415 721 583 c 0,9,10
 721 758 721 758 650 858 c 1,11,12
 580 951 580 951 465 951 c 256,13,14
 350 951 350 951 280 858 c 1,15,-1
 281 859 l 1,16,17
 246 809 246 809 228 740.5 c 128,-1,18
 210 672 210 672 210 583 c 0,0,1
781 79 m 1,19,20
 724 22 724 22 653 -2.5 c 128,-1,21
 582 -27 582 -27 487 -27 c 0,22,23
 278 -27 278 -27 149 138 c 0,24,25
 22 299 22 299 22 559 c 256,26,27
 22 819 22 819 149 980 c 0,28,29
 278 1145 278 1145 487 1145 c 0,30,31
 587 1145 587 1145 662.5 1116 c 128,-1,32
 738 1087 738 1087 795 1024 c 1,33,34
 799 1050 799 1050 802 1075 c 128,-1,35
 805 1100 805 1100 807 1120 c 1,36,-1
 1050 1120 l 1,37,-1
 1011 -398 l 1,38,-1
 765 -398 l 1,39,-1
 781 79 l 1,19,20
EndSplineSet
Validated: 1
EndChar

StartChar: r
Encoding: 114 114 85
Width: 917
Flags: W
LayerCount: 2
Fore
SplineSet
913 838 m 1,0,1
 881 857 881 857 858.5 867 c 128,-1,2
 836 877 836 877 817 882 c 128,-1,3
 798 887 798 887 781.5 888 c 128,-1,4
 765 889 765 889 747 889 c 0,5,6
 623 889 623 889 569 806 c 1,7,-1
 569 807 l 1,8,9
 511 715 511 715 511 561 c 1,10,-1
 531 0 l 1,11,-1
 234 0 l 1,12,-1
 284 1111 l 1,13,-1
 511 1111 l 1,14,-1
 511 1037 l 1,15,16
 523 1045 523 1045 538 1053 c 128,-1,17
 553 1061 553 1061 568 1071 c 1,18,-1
 568 1070 l 1,19,20
 664 1127 664 1127 798 1127 c 0,21,22
 817 1127 817 1127 842.5 1123 c 128,-1,23
 868 1119 868 1119 912 1111 c 1,24,-1
 913 838 l 1,0,1
EndSplineSet
Validated: 1
EndChar

StartChar: s
Encoding: 115 115 86
Width: 1253
Flags: W
LayerCount: 2
Fore
SplineSet
1032 847 m 1,0,1
 838 945 838 945 681 945 c 0,2,3
 571 945 571 945 512 911.5 c 128,-1,4
 453 878 453 878 453 817 c 0,5,6
 453 767 453 767 490 738 c 1,7,-1
 489 738 l 1,8,9
 510 722 510 722 555 706 c 128,-1,10
 600 690 600 690 663 676 c 0,11,12
 677 673 677 673 691.5 669 c 128,-1,13
 706 665 706 665 720 663 c 0,14,15
 816 643 816 643 886 613 c 128,-1,16
 956 583 956 583 998 548 c 1,17,18
 1041 510 1041 510 1064.5 454 c 128,-1,19
 1088 398 1088 398 1088 326 c 0,20,21
 1088 162 1088 162 957 65 c 0,22,23
 832 -27 832 -27 619 -27 c 0,24,25
 446 -27 446 -27 214 49 c 1,26,-1
 214 389 l 1,27,28
 451 266 451 266 622 266 c 0,29,30
 722 266 722 266 769 289.5 c 128,-1,31
 816 313 816 313 818 360 c 1,32,33
 806 380 806 380 795.5 396.5 c 128,-1,34
 785 413 785 413 774 425 c 0,35,36
 758 442 758 442 612 474 c 1,37,-1
 552 488 l 1,38,-1
 553 488 l 1,39,40
 385 522 385 522 306 589 c 0,41,42
 222 661 222 661 222 800 c 0,43,44
 222 967 222 967 335.5 1056 c 128,-1,45
 449 1145 449 1145 661 1145 c 0,46,47
 760 1145 760 1145 852.5 1128.5 c 128,-1,48
 945 1112 945 1112 1032 1077 c 1,49,-1
 1032 847 l 1,0,1
EndSplineSet
Validated: 1
EndChar

StartChar: t
Encoding: 116 116 87
Width: 839
Flags: W
LayerCount: 2
Fore
SplineSet
462 1379 m 1,0,-1
 453 1120 l 1,1,-1
 693 1120 l 1,2,-1
 693 912 l 1,3,-1
 452 912 l 1,4,-1
 442 493 l 1,5,6
 442 380 442 380 467 356 c 1,7,8
 490 330 490 330 582 330 c 2,9,-1
 796 330 l 1,10,-1
 796 0 l 1,11,-1
 582 0 l 2,12,13
 369 0 369 0 278 84 c 0,14,15
 186 169 186 169 186 382 c 1,16,-1
 195 912 l 1,17,-1
 69 912 l 1,18,-1
 69 1120 l 1,19,-1
 196 1120 l 1,20,-1
 205 1379 l 1,21,-1
 462 1379 l 1,0,-1
EndSplineSet
Validated: 1
EndChar

StartChar: u
Encoding: 117 117 88
Width: 1499
Flags: W
LayerCount: 2
Fore
SplineSet
258 1120 m 1,0,-1
 476 1120 l 1,1,-1
 476 608 l 1,2,3
 484 480 484 480 529.5 413 c 128,-1,4
 575 346 575 346 670 346 c 0,5,6
 793 346 793 346 857 422 c 1,7,8
 891 460 891 460 909.5 517 c 128,-1,9
 928 574 928 574 933 642 c 1,10,-1
 944 1120 l 1,11,-1
 1218 1120 l 1,12,-1
 1198 0 l 1,13,-1
 949 0 l 1,14,-1
 954 85 l 1,15,16
 838 -27 838 -27 662 -27 c 0,17,18
 463 -27 463 -27 360.5 94 c 128,-1,19
 258 215 258 215 258 450 c 2,20,-1
 258 1120 l 1,0,-1
EndSplineSet
Validated: 1
EndChar

StartChar: v
Encoding: 118 118 89
Width: 1233
Flags: W
LayerCount: 2
Fore
SplineSet
54 1120 m 1,0,-1
 315 1120 l 1,1,-1
 616 413 l 1,2,3
 690 587 690 587 768 768 c 128,-1,4
 846 949 846 949 918 1120 c 1,5,-1
 1179 1120 l 1,6,-1
 770 0 l 1,7,-1
 464 0 l 1,8,-1
 54 1120 l 1,0,-1
EndSplineSet
Validated: 1
EndChar

StartChar: w
Encoding: 119 119 90
Width: 1791
Flags: W
LayerCount: 2
Fore
SplineSet
145 1120 m 1,0,-1
 394 1120 l 1,1,-1
 590 453 l 1,2,-1
 752 775 l 1,3,-1
 1039 775 l 1,4,-1
 1202 453 l 1,5,6
 1250 618 1250 618 1299.5 788.5 c 128,-1,7
 1349 959 1349 959 1397 1120 c 1,8,-1
 1645 1120 l 1,9,-1
 1352 0 l 1,10,-1
 1058 0 l 1,11,-1
 895 412 l 1,12,-1
 723 0 l 1,13,-1
 438 0 l 1,14,-1
 145 1120 l 1,0,-1
EndSplineSet
Validated: 1
EndChar

StartChar: x
Encoding: 120 120 91
Width: 1558
Flags: W
LayerCount: 2
Fore
SplineSet
1330 1120 m 1,0,-1
 939 530 l 1,1,2
 989 470 989 470 1046 401.5 c 128,-1,3
 1103 333 1103 333 1161 263.5 c 128,-1,4
 1219 194 1219 194 1275 126.5 c 128,-1,5
 1331 59 1331 59 1380 0 c 1,6,-1
 1003 0 l 1,7,-1
 782 335 l 1,8,-1
 545 0 l 1,9,-1
 168 0 l 1,10,-1
 617 540 l 1,11,-1
 233 1120 l 1,12,-1
 505 1120 l 1,13,-1
 773 720 l 1,14,15
 845 818 845 818 921 920.5 c 128,-1,16
 997 1023 997 1023 1068 1120 c 1,17,-1
 1330 1120 l 1,0,-1
EndSplineSet
Validated: 1
EndChar

StartChar: y
Encoding: 121 121 92
Width: 1336
Flags: W
LayerCount: 2
Fore
SplineSet
871 -74 m 1,0,1
 777 -288 777 -288 689 -352 c 256,2,3
 601 -416 601 -416 472 -416 c 2,4,-1
 279 -416 l 1,5,-1
 279 -114 l 1,6,-1
 436 -114 l 2,7,8
 464 -114 464 -114 486 -107.5 c 128,-1,9
 508 -101 508 -101 522 -90 c 1,10,11
 539 -75 539 -75 559 -54 c 128,-1,12
 579 -33 579 -33 599 -7 c 1,13,14
 616 27 616 27 632.5 58.5 c 128,-1,15
 649 90 649 90 666 125 c 1,16,17
 611 243 611 243 552 369 c 128,-1,18
 493 495 493 495 433.5 622.5 c 128,-1,19
 374 750 374 750 315.5 876 c 128,-1,20
 257 1002 257 1002 202 1120 c 1,21,-1
 462 1120 l 1,22,-1
 807 553 l 1,23,-1
 1072 1120 l 1,24,-1
 1331 1120 l 1,25,-1
 871 -74 l 1,0,1
EndSplineSet
Validated: 1
EndChar

StartChar: z
Encoding: 122 122 93
Width: 1485
Flags: W
LayerCount: 2
Fore
SplineSet
309 1120 m 1,0,-1
 1190 1120 l 1,1,-1
 1190 911 l 1,2,-1
 646 305 l 1,3,-1
 1180 305 l 1,4,-1
 1180 0 l 1,5,-1
 267 0 l 1,6,-1
 267 302 l 1,7,-1
 880 917 l 1,8,-1
 309 917 l 1,9,-1
 309 1120 l 1,0,-1
EndSplineSet
Validated: 1
EndChar

StartChar: braceleft
Encoding: 123 123 94
Width: 1017
Flags: W
LayerCount: 2
Fore
SplineSet
801 -60 m 1,0,-1
 799 -325 l 1,1,-1
 703 -324 l 2,2,3
 583 -322 583 -322 499 -299 c 128,-1,4
 415 -276 415 -276 371 -238 c 1,5,6
 332 -197 332 -197 308.5 -120.5 c 128,-1,7
 285 -44 285 -44 282 65 c 1,8,-1
 285 286 l 1,9,10
 279 416 279 416 242 460 c 1,11,12
 209 501 209 501 93 504 c 0,13,14
 86 504 86 504 73 504 c 128,-1,15
 60 504 60 504 46 504.5 c 128,-1,16
 32 505 32 505 19.5 505 c 128,-1,17
 7 505 7 505 0 505 c 1,18,-1
 2 713 l 1,19,-1
 94 712 l 1,20,21
 154 716 154 716 194.5 726.5 c 128,-1,22
 235 737 235 737 255 756 c 0,23,24
 294 794 294 794 297 917 c 1,25,-1
 300 1141 l 1,26,27
 304 1364 304 1364 398 1438 c 0,28,29
 487 1509 487 1509 733 1515 c 1,30,-1
 830 1514 l 1,31,-1
 826 1306 l 1,32,-1
 727 1307 l 1,33,34
 599 1299 599 1299 575 1275 c 256,35,36
 551 1251 551 1251 548 1133 c 1,37,-1
 548 1134 l 1,38,-1
 544 902 l 2,39,40
 541 747 541 747 491 670 c 0,41,42
 462 627 462 627 416 601 c 1,43,44
 460 572 460 572 485 526 c 1,45,-1
 485 527 l 1,46,47
 526 452 526 452 533 316 c 1,48,-1
 529 86 l 1,49,50
 533 46 533 46 540.5 17 c 128,-1,51
 548 -12 548 -12 562 -27 c 1,52,53
 585 -56 585 -56 701 -59 c 1,54,-1
 801 -60 l 1,0,-1
EndSplineSet
Validated: 1
EndChar

StartChar: bar
Encoding: 124 124 95
Width: 548
Flags: W
LayerCount: 2
Fore
SplineSet
350 -451 m 1,0,-1
 97 -451 l 1,1,-1
 147 566 l 1,2,-1
 379 566 l 1,3,-1
 350 -451 l 1,0,-1
144 591 m 1,4,-1
 184 1535 l 1,5,-1
 418 1535 l 1,6,-1
 378 591 l 1,7,-1
 144 591 l 1,4,-1
EndSplineSet
Validated: 1
EndChar

StartChar: braceright
Encoding: 125 125 96
Width: 996
Flags: W
LayerCount: 2
Fore
SplineSet
183 -93 m 1,0,-1
 286 -93 l 2,1,2
 401 -93 401 -93 429 -64 c 0,3,4
 458 -35 458 -35 458 83 c 2,5,-1
 458 315 l 2,6,7
 458 463 458 463 506 538 c 0,8,9
 520 559 520 559 538 576.5 c 128,-1,10
 556 594 556 594 580 608 c 1,11,12
 556 622 556 622 538 639.5 c 128,-1,13
 520 657 520 657 506 678 c 0,14,15
 458 753 458 753 458 911 c 2,16,-1
 458 1142 l 2,17,18
 458 1259 458 1259 429 1289 c 0,19,20
 399 1319 399 1319 286 1319 c 2,21,-1
 183 1319 l 1,22,-1
 183 1527 l 1,23,-1
 279 1527 l 2,24,25
 527 1527 527 1527 614 1449 c 1,26,-1
 613 1449 l 1,27,28
 705 1368 705 1368 705 1146 c 2,29,-1
 705 922 l 2,30,31
 705 797 705 797 745 754 c 1,32,-1
 745 755 l 1,33,34
 785 713 785 713 901 713 c 2,35,-1
 996 713 l 1,36,-1
 996 505 l 1,37,-1
 901 505 l 2,38,39
 784 505 784 505 745 463 c 0,40,41
 705 420 705 420 705 293 c 2,42,-1
 705 70 l 2,43,44
 705 -153 705 -153 613 -233 c 1,45,-1
 614 -233 l 1,46,47
 528 -312 528 -312 279 -312 c 2,48,-1
 183 -312 l 1,49,-1
 183 -93 l 1,0,-1
EndSplineSet
Validated: 1
EndChar

StartChar: asciitilde
Encoding: 126 126 97
Width: 1464
Flags: W
LayerCount: 2
Fore
SplineSet
1383 634 m 1,0,1
 1359 615 1359 615 1332.5 595.5 c 128,-1,2
 1306 576 1306 576 1280 557.5 c 128,-1,3
 1254 539 1254 539 1229.5 522 c 128,-1,4
 1205 505 1205 505 1184 492 c 1,5,-1
 1184 493 l 1,6,7
 1090 431 1090 431 990 431 c 0,8,9
 878 431 878 431 734 518 c 1,10,-1
 722 523 l 1,11,-1
 702 529 l 1,12,13
 632 567 632 567 577 585.5 c 128,-1,14
 522 604 522 604 483 604 c 0,15,16
 413 604 413 604 343 552 c 0,17,18
 323 537 323 537 293 513 c 128,-1,19
 263 489 263 489 230 462 c 128,-1,20
 197 435 197 435 165.5 409 c 128,-1,21
 134 383 134 383 112 364 c 1,22,-1
 112 658 l 1,23,24
 167 700 167 700 217.5 729.5 c 128,-1,25
 268 759 268 759 315.5 778 c 128,-1,26
 363 797 363 797 410 806 c 128,-1,27
 457 815 457 815 505 815 c 0,28,29
 613 815 613 815 758 756 c 1,30,-1
 772 750 l 1,31,32
 777 749 777 749 783 746.5 c 128,-1,33
 789 744 789 744 794 742 c 0,34,35
 862 716 862 716 915.5 702 c 128,-1,36
 969 688 969 688 1011 688 c 0,37,38
 1084 688 1084 688 1172.5 733 c 128,-1,39
 1261 778 1261 778 1383 878 c 1,40,-1
 1383 634 l 1,0,1
EndSplineSet
Validated: 1
EndChar

StartChar: Aring
Encoding: 197 197 99
Width: 1507
Flags: W
LayerCount: 2
Fore
SplineSet
860 1581 m 0,0,1
 860 1623 860 1623 828 1655 c 0,2,3
 796 1688 796 1688 754 1688 c 0,4,5
 709 1688 709 1688 678 1657 c 0,6,7
 648 1627 648 1627 648 1581 c 0,8,9
 648 1537 648 1537 679 1506 c 0,10,11
 709 1476 709 1476 754 1476 c 256,12,13
 799 1476 799 1476 829 1506 c 0,14,15
 860 1537 860 1537 860 1581 c 0,0,1
755 1154 m 1,16,17
 729 1083 729 1083 704 1015.5 c 128,-1,18
 679 948 679 948 654 880.5 c 128,-1,19
 629 813 629 813 603 743.5 c 128,-1,20
 577 674 577 674 550 599 c 1,21,-1
 958 599 l 1,22,-1
 755 1154 l 1,16,17
566 1351 m 1,23,24
 456 1440 456 1440 456 1581 c 0,25,26
 456 1707 456 1707 542 1793 c 0,27,28
 629 1880 629 1880 754 1880 c 0,29,30
 880 1880 880 1880 965 1792 c 1,31,32
 1053 1706 1053 1706 1053 1581 c 0,33,34
 1053 1512 1053 1512 1025 1453 c 128,-1,35
 997 1394 997 1394 943 1350 c 1,36,-1
 1458 0 l 1,37,-1
 1177 0 l 1,38,-1
 1047 364 l 1,39,-1
 463 364 l 1,40,-1
 333 0 l 1,41,-1
 49 0 l 1,42,-1
 566 1351 l 1,23,24
EndSplineSet
Validated: 1
EndChar

StartChar: dagger
Encoding: 8224 8224 130
Width: 924
Flags: W
LayerCount: 2
Fore
SplineSet
343 1468 m 1,0,-1
 582 1468 l 1,1,-1
 582 1076 l 1,2,-1
 924 1076 l 1,3,-1
 924 859 l 1,4,-1
 582 859 l 1,5,-1
 582 -184 l 1,6,-1
 343 -184 l 1,7,-1
 343 859 l 1,8,-1
 0 859 l 1,9,-1
 0 1076 l 1,10,-1
 343 1076 l 1,11,-1
 343 1468 l 1,0,-1
EndSplineSet
Validated: 1
EndChar

StartChar: degree
Encoding: 176 176 131
Width: 962
Flags: W
LayerCount: 2
Fore
SplineSet
484 1345 m 0,0,1
 426 1345 426 1345 383 1307 c 1,2,3
 344 1271 344 1271 344 1220 c 0,4,5
 344 1168 344 1168 383 1134 c 0,6,7
 425 1098 425 1098 484 1098 c 256,8,9
 543 1098 543 1098 585 1134 c 0,10,11
 624 1168 624 1168 624 1220 c 0,12,13
 624 1269 624 1269 584 1308 c 1,14,15
 544 1345 544 1345 484 1345 c 0,0,1
484 1493 m 0,16,17
 552 1493 552 1493 613.5 1467 c 128,-1,18
 675 1441 675 1441 721 1393 c 1,19,-1
 720 1394 l 1,20,21
 817 1299 817 1299 817 1157 c 0,22,23
 817 1019 817 1019 719 921 c 1,24,-1
 719 922 l 1,25,26
 623 826 623 826 482 826 c 256,27,28
 341 826 341 826 246 921 c 256,29,30
 151 1016 151 1016 151 1157 c 0,31,32
 151 1299 151 1299 247 1395 c 1,33,34
 342 1493 342 1493 484 1493 c 0,16,17
EndSplineSet
Validated: 5
EndChar

StartChar: cent
Encoding: 162 162 132
Width: 970
Flags: W
LayerCount: 2
Fore
SplineSet
494 933 m 1,0,1
 444 919 444 919 404.5 886.5 c 128,-1,2
 365 854 365 854 336 805.5 c 128,-1,3
 307 757 307 757 290.5 693.5 c 128,-1,4
 274 630 274 630 271 554 c 1,5,6
 272 498 272 498 287.5 446 c 128,-1,7
 303 394 303 394 335 357 c 1,8,-1
 334 357 l 1,9,10
 361 325 361 325 398.5 303.5 c 128,-1,11
 436 282 436 282 481 271 c 1,12,-1
 494 933 l 1,0,1
923 831 m 1,13,14
 839 879 839 879 776.5 905.5 c 128,-1,15
 714 932 714 932 664 939 c 1,16,-1
 652 261 l 1,17,18
 708 270 708 270 772 294 c 128,-1,19
 836 318 836 318 914 357 c 1,20,-1
 908 37 l 1,21,22
 842 9 842 9 777.5 -8.5 c 128,-1,23
 713 -26 713 -26 647 -34 c 1,24,25
 646 -99 646 -99 644.5 -169.5 c 128,-1,26
 643 -240 643 -240 642 -302 c 1,27,-1
 473 -301 l 1,28,-1
 477 -27 l 1,29,30
 264 3 264 3 140 149 c 1,31,32
 11 305 11 305 14 560 c 0,33,34
 16 689 16 689 51.5 789.5 c 128,-1,35
 87 890 87 890 154 965 c 0,36,37
 218 1037 218 1037 302 1078 c 128,-1,38
 386 1119 386 1119 497 1132 c 1,39,40
 498 1198 498 1198 499.5 1269 c 128,-1,41
 501 1340 501 1340 502 1403 c 1,42,-1
 672 1401 l 1,43,-1
 668 1129 l 1,44,45
 731 1121 731 1121 794.5 1102 c 128,-1,46
 858 1083 858 1083 925 1051 c 1,47,-1
 923 831 l 1,13,14
EndSplineSet
Validated: 33
EndChar

StartChar: sterling
Encoding: 163 163 133
Width: 1352
Flags: W
LayerCount: 2
Fore
SplineSet
1076 1151 m 1,0,1
 983 1202 983 1202 911 1229 c 128,-1,2
 839 1256 839 1256 788 1258 c 1,3,4
 666 1250 666 1250 620 1197 c 1,5,6
 574 1142 574 1142 568 956 c 1,7,-1
 564 793 l 1,8,9
 607 792 607 792 654 791 c 128,-1,10
 701 790 701 790 748 789.5 c 128,-1,11
 795 789 795 789 841 788 c 128,-1,12
 887 787 887 787 928 786 c 1,13,-1
 924 596 l 1,14,-1
 559 604 l 1,15,16
 558 560 558 560 557 520 c 128,-1,17
 556 480 556 480 554.5 440.5 c 128,-1,18
 553 401 553 401 551.5 360 c 128,-1,19
 550 319 550 319 549 273 c 1,20,-1
 1069 263 l 1,21,-1
 1062 -17 l 1,22,-1
 60 1 l 1,23,-1
 68 281 l 1,24,-1
 288 276 l 1,25,26
 289 320 289 320 290 360 c 128,-1,27
 291 400 291 400 292.5 439.5 c 128,-1,28
 294 479 294 479 295 520 c 128,-1,29
 296 561 296 561 297 608 c 1,30,-1
 112 611 l 1,31,-1
 116 801 l 1,32,-1
 302 798 l 1,33,-1
 308 983 l 1,34,35
 314 1242 314 1242 427 1358 c 1,36,37
 539 1476 539 1476 773 1482 c 1,38,39
 834 1481 834 1481 914 1462 c 128,-1,40
 994 1443 994 1443 1082 1409 c 1,41,-1
 1076 1151 l 1,0,1
EndSplineSet
Validated: 1
EndChar

StartChar: section
Encoding: 167 167 134
Width: 1140
Flags: W
LayerCount: 2
Fore
SplineSet
476 903 m 1,0,-1
 457 889 l 1,1,-1
 436 901 l 1,2,-1
 476 903 l 1,0,-1
723 719 m 0,3,4
 693 748 693 748 627 790 c 128,-1,5
 561 832 561 832 457 889 c 1,6,7
 374 824 374 824 374 763 c 0,8,9
 374 709 374 709 428 657 c 1,10,-1
 427 657 l 1,11,12
 458 629 458 629 522 588 c 128,-1,13
 586 547 586 547 696 486 c 1,14,15
 779 551 779 551 779 612 c 0,16,17
 779 667 779 667 723 719 c 0,3,4
911 1190 m 1,18,19
 810 1238 810 1238 734.5 1261 c 128,-1,20
 659 1284 659 1284 611 1284 c 0,21,22
 537 1284 537 1284 497 1257 c 128,-1,23
 457 1230 457 1230 457 1181 c 0,24,25
 457 1119 457 1119 630 1022 c 1,26,-1
 629 1022 l 1,27,-1
 667 1001 l 1,28,29
 870 886 870 886 935 809 c 1,30,-1
 934 809 l 1,31,32
 1005 727 1005 727 1005 619 c 0,33,34
 1005 452 1005 452 857 349 c 1,35,36
 902 302 902 302 923 252 c 128,-1,37
 944 202 944 202 944 145 c 0,38,39
 944 -4 944 -4 835 -95 c 0,40,41
 730 -182 730 -182 555 -182 c 0,42,43
 483 -182 483 -182 402 -166 c 128,-1,44
 321 -150 321 -150 223 -118 c 1,45,-1
 223 167 l 1,46,47
 328 120 328 120 406 97 c 128,-1,48
 484 74 484 74 534 74 c 0,49,50
 612 74 612 74 654.5 91 c 128,-1,51
 697 108 697 108 697 158 c 0,52,53
 697 211 697 211 511 316 c 1,54,-1
 512 315 l 1,55,-1
 487 329 l 2,56,57
 280 444 280 444 217 521 c 1,58,59
 149 601 149 601 149 712 c 0,60,61
 149 793 149 793 187 863 c 128,-1,62
 225 933 225 933 294 982 c 1,63,64
 254 1024 254 1024 232 1075.5 c 128,-1,65
 210 1127 210 1127 210 1186 c 0,66,67
 210 1257 210 1257 236.5 1312 c 128,-1,68
 263 1367 263 1367 317 1410 c 0,69,70
 423 1493 423 1493 589 1493 c 0,71,72
 659 1493 659 1493 739.5 1477 c 128,-1,73
 820 1461 820 1461 911 1427 c 1,74,-1
 911 1190 l 1,18,19
EndSplineSet
Validated: 5
EndChar

StartChar: bullet
Encoding: 8226 8226 135
Width: 928
Flags: W
LayerCount: 2
Fore
SplineSet
149 749 m 0,0,1
 149 878 149 878 241 970 c 1,2,3
 334 1061 334 1061 466 1061 c 0,4,5
 594 1061 594 1061 687 970 c 1,6,7
 778 879 778 879 778 749 c 0,8,9
 778 616 778 616 687 525 c 1,10,11
 594 434 594 434 464 434 c 0,12,13
 332 434 332 434 241 525 c 0,14,15
 149 617 149 617 149 749 c 0,0,1
EndSplineSet
Validated: 1
EndChar

StartChar: paragraph
Encoding: 182 182 136
Width: 1386
Flags: W
LayerCount: 2
Fore
SplineSet
1020 1468 m 1,0,-1
 1236 -184 l 1,1,-1
 819 -184 l 1,2,-1
 828 1279 l 1,3,-1
 726 1279 l 1,4,-1
 726 -184 l 1,5,-1
 347 -184 l 1,6,-1
 413 613 l 1,7,8
 365 627 365 627 317.5 657 c 128,-1,9
 270 687 270 687 219 735 c 0,10,11
 98 847 98 847 98 1037 c 0,12,13
 98 1232 98 1232 232 1351 c 0,14,15
 364 1468 364 1468 579 1468 c 2,16,-1
 1020 1468 l 1,0,-1
EndSplineSet
Validated: 1
EndChar

StartChar: germandbls
Encoding: 223 223 137
Width: 1405
Flags: W
LayerCount: 2
Fore
SplineSet
271 1100 m 1,0,1
 271 1300 271 1300 394 1414 c 1,2,3
 519 1527 519 1527 735 1527 c 0,4,5
 949 1527 949 1527 1060 1401 c 128,-1,6
 1171 1275 1171 1275 1175 1029 c 1,7,8
 1032 1021 1032 1021 954 976.5 c 128,-1,9
 876 932 876 932 876 860 c 0,10,11
 876 827 876 827 899 796.5 c 128,-1,12
 922 766 922 766 974 733 c 1,13,-1
 973 733 l 1,14,-1
 1026 698 l 1,15,16
 1190 594 1190 594 1237 523 c 1,17,18
 1289 447 1289 447 1289 342 c 0,19,20
 1289 162 1289 162 1175 67.5 c 128,-1,21
 1061 -27 1061 -27 844 -27 c 0,22,23
 781 -27 781 -27 708.5 -12.5 c 128,-1,24
 636 2 636 2 552 29 c 1,25,-1
 552 337 l 1,26,27
 649 301 649 301 722.5 283.5 c 128,-1,28
 796 266 796 266 856 266 c 0,29,30
 947 266 947 266 992.5 287 c 128,-1,31
 1038 308 1038 308 1038 346 c 0,32,33
 1038 375 1038 375 1017 404 c 1,34,35
 997 436 997 436 906 491 c 1,36,-1
 824 547 l 1,37,38
 798 579 798 579 776 610 c 128,-1,39
 754 641 754 641 734 671 c 0,40,41
 688 742 688 742 688 840 c 0,42,43
 688 970 688 970 755 1061 c 1,44,45
 818 1144 818 1144 978 1175 c 1,46,47
 920 1296 920 1296 880 1318 c 0,48,49
 827 1347 827 1347 731 1347 c 0,50,51
 626 1347 626 1347 574 1293 c 1,52,53
 519 1238 519 1238 502 1092 c 1,54,55
 508 960 508 960 514 822.5 c 128,-1,56
 520 685 520 685 526 546 c 128,-1,57
 532 407 532 407 538 269 c 128,-1,58
 544 131 544 131 550 0 c 1,59,-1
 213 0 l 1,60,-1
 271 1100 l 1,0,1
EndSplineSet
Validated: 1
EndChar

StartChar: registered
Encoding: 174 174 138
Width: 1744
Flags: W
LayerCount: 2
Fore
SplineSet
872 1290 m 0,0,1
 642 1290 642 1290 476 1138 c 1,2,3
 311 985 311 985 311 775 c 0,4,5
 311 566 311 566 476 413 c 256,6,7
 641 260 641 260 872 260 c 0,8,9
 1104 260 1104 260 1269 413 c 0,10,11
 1431 563 1431 563 1431 775 c 0,12,13
 1431 879 1431 879 1388 971.5 c 128,-1,14
 1345 1064 1345 1064 1269 1138 c 1,15,16
 1189 1209 1189 1209 1086.5 1249.5 c 128,-1,17
 984 1290 984 1290 872 1290 c 0,0,1
872 1461 m 0,18,19
 1171 1461 1171 1461 1387 1245 c 0,20,21
 1601 1031 1601 1031 1601 729 c 0,22,23
 1601 429 1601 429 1387 216 c 0,24,25
 1171 0 1171 0 872 0 c 0,26,27
 571 0 571 0 357 216 c 1,28,29
 143 429 143 429 143 729 c 0,30,31
 143 1031 143 1031 357 1245 c 1,32,33
 571 1461 571 1461 872 1461 c 0,18,19
816 1046 m 1,34,-1
 816 863 l 1,35,-1
 893 863 l 2,36,37
 984 863 984 863 1015 885 c 1,38,39
 1040 904 1040 904 1040 954 c 256,40,41
 1040 1004 1040 1004 1007.5 1025 c 128,-1,42
 975 1046 975 1046 893 1046 c 2,43,-1
 816 1046 l 1,34,-1
853 1170 m 2,44,45
 1038 1170 1038 1170 1127.5 1106 c 128,-1,46
 1217 1042 1217 1042 1217 909 c 0,47,48
 1217 831 1217 831 1179 776.5 c 128,-1,49
 1141 722 1141 722 1071 693 c 1,50,51
 1088 672 1088 672 1108.5 644 c 128,-1,52
 1129 616 1129 616 1152 581 c 1,53,-1
 1314 315 l 1,54,-1
 1067 315 l 1,55,-1
 935 528 l 1,56,57
 885 611 885 611 856 630 c 0,58,59
 849 634 849 634 844.5 637.5 c 128,-1,60
 840 641 840 641 837 643 c 0,61,62
 833 646 833 646 831 648 c 1,63,-1
 816 648 l 1,64,-1
 816 315 l 1,65,-1
 550 315 l 1,66,-1
 550 1170 l 1,67,-1
 853 1170 l 2,44,45
EndSplineSet
Validated: 5
EndChar

StartChar: copyright
Encoding: 169 169 139
Width: 1744
Flags: W
LayerCount: 2
Fore
SplineSet
872 1461 m 0,0,1
 1171 1461 1171 1461 1387 1245 c 0,2,3
 1601 1031 1601 1031 1601 729 c 0,4,5
 1601 429 1601 429 1387 216 c 0,6,7
 1171 0 1171 0 872 0 c 0,8,9
 571 0 571 0 357 216 c 1,10,11
 143 429 143 429 143 729 c 0,12,13
 143 1031 143 1031 357 1245 c 1,14,15
 571 1461 571 1461 872 1461 c 0,0,1
872 1290 m 256,16,17
 641 1290 641 1290 477 1126 c 0,18,19
 395 1043 395 1043 353 943 c 128,-1,20
 311 843 311 843 311 729 c 0,21,22
 311 617 311 617 352.5 528 c 128,-1,23
 394 439 394 439 476 365 c 1,24,-1
 471 368 l 1,25,26
 556 311 556 311 655.5 278 c 128,-1,27
 755 245 755 245 872 245 c 0,28,29
 990 245 990 245 1090 278 c 128,-1,30
 1190 311 1190 311 1274 368 c 1,31,-1
 1271 367 l 1,32,33
 1352 430 1352 430 1391.5 522.5 c 128,-1,34
 1431 615 1431 615 1431 729 c 0,35,36
 1431 961 1431 961 1269 1126 c 1,37,38
 1103 1290 1103 1290 872 1290 c 256,16,17
1188 945 m 1,39,40
 1102 988 1102 988 1032.5 1008.5 c 128,-1,41
 963 1029 963 1029 906 1029 c 0,42,43
 846 1029 846 1029 798.5 1008 c 128,-1,44
 751 987 751 987 718 947 c 0,45,46
 649 861 649 861 649 729 c 0,47,48
 649 650 649 650 718 581 c 0,49,50
 788 511 788 511 916 511 c 0,51,52
 971 511 971 511 1036 531.5 c 128,-1,53
 1101 552 1101 552 1188 596 c 1,54,-1
 1188 336 l 1,55,56
 1110 301 1110 301 1037 285.5 c 128,-1,57
 964 270 964 270 895 270 c 0,58,59
 679 270 679 270 550 394 c 1,60,61
 422 519 422 519 422 729 c 256,62,63
 422 939 422 939 550 1064 c 0,64,65
 677 1187 677 1187 895 1187 c 0,66,67
 967 1187 967 1187 1040 1171 c 128,-1,68
 1113 1155 1113 1155 1188 1124 c 1,69,-1
 1188 945 l 1,39,40
EndSplineSet
Validated: 1
EndChar

StartChar: trademark
Encoding: 8482 8482 140
Width: 1820
Flags: W
LayerCount: 2
Fore
SplineSet
1022 1468 m 1,0,-1
 1153 1208 l 1,1,2
 1188 1272 1188 1272 1223.5 1340 c 128,-1,3
 1259 1408 1259 1408 1291 1468 c 1,4,-1
 1509 1468 l 1,5,-1
 1529 854 l 1,6,-1
 1290 854 l 1,7,-1
 1306 1116 l 1,8,9
 1283 1060 1283 1060 1262 1007 c 128,-1,10
 1241 954 1241 954 1220 902 c 1,11,-1
 1080 902 l 1,12,-1
 986 1127 l 1,13,14
 991 1055 991 1055 994.5 986 c 128,-1,15
 998 917 998 917 1003 854 c 1,16,-1
 760 854 l 1,17,-1
 803 1468 l 1,18,-1
 1022 1468 l 1,0,-1
760 1468 m 1,19,-1
 760 1306 l 1,20,-1
 573 1306 l 1,21,-1
 602 854 l 1,22,-1
 359 854 l 1,23,-1
 387 1306 l 1,24,-1
 202 1306 l 1,25,-1
 202 1468 l 1,26,-1
 760 1468 l 1,19,-1
EndSplineSet
Validated: 1
EndChar

StartChar: acute
Encoding: 180 180 141
Width: 662
Flags: W
LayerCount: 2
Fore
SplineSet
356 1603 m 1,0,-1
 662 1603 l 1,1,-1
 259 1139 l 1,2,-1
 9 1139 l 1,3,-1
 356 1603 l 1,0,-1
EndSplineSet
Validated: 1
EndChar

StartChar: dieresis
Encoding: 168 168 142
Width: 1278
Flags: W
LayerCount: 2
Fore
SplineSet
697 1537 m 1,0,-1
 975 1537 l 1,1,-1
 975 1260 l 1,2,-1
 697 1260 l 1,3,-1
 697 1537 l 1,0,-1
306 1537 m 1,4,-1
 584 1537 l 1,5,-1
 584 1260 l 1,6,-1
 306 1260 l 1,7,-1
 306 1537 l 1,4,-1
EndSplineSet
Validated: 1
EndChar

StartChar: notequal
Encoding: 8800 8800 143
Width: 1296
Flags: W
LayerCount: 2
Fore
SplineSet
13 943 m 1,0,-1
 753 943 l 1,1,-1
 1005 1253 l 1,2,-1
 1179 1110 l 1,3,-1
 1042 943 l 1,4,-1
 1284 943 l 1,5,-1
 1284 711 l 1,6,-1
 854 711 l 1,7,8
 835 688 835 688 821.5 671.5 c 128,-1,9
 808 655 808 655 795 639 c 128,-1,10
 782 623 782 623 767.5 605.5 c 128,-1,11
 753 588 753 588 732 562 c 1,12,-1
 1284 562 l 1,13,-1
 1284 329 l 1,14,-1
 541 329 l 1,15,16
 511 293 511 293 479 253.5 c 128,-1,17
 447 214 447 214 414.5 174 c 128,-1,18
 382 134 382 134 350 95 c 128,-1,19
 318 56 318 56 288 21 c 1,20,-1
 114 164 l 1,21,-1
 249 329 l 1,22,-1
 13 329 l 1,23,-1
 13 562 l 1,24,-1
 441 562 l 1,25,-1
 563 711 l 1,26,-1
 13 711 l 1,27,-1
 13 943 l 1,0,-1
EndSplineSet
Validated: 1
EndChar

StartChar: AE
Encoding: 198 198 144
Width: 2209
Flags: W
LayerCount: 2
Fore
SplineSet
1906 1493 m 1,0,-1
 1906 1256 l 1,1,-1
 1202 1256 l 1,2,-1
 1202 751 l 1,3,-1
 1877 751 l 1,4,-1
 1877 513 l 1,5,-1
 1202 513 l 1,6,-1
 1202 323 l 1,7,-1
 1924 323 l 1,8,-1
 1924 0 l 1,9,-1
 934 0 l 1,10,-1
 934 250 l 1,11,-1
 509 250 l 1,12,-1
 519 0 l 1,13,-1
 67 0 l 1,14,-1
 692 1493 l 1,15,-1
 1906 1493 l 1,0,-1
877 1267 m 1,16,-1
 591 485 l 1,17,-1
 934 485 l 1,18,-1
 934 1267 l 1,19,-1
 877 1267 l 1,16,-1
EndSplineSet
Validated: 1
EndChar

StartChar: Oslash
Encoding: 216 216 145
Width: 1752
Flags: W
LayerCount: 2
Fore
SplineSet
681 364 m 1,0,1
 697 356 697 356 711.5 352 c 128,-1,2
 726 348 726 348 741 346 c 1,3,4
 769 345 769 345 804 344.5 c 128,-1,5
 839 344 839 344 882 344 c 1,6,7
 977 358 977 358 1050 387 c 128,-1,8
 1123 416 1123 416 1167 459 c 1,9,10
 1209 504 1209 504 1241.5 594.5 c 128,-1,11
 1274 685 1274 685 1292 807 c 1,12,13
 1292 902 1292 902 1275 955 c 0,14,15
 1270 972 1270 972 1263.5 990 c 128,-1,16
 1257 1008 1257 1008 1249 1027 c 1,17,-1
 681 364 l 1,0,1
1130 1203 m 1,18,19
 1107 1232 1107 1232 1082 1253.5 c 128,-1,20
 1057 1275 1057 1275 1028 1286 c 1,21,22
 993 1302 993 1302 947.5 1311 c 128,-1,23
 902 1320 902 1320 846 1325 c 1,24,25
 755 1324 755 1324 678 1286.5 c 128,-1,26
 601 1249 601 1249 546 1184 c 1,27,28
 492 1112 492 1112 462 1010 c 128,-1,29
 432 908 432 908 432 783 c 0,30,31
 432 735 432 735 442 693 c 128,-1,32
 452 651 452 651 470 614 c 1,33,-1
 469 615 l 1,34,35
 485 586 485 586 500.5 560.5 c 128,-1,36
 516 535 516 535 536 511 c 1,37,-1
 1130 1203 l 1,18,19
321 248 m 1,38,39
 253 348 253 348 218 472.5 c 128,-1,40
 183 597 183 597 183 745 c 0,41,42
 183 1095 183 1095 371 1306 c 0,43,44
 561 1519 561 1519 877 1519 c 0,45,46
 997 1519 997 1519 1100 1486 c 128,-1,47
 1203 1453 1203 1453 1288 1389 c 1,48,-1
 1443 1571 l 1,49,-1
 1597 1437 l 1,50,-1
 1431 1243 l 1,51,52
 1499 1143 1499 1143 1534.5 1018 c 128,-1,53
 1570 893 1570 893 1570 745 c 0,54,55
 1570 394 1570 394 1382 184 c 0,56,57
 1287 78 1287 78 1161.5 25 c 128,-1,58
 1036 -28 1036 -28 877 -28 c 0,59,60
 758 -28 758 -28 655.5 3.5 c 128,-1,61
 553 35 553 35 465 101 c 1,62,-1
 310 -82 l 1,63,-1
 155 51 l 1,64,-1
 321 248 l 1,38,39
EndSplineSet
Validated: 1
EndChar

StartChar: infinity
Encoding: 8734 8734 146
Width: 1690
Flags: W
LayerCount: 2
Fore
SplineSet
935 661 m 1,0,1
 937 656 937 656 939.5 652.5 c 128,-1,2
 942 649 942 649 944 645 c 1,3,-1
 936 627 l 1,4,-1
 935 661 l 1,0,1
1060 831 m 1,5,6
 1032 802 1032 802 1003.5 756.5 c 128,-1,7
 975 711 975 711 944 645 c 1,8,9
 1025 514 1025 514 1152 514 c 0,10,11
 1228 514 1228 514 1279 566 c 0,12,13
 1328 616 1328 616 1328 701 c 0,14,15
 1328 779 1328 779 1282 833 c 0,16,17
 1239 883 1239 883 1172 883 c 0,18,19
 1113 883 1113 883 1059 831 c 1,20,-1
 1060 831 l 1,5,6
756 622 m 1,21,22
 751 628 751 628 747 638 c 1,23,-1
 755 656 l 1,24,-1
 756 622 l 1,21,22
646 504 m 0,25,26
 668 512 668 512 693 545.5 c 128,-1,27
 718 579 718 579 747 638 c 1,28,29
 725 676 725 676 701 711.5 c 128,-1,30
 677 747 677 747 650 783 c 0,31,32
 600 851 600 851 539 851 c 0,33,34
 460 851 460 851 412 801 c 0,35,36
 363 751 363 751 363 666 c 0,37,38
 363 588 363 588 409 534 c 0,39,40
 452 484 452 484 519 484 c 0,41,42
 588 484 588 484 646 504 c 0,25,26
974 273 m 0,43,44
 945 296 945 296 915.5 331 c 128,-1,45
 886 366 886 366 856 413 c 1,46,47
 790 307 790 307 716.5 256.5 c 128,-1,48
 643 206 643 206 555 206 c 0,49,50
 410 206 410 206 313 323 c 1,51,52
 217 437 217 437 217 607 c 0,53,54
 217 781 217 781 302 893 c 0,55,56
 391 1009 391 1009 536 1009 c 0,57,58
 624 1009 624 1009 696.5 958 c 128,-1,59
 769 907 769 907 833 803 c 1,60,61
 897 913 897 913 970.5 963.5 c 128,-1,62
 1044 1014 1044 1014 1136 1014 c 0,63,64
 1276 1014 1276 1014 1378 895 c 1,65,66
 1474 781 1474 781 1474 610 c 0,67,68
 1474 435 1474 435 1387 324 c 1,69,-1
 1388 325 l 1,70,71
 1300 210 1300 210 1155 210 c 0,72,73
 1055 210 1055 210 974 273 c 0,43,44
EndSplineSet
Validated: 5
EndChar

StartChar: plusminus
Encoding: 177 177 147
Width: 1428
Flags: W
LayerCount: 2
Fore
SplineSet
830 1273 m 1,0,-1
 830 912 l 1,1,-1
 1350 912 l 1,2,-1
 1350 679 l 1,3,-1
 830 679 l 1,4,-1
 830 317 l 1,5,-1
 599 317 l 1,6,-1
 599 679 l 1,7,-1
 79 679 l 1,8,-1
 79 912 l 1,9,-1
 599 912 l 1,10,-1
 599 1273 l 1,11,-1
 830 1273 l 1,0,-1
79 252 m 1,12,-1
 1350 252 l 1,13,-1
 1350 0 l 1,14,-1
 79 0 l 1,15,-1
 79 252 l 1,12,-1
EndSplineSet
Validated: 1
EndChar

StartChar: lessequal
Encoding: 8804 8804 148
Width: 1609
Flags: W
LayerCount: 2
Fore
SplineSet
1305 958 m 1,0,-1
 507 727 l 1,1,-1
 1305 499 l 1,2,-1
 1305 256 l 1,3,-1
 34 621 l 1,4,-1
 34 835 l 1,5,-1
 1305 1199 l 1,6,-1
 1305 958 l 1,0,-1
34 233 m 1,7,-1
 1305 233 l 1,8,-1
 1305 0 l 1,9,-1
 34 0 l 1,10,-1
 34 233 l 1,7,-1
EndSplineSet
Validated: 1
EndChar

StartChar: greaterequal
Encoding: 8805 8805 149
Width: 1610
Flags: W
LayerCount: 2
Fore
SplineSet
306 958 m 1,0,-1
 306 1199 l 1,1,-1
 1577 835 l 1,2,-1
 1577 621 l 1,3,-1
 306 256 l 1,4,-1
 306 499 l 1,5,-1
 1105 727 l 1,6,-1
 306 958 l 1,0,-1
1577 233 m 1,7,-1
 1577 0 l 1,8,-1
 306 0 l 1,9,-1
 306 233 l 1,10,-1
 1577 233 l 1,7,-1
EndSplineSet
Validated: 1
EndChar

StartChar: yen
Encoding: 165 165 150
Width: 1338
Flags: W
LayerCount: 2
Fore
SplineSet
1195 387 m 1,0,-1
 810 387 l 1,1,2
 812 341 812 341 815 291.5 c 128,-1,3
 818 242 818 242 820.5 192 c 128,-1,4
 823 142 823 142 825.5 93 c 128,-1,5
 828 44 828 44 830 0 c 1,6,-1
 507 0 l 1,7,-1
 535 387 l 1,8,-1
 149 387 l 1,9,-1
 149 614 l 1,10,-1
 538 614 l 1,11,12
 517 646 517 646 498.5 672.5 c 128,-1,13
 480 699 480 699 458 732 c 1,14,-1
 131 732 l 1,15,-1
 131 921 l 1,16,-1
 354 921 l 1,17,-1
 66 1468 l 1,18,-1
 346 1468 l 1,19,-1
 668 857 l 1,20,21
 747 1008 747 1008 828.5 1163.5 c 128,-1,22
 910 1319 910 1319 988 1468 c 1,23,-1
 1270 1468 l 1,24,-1
 973 921 l 1,25,-1
 1195 921 l 1,26,-1
 1195 732 l 1,27,-1
 871 732 l 1,28,-1
 807 615 l 1,29,-1
 807 614 l 1,30,-1
 1195 614 l 1,31,-1
 1195 387 l 1,0,-1
EndSplineSet
Validated: 1
EndChar

StartChar: mu
Encoding: 181 181 151
Width: 1425
Flags: W
LayerCount: 2
Fore
SplineSet
308 -398 m 1,0,-1
 289 1118 l 1,1,-1
 534 1131 l 1,2,-1
 545 629 l 1,3,4
 545 393 545 393 762 393 c 0,5,6
 1002 393 1002 393 1002 669 c 1,7,-1
 1012 1120 l 1,8,-1
 1258 1120 l 1,9,-1
 1248 278 l 2,10,11
 1248 258 1248 258 1318 253 c 1,12,13
 1325 255 1325 255 1349 265 c 128,-1,14
 1373 275 1373 275 1417 294 c 1,15,-1
 1417 77 l 1,16,17
 1408 72 1408 72 1394.5 64.5 c 128,-1,18
 1381 57 1381 57 1366.5 48 c 128,-1,19
 1352 39 1352 39 1336.5 30 c 128,-1,20
 1321 21 1321 21 1308 12 c 1,21,-1
 1309 12 l 1,22,23
 1249 -27 1249 -27 1204 -27 c 0,24,25
 1081 -27 1081 -27 1035 77 c 1,26,27
 987 31 987 31 920 2 c 128,-1,28
 853 -27 853 -27 775 -27 c 0,29,30
 632 -27 632 -27 547 48 c 1,31,32
 549 -64 549 -64 551 -178.5 c 128,-1,33
 553 -293 553 -293 555 -398 c 1,34,-1
 308 -398 l 1,0,-1
EndSplineSet
Validated: 1
EndChar

StartChar: partialdiff
Encoding: 8706 8706 152
Width: 1109
Flags: W
LayerCount: 2
Fore
SplineSet
483 830 m 0,0,1
 635 830 635 830 713 731 c 1,2,3
 718 780 718 780 721.5 827.5 c 128,-1,4
 725 875 725 875 725 920 c 0,5,6
 725 1123 725 1123 629 1126 c 1,7,8
 480 1117 480 1117 473 1103 c 0,9,10
 447 1045 447 1045 389 1045 c 0,11,12
 362 1045 362 1045 343 1047.5 c 128,-1,13
 324 1050 324 1050 313 1058 c 128,-1,14
 302 1066 302 1066 297 1082 c 128,-1,15
 292 1098 292 1098 292 1125 c 0,16,17
 292 1203 292 1203 375 1259 c 1,18,19
 413 1286 413 1286 458.5 1298.5 c 128,-1,20
 504 1311 504 1311 558 1311 c 0,21,22
 745 1311 745 1311 857 1151 c 1,23,24
 963 997 963 997 963 739 c 0,25,26
 963 414 963 414 821 200 c 1,27,28
 676 -23 676 -23 457 -23 c 0,29,30
 299 -23 299 -23 193 90 c 0,31,32
 88 201 88 201 88 368 c 0,33,34
 88 564 88 564 200 696 c 1,35,36
 316 830 316 830 483 830 c 0,0,1
615 539 m 0,37,38
 615 614 615 614 580 654 c 128,-1,39
 545 694 545 694 480 694 c 0,40,41
 389 694 389 694 326 607 c 1,42,43
 260 512 260 512 260 360 c 0,44,45
 260 285 260 285 294.5 245.5 c 128,-1,46
 329 206 329 206 395 206 c 0,47,48
 440 206 440 206 479 228.5 c 128,-1,49
 518 251 518 251 549 294 c 1,50,51
 581 342 581 342 598 403.5 c 128,-1,52
 615 465 615 465 615 539 c 0,37,38
EndSplineSet
Validated: 1
EndChar

StartChar: summation
Encoding: 8721 8721 153
Width: 1750
Flags: W
LayerCount: 2
Fore
SplineSet
298 1449 m 1,0,-1
 1547 1449 l 1,1,-1
 1547 1232 l 1,2,-1
 713 1232 l 1,3,4
 807 1150 807 1150 905 1065 c 128,-1,5
 1003 980 1003 980 1101.5 895 c 128,-1,6
 1200 810 1200 810 1297.5 725.5 c 128,-1,7
 1395 641 1395 641 1487 561 c 1,8,-1
 704 -38 l 1,9,-1
 1571 -38 l 1,10,-1
 1571 -367 l 1,11,-1
 270 -367 l 1,12,-1
 270 -97 l 1,13,-1
 1112 559 l 1,14,15
 910 734 910 734 704.5 913.5 c 128,-1,16
 499 1093 499 1093 298 1267 c 1,17,-1
 298 1449 l 1,0,-1
EndSplineSet
Validated: 1
EndChar

StartChar: product
Encoding: 8719 8719 154
Width: 1839
Flags: W
LayerCount: 2
Fore
SplineSet
306 1449 m 1,0,-1
 1535 1449 l 1,1,-1
 1535 -367 l 1,2,-1
 1237 -367 l 1,3,-1
 1237 1183 l 1,4,-1
 604 1183 l 1,5,-1
 604 -367 l 1,6,-1
 306 -367 l 1,7,-1
 306 1449 l 1,0,-1
EndSplineSet
Validated: 1
EndChar

StartChar: pi
Encoding: 960 960 155
Width: 1532
Flags: W
LayerCount: 2
Fore
SplineSet
1315 861 m 1,0,-1
 1145 861 l 1,1,2
 1122 753 1122 753 1099.5 644.5 c 128,-1,3
 1077 536 1077 536 1054 427 c 0,4,5
 1041 363 1041 363 1034 320.5 c 128,-1,6
 1027 278 1027 278 1027 259 c 0,7,8
 1027 226 1027 226 1040 211.5 c 128,-1,9
 1053 197 1053 197 1084 197 c 0,10,11
 1096 197 1096 197 1128 201 c 128,-1,12
 1160 205 1160 205 1223 214 c 1,13,-1
 1183 -58 l 1,14,15
 1141 -70 1141 -70 1108 -75 c 128,-1,16
 1075 -80 1075 -80 1046 -80 c 0,17,18
 921 -80 921 -80 830 11 c 256,19,20
 739 102 739 102 739 211 c 0,21,22
 739 259 739 259 748 327 c 1,23,24
 754 361 754 361 769.5 417 c 128,-1,25
 785 473 785 473 811 551 c 1,26,-1
 810 549 l 1,27,28
 823 594 823 594 833.5 631.5 c 128,-1,29
 844 669 844 669 854.5 705 c 128,-1,30
 865 741 865 741 876 778.5 c 128,-1,31
 887 816 887 816 900 861 c 1,32,-1
 676 861 l 1,33,34
 657 757 657 757 637.5 648 c 128,-1,35
 618 539 618 539 598.5 429.5 c 128,-1,36
 579 320 579 320 560 211.5 c 128,-1,37
 541 103 541 103 523 0 c 1,38,-1
 171 0 l 1,39,-1
 426 861 l 1,40,41
 398 856 398 856 381.5 825.5 c 128,-1,42
 365 795 365 795 357 728 c 1,43,-1
 131 728 l 1,44,45
 148 832 148 832 177 902 c 128,-1,46
 206 972 206 972 243 1006 c 0,47,48
 320 1074 320 1074 488 1074 c 2,49,-1
 1365 1074 l 1,50,-1
 1315 861 l 1,0,-1
EndSplineSet
Validated: 1
EndChar

StartChar: integral
Encoding: 8747 8747 156
Width: 986
Flags: W
LayerCount: 2
Fore
SplineSet
283 -94 m 1,0,1
 295 -117 295 -117 301 -160 c 1,2,3
 325 -124 325 -124 340 29.5 c 128,-1,4
 355 183 355 183 362 436 c 1,5,-1
 364 590 l 1,6,7
 376 1079 376 1079 467 1292 c 0,8,9
 564 1521 564 1521 779 1521 c 0,10,11
 868 1521 868 1521 924 1474 c 0,12,13
 984 1423 984 1423 984 1345 c 0,14,15
 984 1276 984 1276 944.5 1237 c 128,-1,16
 905 1198 905 1198 836 1198 c 0,17,18
 783 1198 783 1198 748.5 1221.5 c 128,-1,19
 714 1245 714 1245 699 1290 c 1,20,21
 692 1303 692 1303 686 1337 c 1,22,23
 663 1303 663 1303 648.5 1171 c 128,-1,24
 634 1039 634 1039 629 805 c 0,25,26
 628 789 628 789 627.5 773.5 c 128,-1,27
 627 758 627 758 627 743 c 2,28,-1
 621 524 l 1,29,30
 613 295 613 295 586 132 c 128,-1,31
 559 -31 559 -31 513 -132 c 0,32,33
 415 -346 415 -346 209 -346 c 0,34,35
 166 -346 166 -346 129.5 -334 c 128,-1,36
 93 -322 93 -322 64 -299 c 1,37,38
 35 -274 35 -274 19 -241.5 c 128,-1,39
 3 -209 3 -209 3 -171 c 0,40,41
 3 -100 3 -100 44.5 -61 c 128,-1,42
 86 -22 86 -22 161 -22 c 0,43,44
 203 -22 203 -22 233.5 -41 c 128,-1,45
 264 -60 264 -60 283 -95 c 1,46,-1
 283 -94 l 1,0,1
EndSplineSet
Validated: 1
EndChar

StartChar: ordfeminine
Encoding: 170 170 157
Width: 1204
Flags: W
LayerCount: 2
Fore
SplineSet
231 627 m 1,0,-1
 948 627 l 1,1,-1
 948 438 l 1,2,-1
 231 438 l 1,3,-1
 231 627 l 1,0,-1
946 669 m 1,4,-1
 732 669 l 1,5,-1
 732 720 l 1,6,7
 642 651 642 651 507 651 c 0,8,9
 374 651 374 651 293 723 c 0,10,11
 209 798 209 798 209 920 c 0,12,13
 209 1212 209 1212 600 1212 c 2,14,-1
 729 1212 l 1,15,16
 706 1311 706 1311 551 1311 c 0,17,18
 497 1311 497 1311 425 1289 c 128,-1,19
 353 1267 353 1267 266 1225 c 1,20,-1
 266 1429 l 1,21,22
 350 1461 350 1461 426.5 1477 c 128,-1,23
 503 1493 503 1493 571 1493 c 0,24,25
 762 1493 762 1493 854 1402.5 c 128,-1,26
 946 1312 946 1312 946 1125 c 2,27,-1
 946 669 l 1,4,-1
723 1091 m 1,28,-1
 723 1101 l 1,29,-1
 723 1128 l 1,30,-1
 760 1091 l 1,31,-1
 723 1091 l 1,28,-1
672 953 m 0,32,33
 720 1007 720 1007 723 1091 c 1,34,-1
 642 1091 l 2,35,36
 571 1091 571 1091 523.5 1084.5 c 128,-1,37
 476 1078 476 1078 450 1064 c 0,38,39
 411 1043 411 1043 411 992 c 0,40,41
 411 949 411 949 446.5 923.5 c 128,-1,42
 482 898 482 898 542 898 c 0,43,44
 622 898 622 898 672 953 c 0,32,33
EndSplineSet
Validated: 5
EndChar

StartChar: ordmasculine
Encoding: 186 186 158
Width: 1185
Flags: W
LayerCount: 2
Fore
SplineSet
233 627 m 1,0,-1
 950 627 l 1,1,-1
 950 438 l 1,2,-1
 233 438 l 1,3,-1
 233 627 l 1,0,-1
592 1493 m 0,4,5
 773 1493 773 1493 882 1378 c 1,6,7
 989 1263 989 1263 989 1071 c 0,8,9
 989 880 989 880 882 765 c 1,10,11
 774 651 774 651 592 651 c 256,12,13
 410 651 410 651 301 766 c 1,14,15
 193 882 193 882 193 1071 c 0,16,17
 193 1262 193 1262 301 1378 c 0,18,19
 409 1493 409 1493 592 1493 c 0,4,5
592 1346 m 0,20,21
 510 1346 510 1346 462 1295 c 256,22,23
 414 1244 414 1244 414 1149 c 0,24,25
 414 1056 414 1056 462 1005 c 1,26,-1
 462 1006 l 1,27,28
 513 955 513 955 592 955 c 0,29,30
 673 955 673 955 720 1005 c 1,31,32
 769 1060 769 1060 769 1149 c 0,33,34
 769 1196 769 1196 756.5 1232 c 128,-1,35
 744 1268 744 1268 721 1295 c 1,36,37
 673 1346 673 1346 592 1346 c 0,20,21
EndSplineSet
Validated: 1
EndChar

StartChar: Omega
Encoding: 8486 8486 159
Width: 1818
Flags: W
LayerCount: 2
Fore
SplineSet
1617 302 m 1,0,-1
 1617 0 l 1,1,-1
 972 0 l 1,2,-1
 972 291 l 1,3,4
 1154 350 1154 350 1239 486 c 1,5,6
 1328 626 1328 626 1328 806 c 0,7,8
 1328 1066 1328 1066 1212 1193 c 0,9,10
 1099 1318 1099 1318 910 1318 c 256,11,12
 721 1318 721 1318 606 1192 c 1,13,-1
 607 1192 l 1,14,15
 492 1067 492 1067 492 806 c 0,16,17
 492 625 492 625 580 486 c 1,18,-1
 580 487 l 1,19,20
 670 349 670 349 849 291 c 1,21,-1
 849 0 l 1,22,-1
 204 0 l 1,23,-1
 204 302 l 1,24,-1
 448 302 l 1,25,26
 397 352 397 352 359 398 c 128,-1,27
 321 444 321 444 293 489 c 0,28,29
 219 610 219 610 219 796 c 0,30,31
 219 1114 219 1114 411 1312 c 0,32,33
 604 1510 604 1510 910 1510 c 0,34,35
 1213 1510 1213 1510 1407 1312 c 1,36,37
 1601 1117 1601 1117 1601 806 c 0,38,39
 1601 710 1601 710 1582 631 c 128,-1,40
 1563 552 1563 552 1528 491 c 0,41,42
 1502 446 1502 446 1462.5 398.5 c 128,-1,43
 1423 351 1423 351 1372 302 c 1,44,-1
 1617 302 l 1,0,-1
EndSplineSet
Validated: 1
EndChar

StartChar: ae
Encoding: 230 230 160
Width: 2190
Flags: W
LayerCount: 2
Fore
SplineSet
1716 747 m 1,0,1
 1704 816 1704 816 1648 889 c 0,2,3
 1582 975 1582 975 1474 975 c 0,4,5
 1347 975 1347 975 1272 889 c 1,6,7
 1241 856 1241 856 1220.5 819.5 c 128,-1,8
 1200 783 1200 783 1190 746 c 1,9,-1
 1716 747 l 1,0,1
700 1145 m 0,10,11
 827 1145 827 1145 925.5 1106 c 128,-1,12
 1024 1067 1024 1067 1084 995 c 1,13,14
 1158 1069 1158 1069 1255 1107 c 128,-1,15
 1352 1145 1352 1145 1472 1145 c 0,16,17
 1699 1145 1699 1145 1834 997 c 0,18,19
 1966 851 1966 851 1966 659 c 2,20,-1
 1966 538 l 1,21,-1
 1183 538 l 1,22,23
 1203 453 1203 453 1272 385 c 0,24,25
 1355 303 1355 303 1512 303 c 0,26,27
 1606 303 1606 303 1708 333.5 c 128,-1,28
 1810 364 1810 364 1926 427 c 1,29,-1
 1926 93 l 1,30,31
 1903 83 1903 83 1875.5 72 c 128,-1,32
 1848 61 1848 61 1819.5 50 c 128,-1,33
 1791 39 1791 39 1763.5 28.5 c 128,-1,34
 1736 18 1736 18 1712 9 c 0,35,36
 1608 -27 1608 -27 1503 -27 c 0,37,38
 1346 -27 1346 -27 1234.5 18 c 128,-1,39
 1123 63 1123 63 1044 168 c 1,40,41
 972 72 972 72 870.5 22.5 c 128,-1,42
 769 -27 769 -27 640 -27 c 0,43,44
 447 -27 447 -27 341 69 c 1,45,46
 230 168 230 168 230 342 c 0,47,48
 230 593 230 593 363 693 c 1,49,50
 491 791 491 791 738 791 c 2,51,-1
 939 791 l 1,52,53
 927 834 927 834 873 889 c 1,54,55
 807 962 807 962 682 962 c 0,56,57
 596 962 596 962 502 934.5 c 128,-1,58
 408 907 408 907 307 851 c 1,59,-1
 307 1060 l 1,60,61
 526 1145 526 1145 700 1145 c 0,10,11
942 581 m 1,62,-1
 942 588 l 1,63,-1
 942 619 l 1,64,-1
 979 581 l 1,65,-1
 942 581 l 1,62,-1
867 355 m 0,66,67
 941 424 941 424 942 581 c 1,68,-1
 808 581 l 2,69,70
 609 581 609 581 536 547 c 0,71,72
 477 519 477 519 477 406 c 0,73,74
 477 349 477 349 527 317 c 128,-1,75
 577 285 577 285 663 285 c 0,76,77
 793 285 793 285 867 355 c 0,66,67
EndSplineSet
Validated: 5
EndChar

StartChar: oslash
Encoding: 248 248 161
Width: 1370
Flags: W
LayerCount: 2
Fore
SplineSet
542 237 m 1,0,1
 572 214 572 214 606.5 203.5 c 128,-1,2
 641 193 641 193 686 193 c 0,3,4
 804 193 804 193 874 287 c 0,5,6
 946 384 946 384 946 559 c 0,7,8
 946 607 946 607 943.5 642 c 128,-1,9
 941 677 941 677 932 709 c 1,10,-1
 542 237 l 1,0,1
828 881 m 1,11,12
 798 904 798 904 763 914.5 c 128,-1,13
 728 925 728 925 686 925 c 0,14,15
 626 925 626 925 578 900.5 c 128,-1,16
 530 876 530 876 496 831 c 1,17,18
 425 730 425 730 425 546 c 0,19,20
 425 508 425 508 428 473 c 128,-1,21
 431 438 431 438 438 410 c 1,22,-1
 828 881 l 1,11,12
260 193 m 1,23,24
 212 268 212 268 190.5 357.5 c 128,-1,25
 169 447 169 447 169 559 c 0,26,27
 169 830 169 830 305 987 c 1,28,29
 444 1145 444 1145 686 1145 c 0,30,31
 853 1145 853 1145 977 1063 c 1,32,33
 992 1082 992 1082 1009.5 1103 c 128,-1,34
 1027 1124 1027 1124 1044.5 1145 c 128,-1,35
 1062 1166 1062 1166 1078.5 1186 c 128,-1,36
 1095 1206 1095 1206 1109 1222 c 1,37,-1
 1254 1100 l 1,38,-1
 1112 926 l 1,39,40
 1203 776 1203 776 1203 559 c 0,41,42
 1203 290 1203 290 1066 132 c 0,43,44
 928 -27 928 -27 686 -27 c 0,45,46
 513 -27 513 -27 394 55 c 1,47,48
 379 36 379 36 361.5 15.5 c 128,-1,49
 344 -5 344 -5 326.5 -26 c 128,-1,50
 309 -47 309 -47 292.5 -67 c 128,-1,51
 276 -87 276 -87 263 -103 c 1,52,-1
 116 17 l 1,53,-1
 260 193 l 1,23,24
EndSplineSet
Validated: 1
EndChar

StartChar: questiondown
Encoding: 191 191 162
Width: 922
Flags: W
LayerCount: 2
Fore
SplineSet
361 1094 m 1,0,-1
 585 1094 l 1,1,-1
 585 911 l 2,2,3
 585 808 585 808 559 762 c 0,4,5
 536 720 536 720 467 644 c 1,6,-1
 382 561 l 1,7,8
 334 516 334 516 313 479.5 c 128,-1,9
 292 443 292 443 292 405 c 0,10,11
 292 339 292 339 340 299 c 1,12,-1
 340 300 l 1,13,14
 390 257 390 257 479 257 c 0,15,16
 546 257 546 257 639 298.5 c 128,-1,17
 732 340 732 340 847 419 c 1,18,-1
 847 95 l 1,19,20
 744 33 744 33 646 3 c 128,-1,21
 548 -27 548 -27 446 -27 c 0,22,23
 259 -27 259 -27 146 73 c 1,24,25
 28 175 28 175 28 340 c 0,26,27
 28 419 28 419 66 492 c 1,28,29
 86 527 86 527 117 565.5 c 128,-1,30
 148 604 148 604 191 646 c 2,31,-1
 273 726 l 2,32,33
 294 746 294 746 308.5 762.5 c 128,-1,34
 323 779 323 779 331 790 c 1,35,-1
 331 789 l 1,36,37
 346 808 346 808 351 826 c 1,38,39
 357 843 357 843 359 868.5 c 128,-1,40
 361 894 361 894 361 942 c 2,41,-1
 361 1094 l 1,0,-1
619 1156 m 1,42,-1
 356 1156 l 1,43,-1
 356 1468 l 1,44,-1
 619 1468 l 1,45,-1
 619 1156 l 1,42,-1
EndSplineSet
Validated: 1
EndChar

StartChar: exclamdown
Encoding: 161 161 163
Width: 878
Flags: W
LayerCount: 2
Fore
SplineSet
593 1138 m 1,0,-1
 291 1138 l 1,1,-1
 291 1468 l 1,2,-1
 593 1468 l 1,3,-1
 593 1138 l 1,0,-1
603 0 m 1,4,-1
 281 0 l 1,5,-1
 291 650 l 1,6,-1
 313 1019 l 1,7,-1
 572 1019 l 1,8,-1
 593 650 l 1,9,-1
 603 0 l 1,4,-1
EndSplineSet
Validated: 1
EndChar

StartChar: logicalnot
Encoding: 172 172 164
Width: 1584
Flags: W
LayerCount: 2
Fore
SplineSet
0 879 m 1,0,-1
 1270 879 l 1,1,-1
 1301 268 l 1,2,-1
 989 268 l 1,3,-1
 1035 646 l 1,4,5
 782 641 782 641 516.5 636 c 128,-1,6
 251 631 251 631 0 626 c 1,7,-1
 0 879 l 1,0,-1
EndSplineSet
Validated: 1
EndChar

StartChar: radical
Encoding: 8730 8730 165
Width: 1249
Flags: W
LayerCount: 2
Fore
SplineSet
1005 1625 m 1,0,-1
 1245 1625 l 1,1,-1
 1245 1461 l 1,2,-1
 1126 1461 l 1,3,-1
 572 -38 l 1,4,-1
 457 -38 l 1,5,-1
 164 775 l 1,6,-1
 46 733 l 1,7,-1
 0 880 l 1,8,-1
 334 995 l 1,9,-1
 551 396 l 1,10,-1
 1005 1625 l 1,0,-1
EndSplineSet
Validated: 1
EndChar

StartChar: florin
Encoding: 402 402 166
Width: 1249
Flags: W
LayerCount: 2
Fore
SplineSet
1248 1246 m 1,0,1
 1186 1294 1186 1294 1140 1315.5 c 128,-1,2
 1094 1337 1094 1337 1059 1337 c 0,3,4
 917 1337 917 1337 876 1131 c 1,5,-1
 830 869 l 1,6,7
 861 871 861 871 895 873.5 c 128,-1,8
 929 876 929 876 963 878.5 c 128,-1,9
 997 881 997 881 1029 883.5 c 128,-1,10
 1061 886 1061 886 1089 888 c 1,11,-1
 1089 679 l 1,12,-1
 789 660 l 1,13,-1
 731 238 l 2,14,15
 707 69 707 69 662.5 -58 c 128,-1,16
 618 -185 618 -185 555 -254 c 1,17,-1
 556 -254 l 1,18,19
 424 -398 424 -398 234 -398 c 0,20,21
 176 -398 176 -398 119.5 -384.5 c 128,-1,22
 63 -371 63 -371 1 -342 c 1,23,-1
 73 36 l 1,24,25
 206 -49 206 -49 282 -49 c 0,26,27
 355 -49 355 -49 393 1 c 1,28,29
 441 60 441 60 469 203 c 1,30,-1
 468 202 l 1,31,32
 477 264 477 264 485 319 c 128,-1,33
 493 374 493 374 501 428 c 128,-1,34
 509 482 509 482 517 537 c 128,-1,35
 525 592 525 592 534 654 c 1,36,-1
 309 637 l 1,37,-1
 309 846 l 1,38,-1
 576 864 l 1,39,-1
 629 1144 l 2,40,41
 665 1331 665 1331 766.5 1429 c 128,-1,42
 868 1527 868 1527 1025 1527 c 0,43,44
 1132 1527 1132 1527 1248 1481 c 1,45,-1
 1248 1246 l 1,0,1
EndSplineSet
Validated: 1
EndChar

StartChar: approxequal
Encoding: 8776 8776 167
Width: 1674
Flags: W
LayerCount: 2
Fore
SplineSet
1476 433 m 1,0,1
 1420 392 1420 392 1370 362.5 c 128,-1,2
 1320 333 1320 333 1272.5 314 c 128,-1,3
 1225 295 1225 295 1178 286 c 128,-1,4
 1131 277 1131 277 1083 277 c 0,5,6
 1031 277 1031 277 964.5 293 c 128,-1,7
 898 309 898 309 830 335 c 0,8,9
 827 336 827 336 822 338 c 128,-1,10
 817 340 817 340 814 342 c 1,11,12
 810 343 810 343 804 345.5 c 128,-1,13
 798 348 798 348 795 349 c 0,14,15
 655 413 655 413 576 413 c 0,16,17
 501 413 501 413 412 367 c 128,-1,18
 323 321 323 321 205 220 c 1,19,-1
 205 486 l 1,20,21
 260 527 260 527 310.5 556.5 c 128,-1,22
 361 586 361 586 409 605 c 128,-1,23
 457 624 457 624 504.5 633 c 128,-1,24
 552 642 552 642 601 642 c 1,25,26
 652 637 652 637 718 619 c 128,-1,27
 784 601 784 601 852 575 c 0,28,29
 854 574 854 574 859 572 c 128,-1,30
 864 570 864 570 867 568 c 0,31,32
 871 566 871 566 877 563.5 c 128,-1,33
 883 561 883 561 887 560 c 0,34,35
 1023 507 1023 507 1105 507 c 0,36,37
 1141 507 1141 507 1180.5 518 c 128,-1,38
 1220 529 1220 529 1265 552 c 128,-1,39
 1310 575 1310 575 1362 611 c 128,-1,40
 1414 647 1414 647 1476 698 c 1,41,-1
 1476 433 l 1,0,1
1476 797 m 1,42,43
 1420 755 1420 755 1370 725.5 c 128,-1,44
 1320 696 1320 696 1272.5 677 c 128,-1,45
 1225 658 1225 658 1178 649 c 128,-1,46
 1131 640 1131 640 1083 640 c 0,47,48
 1031 640 1031 640 964.5 656 c 128,-1,49
 898 672 898 672 830 698 c 0,50,51
 827 699 827 699 822 701 c 128,-1,52
 817 703 817 703 814 705 c 0,53,54
 810 707 810 707 804 709 c 128,-1,55
 798 711 798 711 795 712 c 0,56,57
 655 776 655 776 576 776 c 0,58,59
 501 776 501 776 412 730 c 128,-1,60
 323 684 323 684 205 583 c 1,61,-1
 205 849 l 1,62,63
 260 890 260 890 310.5 919.5 c 128,-1,64
 361 949 361 949 409 968 c 128,-1,65
 457 987 457 987 504.5 996 c 128,-1,66
 552 1005 552 1005 601 1005 c 1,67,68
 655 1000 655 1000 717.5 983.5 c 128,-1,69
 780 967 780 967 852 938 c 1,70,-1
 866 932 l 1,71,-1
 887 924 l 1,72,-1
 886 924 l 1,73,74
 1024 870 1024 870 1105 870 c 0,75,76
 1141 870 1141 870 1180.5 881 c 128,-1,77
 1220 892 1220 892 1265 915 c 128,-1,78
 1310 938 1310 938 1362 974 c 128,-1,79
 1414 1010 1414 1010 1476 1061 c 1,80,-1
 1476 797 l 1,42,43
EndSplineSet
Validated: 1
EndChar

StartChar: Delta
Encoding: 8710 8710 168
Width: 1476
Flags: W
LayerCount: 2
Fore
SplineSet
737 1224 m 1,0,1
 693 1111 693 1111 652 1004 c 128,-1,2
 611 897 611 897 569.5 791 c 128,-1,3
 528 685 528 685 486.5 576.5 c 128,-1,4
 445 468 445 468 400 353 c 1,5,-1
 1073 353 l 1,6,-1
 737 1224 l 1,0,1
608 1449 m 1,7,-1
 868 1449 l 1,8,-1
 1438 0 l 1,9,-1
 38 0 l 1,10,-1
 608 1449 l 1,7,-1
EndSplineSet
Validated: 1
EndChar

StartChar: guillemotleft
Encoding: 171 171 169
Width: 1226
Flags: W
LayerCount: 2
Fore
SplineSet
991 1077 m 1,0,-1
 981 798 l 1,1,-1
 711 574 l 1,2,3
 774 514 774 514 840.5 450.5 c 128,-1,4
 907 387 907 387 968 329 c 1,5,-1
 905 29 l 1,6,-1
 415 497 l 1,7,-1
 468 642 l 1,8,-1
 991 1077 l 1,0,-1
586 1091 m 1,9,-1
 576 813 l 1,10,-1
 306 589 l 1,11,12
 369 529 369 529 435.5 465.5 c 128,-1,13
 502 402 502 402 563 343 c 1,14,-1
 500 43 l 1,15,-1
 10 511 l 1,16,-1
 63 656 l 1,17,-1
 586 1091 l 1,9,-1
EndSplineSet
Validated: 1
EndChar

StartChar: guillemotright
Encoding: 187 187 170
Width: 1213
Flags: W
LayerCount: 2
Fore
SplineSet
275 1133 m 1,0,-1
 759 654 l 1,1,-1
 799 507 l 1,2,-1
 269 81 l 1,3,-1
 233 386 l 1,4,-1
 512 609 l 1,5,-1
 261 856 l 1,6,-1
 275 1133 l 1,0,-1
679 1112 m 1,7,-1
 1163 633 l 1,8,-1
 1203 485 l 1,9,-1
 673 60 l 1,10,-1
 637 365 l 1,11,-1
 916 587 l 1,12,-1
 665 834 l 1,13,-1
 679 1112 l 1,7,-1
EndSplineSet
Validated: 1
EndChar

StartChar: ellipsis
Encoding: 8230 8230 171
Width: 2259
Flags: W
LayerCount: 2
Fore
SplineSet
942 414 m 1,0,-1
 1317 414 l 1,1,-1
 1317 0 l 1,2,-1
 942 0 l 1,3,-1
 942 414 l 1,0,-1
1578 414 m 1,4,-1
 1954 414 l 1,5,-1
 1954 0 l 1,6,-1
 1578 0 l 1,7,-1
 1578 414 l 1,4,-1
306 414 m 1,8,-1
 682 414 l 1,9,-1
 682 0 l 1,10,-1
 306 0 l 1,11,-1
 306 414 l 1,8,-1
EndSplineSet
Validated: 1
EndChar

StartChar: OE
Encoding: 338 338 176
Width: 2366
Flags: W
LayerCount: 2
Fore
SplineSet
2090 1493 m 1,0,-1
 2090 1294 l 1,1,-1
 1385 1294 l 1,2,-1
 1385 979 l 1,3,-1
 2079 979 l 1,4,-1
 2079 741 l 1,5,-1
 1385 741 l 1,6,-1
 1385 342 l 1,7,-1
 2107 342 l 1,8,-1
 2107 0 l 1,9,-1
 1058 0 l 2,10,11
 629 0 629 0 407 190 c 128,-1,12
 185 380 185 380 185 748 c 0,13,14
 185 931 185 931 241 1070 c 128,-1,15
 297 1209 297 1209 407 1303 c 128,-1,16
 517 1397 517 1397 680 1445 c 128,-1,17
 843 1493 843 1493 1058 1493 c 2,18,-1
 2090 1493 l 1,0,-1
1118 1294 m 1,19,-1
 1033 1294 l 2,20,21
 745 1294 745 1294 602 1166 c 0,22,23
 463 1042 463 1042 463 748 c 0,24,25
 463 673 463 673 499.5 602 c 128,-1,26
 536 531 536 531 602 469 c 1,27,28
 674 406 674 406 782 374 c 128,-1,29
 890 342 890 342 1033 342 c 2,30,-1
 1118 342 l 1,31,-1
 1118 1294 l 1,19,-1
EndSplineSet
Validated: 1
EndChar

StartChar: oe
Encoding: 339 339 177
Width: 2264
Flags: W
LayerCount: 2
Fore
SplineSet
1786 821 m 1,0,1
 1778 839 1778 839 1764.5 858 c 128,-1,2
 1751 877 1751 877 1729 900 c 0,3,4
 1663 972 1663 972 1552 972 c 0,5,6
 1424 972 1424 972 1348 901 c 1,7,-1
 1349 901 l 1,8,9
 1326 879 1326 879 1308.5 859 c 128,-1,10
 1291 839 1291 839 1280 820 c 1,11,-1
 1786 821 l 1,0,1
2045 622 m 1,12,-1
 1257 622 l 1,13,14
 1264 488 1264 488 1286 410.5 c 128,-1,15
 1308 333 1308 333 1346 307 c 1,16,-1
 1345 307 l 1,17,18
 1432 249 1432 249 1590 249 c 0,19,20
 1775 249 1775 249 2005 371 c 1,21,-1
 2005 65 l 1,22,23
 1897 20 1897 20 1790.5 -3.5 c 128,-1,24
 1684 -27 1684 -27 1581 -27 c 0,25,26
 1438 -27 1438 -27 1326 18.5 c 128,-1,27
 1214 64 1214 64 1133 153 c 1,28,29
 1097 104 1097 104 1056 69.5 c 128,-1,30
 1015 35 1015 35 966.5 13.5 c 128,-1,31
 918 -8 918 -8 861 -17.5 c 128,-1,32
 804 -27 804 -27 738 -27 c 0,33,34
 617 -27 617 -27 522 12 c 128,-1,35
 427 51 427 51 357 132 c 0,36,37
 221 287 221 287 221 559 c 0,38,39
 221 830 221 830 357 987 c 1,40,41
 496 1145 496 1145 738 1145 c 0,42,43
 866 1145 866 1145 964.5 1100.5 c 128,-1,44
 1063 1056 1063 1056 1130 967 c 1,45,46
 1208 1060 1208 1060 1312.5 1102.5 c 128,-1,47
 1417 1145 1417 1145 1550 1145 c 0,48,49
 1779 1145 1779 1145 1912 997 c 0,50,51
 2045 850 2045 850 2045 743 c 2,52,-1
 2045 622 l 1,12,-1
738 953 m 0,53,54
 617 953 617 953 549 867 c 0,55,56
 477 777 477 777 477 619 c 0,57,58
 477 457 477 457 548 370 c 0,59,60
 617 285 617 285 738 285 c 0,61,62
 858 285 858 285 927 371 c 0,63,64
 999 461 999 461 999 619 c 0,65,66
 999 774 999 774 927 866 c 0,67,68
 858 953 858 953 738 953 c 0,53,54
EndSplineSet
Validated: 1
EndChar

StartChar: endash
Encoding: 8211 8211 178
Width: 1640
Flags: W
LayerCount: 2
Fore
SplineSet
306 665 m 1,0,-1
 1336 665 l 1,1,-1
 1336 456 l 1,2,-1
 306 456 l 1,3,-1
 306 665 l 1,0,-1
EndSplineSet
Validated: 1
EndChar

StartChar: emdash
Encoding: 8212 8212 179
Width: 2597
Flags: W
LayerCount: 2
Fore
SplineSet
306 665 m 1,0,-1
 2292 665 l 1,1,-1
 2292 456 l 1,2,-1
 306 456 l 1,3,-1
 306 665 l 1,0,-1
EndSplineSet
Validated: 1
EndChar

StartChar: quotedblleft
Encoding: 8220 8220 180
Width: 1276
Flags: W
LayerCount: 2
Fore
SplineSet
505 822 m 1,0,-1
 186 822 l 1,1,-1
 186 1070 l 1,2,-1
 390 1468 l 1,3,-1
 611 1468 l 1,4,-1
 505 1054 l 1,5,-1
 505 822 l 1,0,-1
981 822 m 1,6,-1
 662 822 l 1,7,-1
 662 1070 l 1,8,-1
 866 1468 l 1,9,-1
 1087 1468 l 1,10,-1
 981 1054 l 1,11,-1
 981 822 l 1,6,-1
EndSplineSet
Validated: 1
EndChar

StartChar: quotedblright
Encoding: 8221 8221 181
Width: 1222
Flags: W
LayerCount: 2
Fore
SplineSet
291 1468 m 1,0,-1
 595 1468 l 1,1,-1
 595 1235 l 1,2,-1
 403 860 l 1,3,-1
 192 860 l 1,4,-1
 291 1249 l 1,5,-1
 291 1468 l 1,0,-1
736 1468 m 1,6,-1
 1039 1468 l 1,7,-1
 1039 1235 l 1,8,-1
 847 860 l 1,9,-1
 635 860 l 1,10,-1
 736 1249 l 1,11,-1
 736 1468 l 1,6,-1
EndSplineSet
Validated: 1
EndChar

StartChar: quoteleft
Encoding: 8216 8216 182
Width: 600
Flags: W
LayerCount: 2
Fore
SplineSet
405 853 m 1,0,-1
 87 853 l 1,1,-1
 87 1098 l 1,2,-1
 289 1492 l 1,3,-1
 508 1492 l 1,4,-1
 405 1084 l 1,5,-1
 405 853 l 1,0,-1
EndSplineSet
Validated: 1
EndChar

StartChar: quoteright
Encoding: 8217 8217 183
Width: 593
Flags: W
LayerCount: 2
Fore
SplineSet
201 1484 m 1,0,-1
 515 1484 l 1,1,-1
 515 1265 l 1,2,-1
 315 876 l 1,3,-1
 97 876 l 1,4,-1
 201 1280 l 1,5,-1
 201 1484 l 1,0,-1
EndSplineSet
Validated: 1
EndChar

StartChar: divide
Encoding: 247 247 184
Width: 1322
Flags: W
LayerCount: 2
Fore
SplineSet
486 1181 m 1,0,-1
 837 1181 l 1,1,-1
 837 830 l 1,2,-1
 486 830 l 1,3,-1
 486 1181 l 1,0,-1
486 397 m 1,4,-1
 837 397 l 1,5,-1
 837 47 l 1,6,-1
 486 47 l 1,7,-1
 486 397 l 1,4,-1
2 753 m 1,8,-1
 1320 753 l 1,9,-1
 1320 473 l 1,10,-1
 2 473 l 1,11,-1
 2 753 l 1,8,-1
EndSplineSet
Validated: 1
EndChar

StartChar: lozenge
Encoding: 9674 9674 185
Width: 1038
Flags: W
LayerCount: 2
Fore
SplineSet
519 1265 m 1,0,-1
 203 594 l 1,1,-1
 519 130 l 1,2,-1
 836 594 l 1,3,-1
 519 1265 l 1,0,-1
519 1668 m 1,4,-1
 1027 590 l 1,5,-1
 519 -496 l 1,6,-1
 11 590 l 1,7,-1
 519 1668 l 1,4,-1
EndSplineSet
Validated: 1
EndChar

StartChar: uni2215
Encoding: 8725 8725 188
Width: 1152
Flags: W
LayerCount: 2
Fore
SplineSet
915 1493 m 1,0,-1
 1152 1493 l 1,1,-1
 237 -27 l 1,2,-1
 0 -27 l 1,3,-1
 915 1493 l 1,0,-1
EndSplineSet
Validated: 1
EndChar

StartChar: currency
Encoding: 164 164 189
Width: 1552
Flags: W
LayerCount: 2
Fore
SplineSet
1196 1211 m 1,0,-1
 1354 1052 l 1,1,-1
 1156 854 l 1,2,3
 1215 749 1215 749 1215 636 c 0,4,5
 1215 576 1215 576 1200 525 c 128,-1,6
 1185 474 1185 474 1153 421 c 1,7,-1
 1353 222 l 1,8,-1
 1194 65 l 1,9,-1
 996 263 l 1,10,11
 942 231 942 231 888.5 216 c 128,-1,12
 835 201 835 201 780 201 c 0,13,14
 671 201 671 201 563 260 c 1,15,-1
 363 61 l 1,16,-1
 206 221 l 1,17,-1
 405 420 l 1,18,19
 345 532 345 532 345 636 c 0,20,21
 345 693 345 693 360.5 746 c 128,-1,22
 376 799 376 799 406 850 c 1,23,24
 382 873 382 873 356.5 899 c 128,-1,25
 331 925 331 925 305 951 c 128,-1,26
 279 977 279 977 254.5 1002 c 128,-1,27
 230 1027 230 1027 208 1048 c 1,28,-1
 368 1208 l 1,29,-1
 566 1010 l 1,30,31
 667 1071 667 1071 780 1071 c 0,32,33
 834 1071 834 1071 888.5 1055.5 c 128,-1,34
 943 1040 943 1040 997 1011 c 1,35,-1
 1196 1211 l 1,0,-1
994 637 m 256,36,37
 994 727 994 727 932 787 c 1,38,39
 871 848 871 848 780 848 c 0,40,41
 692 848 692 848 628 787 c 0,42,43
 566 728 566 728 566 637 c 0,44,45
 566 545 566 545 627 484 c 1,46,-1
 627 485 l 1,47,48
 689 423 689 423 780 423 c 256,49,50
 871 423 871 423 932 484 c 1,51,-1
 931 484 l 1,52,53
 994 547 994 547 994 637 c 256,36,37
EndSplineSet
Validated: 1
EndChar

StartChar: guilsinglleft
Encoding: 8249 8249 190
Width: 809
Flags: W
LayerCount: 2
Fore
SplineSet
513 1110 m 1,0,-1
 513 831 l 1,1,-1
 251 597 l 1,2,-1
 513 364 l 1,3,-1
 513 85 l 1,4,-1
 0 542 l 1,5,-1
 0 652 l 1,6,-1
 513 1110 l 1,0,-1
EndSplineSet
Validated: 1
EndChar

StartChar: guilsinglright
Encoding: 8250 8250 191
Width: 818
Flags: W
LayerCount: 2
Fore
SplineSet
306 1110 m 1,0,-1
 818 652 l 1,1,-1
 818 542 l 1,2,-1
 306 85 l 1,3,-1
 306 364 l 1,4,-1
 567 597 l 1,5,-1
 306 831 l 1,6,-1
 306 1110 l 1,0,-1
EndSplineSet
Validated: 1
EndChar

StartChar: fi
Encoding: 64257 64257 192
Width: 1443
Flags: W
LayerCount: 2
Fore
SplineSet
1150 1120 m 1,0,-1
 1179 0 l 1,1,-1
 884 0 l 1,2,-1
 903 921 l 1,3,-1
 508 921 l 1,4,5
 512 810 512 810 515.5 693.5 c 128,-1,6
 519 577 519 577 522 459.5 c 128,-1,7
 525 342 525 342 528.5 226 c 128,-1,8
 532 110 532 110 535 0 c 1,9,-1
 230 0 l 1,10,-1
 250 921 l 1,11,-1
 86 921 l 1,12,-1
 86 1120 l 1,13,-1
 250 1120 l 1,14,-1
 250 1155 l 2,15,16
 250 1342 250 1342 346 1435 c 0,17,18
 393 1480 393 1480 461 1509 c 128,-1,19
 529 1538 529 1538 619 1554 c 1,20,-1
 835 1577 l 1,21,-1
 835 1364 l 1,22,-1
 638 1319 l 1,23,24
 560 1319 560 1319 535 1283 c 1,25,-1
 535 1284 l 1,26,27
 507 1240 507 1240 507 1175 c 2,28,-1
 507 1120 l 1,29,-1
 1150 1120 l 1,0,-1
903 1525 m 1,30,-1
 1151 1525 l 1,31,-1
 1151 1233 l 1,32,-1
 903 1233 l 1,33,-1
 903 1525 l 1,30,-1
EndSplineSet
Validated: 1
EndChar

StartChar: fl
Encoding: 64258 64258 193
Width: 1498
Flags: W
LayerCount: 2
Fore
SplineSet
1170 1527 m 1,0,-1
 1170 269 l 1,1,2
 1196 270 1196 270 1225.5 270.5 c 128,-1,3
 1255 271 1255 271 1273 271 c 1,4,-1
 1274 0 l 1,5,-1
 923 0 l 1,6,-1
 923 1328 l 1,7,-1
 653 1328 l 2,8,9
 576 1328 576 1328 551 1302 c 1,10,-1
 551 1303 l 1,11,12
 526 1277 526 1277 526 1197 c 1,13,-1
 533 1120 l 1,14,-1
 809 1120 l 1,15,-1
 809 912 l 1,16,-1
 538 912 l 1,17,-1
 594 0 l 1,18,-1
 240 0 l 1,19,-1
 268 912 l 1,20,-1
 114 912 l 1,21,-1
 114 1120 l 1,22,-1
 273 1120 l 1,23,-1
 279 1158 l 1,24,25
 279 1254 279 1254 301.5 1323.5 c 128,-1,26
 324 1393 324 1393 369.5 1438.5 c 128,-1,27
 415 1484 415 1484 486 1505.5 c 128,-1,28
 557 1527 557 1527 655 1527 c 2,29,-1
 1170 1527 l 1,0,-1
EndSplineSet
Validated: 1
EndChar

StartChar: daggerdbl
Encoding: 8225 8225 194
Width: 952
Flags: W
LayerCount: 2
Fore
SplineSet
938 143 m 1,0,-1
 635 143 l 1,1,2
 637 104 637 104 639.5 61.5 c 128,-1,3
 642 19 642 19 644.5 -23.5 c 128,-1,4
 647 -66 647 -66 649 -107 c 128,-1,5
 651 -148 651 -148 653 -184 c 1,6,-1
 299 -184 l 1,7,-1
 317 143 l 1,8,-1
 14 143 l 1,9,-1
 14 427 l 1,10,-1
 339 427 l 1,11,12
 341 485 341 485 343 537.5 c 128,-1,13
 345 590 345 590 347 641 c 128,-1,14
 349 692 349 692 351.5 745.5 c 128,-1,15
 354 799 354 799 356 859 c 1,16,-1
 14 859 l 1,17,-1
 14 1076 l 1,18,-1
 356 1076 l 1,19,-1
 356 1468 l 1,20,-1
 595 1468 l 1,21,-1
 595 1076 l 1,22,-1
 938 1076 l 1,23,-1
 938 859 l 1,24,-1
 596 859 l 1,25,26
 600 749 600 749 604.5 645 c 128,-1,27
 609 541 609 541 613 427 c 1,28,-1
 938 427 l 1,29,-1
 938 143 l 1,0,-1
EndSplineSet
Validated: 1
EndChar

StartChar: periodcentered
Encoding: 183 183 195
Width: 875
Flags: W
LayerCount: 2
Fore
SplineSet
306 857 m 1,0,-1
 577 857 l 1,1,-1
 577 545 l 1,2,-1
 306 545 l 1,3,-1
 306 857 l 1,0,-1
EndSplineSet
Validated: 1
EndChar

StartChar: quotesinglbase
Encoding: 8218 8218 196
Width: 546
Flags: W
LayerCount: 2
Fore
SplineSet
185 312 m 1,0,-1
 457 312 l 1,1,-1
 457 105 l 1,2,-1
 290 -222 l 1,3,-1
 97 -222 l 1,4,-1
 185 119 l 1,5,-1
 185 312 l 1,0,-1
EndSplineSet
Validated: 1
EndChar

StartChar: quotedblbase
Encoding: 8222 8222 197
Width: 1285
Flags: W
LayerCount: 2
Fore
SplineSet
780 429 m 1,0,-1
 1102 429 l 1,1,-1
 1102 181 l 1,2,-1
 896 -222 l 1,3,-1
 673 -222 l 1,4,-1
 780 196 l 1,5,-1
 780 429 l 1,0,-1
299 429 m 1,6,-1
 621 429 l 1,7,-1
 621 181 l 1,8,-1
 415 -222 l 1,9,-1
 192 -222 l 1,10,-1
 299 196 l 1,11,-1
 299 429 l 1,6,-1
EndSplineSet
Validated: 1
EndChar

StartChar: perthousand
Encoding: 8240 8240 198
Width: 2687
Flags: W
LayerCount: 2
Fore
SplineSet
2274 613 m 0,0,1
 2210 613 2210 613 2173.5 573.5 c 128,-1,2
 2137 534 2137 534 2137 464 c 256,3,4
 2137 394 2137 394 2173.5 354.5 c 128,-1,5
 2210 315 2210 315 2274 315 c 0,6,7
 2336 315 2336 315 2372 354.5 c 128,-1,8
 2408 394 2408 394 2408 464 c 0,9,10
 2408 533 2408 533 2372 573 c 128,-1,11
 2336 613 2336 613 2274 613 c 0,0,1
2274 806 m 256,12,13
 2438 806 2438 806 2536 691 c 0,14,15
 2632 578 2632 578 2632 389 c 0,16,17
 2632 295 2632 295 2608.5 220 c 128,-1,18
 2585 145 2585 145 2535 88 c 1,19,20
 2438 -27 2438 -27 2274 -27 c 0,21,22
 2107 -27 2107 -27 2010 88 c 1,23,24
 1914 199 1914 199 1914 389 c 0,25,26
 1914 578 1914 578 2010 691 c 1,27,28
 2110 806 2110 806 2274 806 c 256,12,13
561 1493 m 0,29,30
 724 1493 724 1493 825 1378 c 1,31,32
 922 1265 922 1265 922 1077 c 0,33,34
 922 887 922 887 825 775 c 0,35,36
 726 660 726 660 561 660 c 256,37,38
 396 660 396 660 297 775 c 1,39,40
 203 887 203 887 203 1077 c 0,41,42
 203 1264 203 1264 299 1378 c 0,43,44
 397 1493 397 1493 561 1493 c 0,29,30
1384 1493 m 1,45,-1
 1620 1493 l 1,46,-1
 703 -27 l 1,47,-1
 398 -27 l 1,48,-1
 1384 1493 l 1,45,-1
561 1300 m 256,49,50
 498 1300 498 1300 462 1256 c 128,-1,51
 426 1212 426 1212 426 1134 c 0,52,53
 426 1055 426 1055 461.5 1011.5 c 128,-1,54
 497 968 497 968 561 968 c 256,55,56
 625 968 625 968 661.5 1011.5 c 128,-1,57
 698 1055 698 1055 698 1134 c 0,58,59
 698 1212 698 1212 661 1256 c 128,-1,60
 624 1300 624 1300 561 1300 c 256,49,50
1525 806 m 0,61,62
 1687 806 1687 806 1787 691 c 1,63,64
 1883 577 1883 577 1883 389 c 0,65,66
 1883 200 1883 200 1786 88 c 1,67,68
 1689 -27 1689 -27 1525 -27 c 0,69,70
 1359 -27 1359 -27 1260 88 c 0,71,72
 1164 201 1164 201 1164 389 c 256,73,74
 1164 577 1164 577 1260 691 c 1,75,76
 1361 806 1361 806 1525 806 c 0,61,62
1525 613 m 0,77,78
 1461 613 1461 613 1424.5 573.5 c 128,-1,79
 1388 534 1388 534 1388 464 c 256,80,81
 1388 394 1388 394 1424.5 354.5 c 128,-1,82
 1461 315 1461 315 1525 315 c 0,83,84
 1587 315 1587 315 1623 354.5 c 128,-1,85
 1659 394 1659 394 1659 464 c 0,86,87
 1659 533 1659 533 1623 573 c 128,-1,88
 1587 613 1587 613 1525 613 c 0,77,78
EndSplineSet
Validated: 1
EndChar

StartChar: dotlessi
Encoding: 305 305 214
Width: 851
Flags: W
LayerCount: 2
Fore
SplineSet
306 1120 m 1,0,-1
 553 1120 l 1,1,-1
 553 0 l 1,2,-1
 306 0 l 1,3,-1
 306 1120 l 1,0,-1
EndSplineSet
Validated: 1
EndChar

StartChar: circumflex
Encoding: 710 710 215
Width: 837
Flags: W
LayerCount: 2
Fore
SplineSet
329 1603 m 1,0,-1
 509 1603 l 1,1,-1
 786 1178 l 1,2,-1
 568 1178 l 1,3,-1
 419 1381 l 1,4,5
 381 1330 381 1330 343 1277.5 c 128,-1,6
 305 1225 305 1225 270 1178 c 1,7,-1
 52 1178 l 1,8,-1
 329 1603 l 1,0,-1
EndSplineSet
Validated: 1
EndChar

StartChar: tilde
Encoding: 732 732 216
Width: 1099
Flags: W
LayerCount: 2
Fore
SplineSet
469 1340 m 1,0,-1
 470 1340 l 1,1,2
 441 1366 441 1366 432 1366 c 0,3,4
 415 1366 415 1366 407 1332 c 128,-1,5
 399 1298 399 1298 397 1222 c 1,6,-1
 206 1222 l 1,7,8
 208 1384 208 1384 265.5 1472 c 128,-1,9
 323 1560 323 1560 426 1560 c 0,10,11
 470 1560 470 1560 505 1544.5 c 128,-1,12
 540 1529 540 1529 581 1492 c 1,13,-1
 635 1441 l 1,14,-1
 634 1441 l 1,15,16
 663 1415 663 1415 672 1415 c 0,17,18
 689 1415 689 1415 697 1449 c 128,-1,19
 705 1483 705 1483 707 1560 c 1,20,-1
 898 1560 l 1,21,22
 895 1397 895 1397 838 1309.5 c 128,-1,23
 781 1222 781 1222 678 1222 c 0,24,25
 633 1222 633 1222 597.5 1237 c 128,-1,26
 562 1252 562 1252 522 1288 c 1,27,-1
 469 1340 l 1,0,-1
EndSplineSet
Validated: 1
EndChar

StartChar: macron
Encoding: 175 175 217
Width: 1241
Flags: W
LayerCount: 2
Fore
SplineSet
306 1499 m 1,0,-1
 938 1499 l 1,1,-1
 938 1286 l 1,2,-1
 306 1286 l 1,3,-1
 306 1499 l 1,0,-1
EndSplineSet
Validated: 1
EndChar

StartChar: breve
Encoding: 728 728 218
Width: 958
Flags: W
LayerCount: 2
Fore
SplineSet
331 1575 m 1,0,1
 352 1435 352 1435 480 1435 c 0,2,3
 546 1435 546 1435 582.5 1469.5 c 128,-1,4
 619 1504 619 1504 631 1575 c 1,5,-1
 812 1575 l 1,6,7
 800 1404 800 1404 716.5 1318.5 c 128,-1,8
 633 1233 633 1233 480 1233 c 0,9,10
 172 1233 172 1233 148 1575 c 1,11,-1
 331 1575 l 1,0,1
EndSplineSet
Validated: 1
EndChar

StartChar: dotaccent
Encoding: 729 729 219
Width: 869
Flags: W
LayerCount: 2
Fore
SplineSet
306 1523 m 1,0,-1
 571 1523 l 1,1,-1
 571 1258 l 1,2,-1
 306 1258 l 1,3,-1
 306 1523 l 1,0,-1
EndSplineSet
Validated: 1
EndChar

StartChar: ring
Encoding: 730 730 220
Width: 877
Flags: W
LayerCount: 2
Fore
SplineSet
544 1460 m 256,0,1
 544 1504 544 1504 515 1533 c 0,2,3
 485 1563 485 1563 440 1563 c 0,4,5
 394 1563 394 1563 364 1533 c 0,6,7
 335 1504 335 1504 335 1460 c 0,8,9
 335 1415 335 1415 364 1384 c 1,10,11
 395 1355 395 1355 440 1355 c 256,12,13
 485 1355 485 1355 515 1385 c 1,14,15
 544 1416 544 1416 544 1460 c 256,0,1
733 1460 m 0,16,17
 733 1338 733 1338 647 1252 c 256,18,19
 561 1166 561 1166 440 1166 c 0,20,21
 318 1166 318 1166 232 1252 c 0,22,23
 147 1337 147 1337 147 1460 c 0,24,25
 147 1582 147 1582 232 1667 c 0,26,27
 318 1753 318 1753 440 1753 c 0,28,29
 561 1753 561 1753 647 1667 c 256,30,31
 733 1581 733 1581 733 1460 c 0,16,17
EndSplineSet
Validated: 1
EndChar

StartChar: cedilla
Encoding: 184 184 221
Width: 716
Flags: W
LayerCount: 2
Fore
SplineSet
438 75 m 1,0,1
 500 4 500 4 530 -53 c 128,-1,2
 560 -110 560 -110 560 -163 c 0,3,4
 560 -266 560 -266 494.5 -317.5 c 128,-1,5
 429 -369 429 -369 300 -369 c 0,6,7
 254 -369 254 -369 204.5 -361 c 128,-1,8
 155 -353 155 -353 99 -338 c 1,9,-1
 99 -125 l 1,10,11
 156 -154 156 -154 199 -166.5 c 128,-1,12
 242 -179 242 -179 281 -179 c 0,13,14
 355 -179 355 -179 355 -129 c 0,15,16
 355 -106 355 -106 325.5 -56.5 c 128,-1,17
 296 -7 296 -7 236 75 c 1,18,-1
 438 75 l 1,0,1
EndSplineSet
Validated: 1
EndChar

StartChar: hungarumlaut
Encoding: 733 733 222
Width: 942
Flags: W
LayerCount: 2
Fore
SplineSet
628 1603 m 1,0,-1
 886 1603 l 1,1,-1
 605 1178 l 1,2,-1
 397 1178 l 1,3,-1
 628 1603 l 1,0,-1
316 1603 m 1,4,-1
 563 1603 l 1,5,-1
 310 1178 l 1,6,-1
 101 1178 l 1,7,-1
 316 1603 l 1,4,-1
EndSplineSet
Validated: 1
EndChar

StartChar: ogonek
Encoding: 731 731 223
Width: 696
Flags: W
LayerCount: 2
Fore
SplineSet
475 75 m 1,0,1
 414 -7 414 -7 385 -57.5 c 128,-1,2
 356 -108 356 -108 356 -131 c 0,3,4
 356 -179 356 -179 421 -179 c 0,5,6
 470 -179 470 -179 575 -129 c 1,7,-1
 575 -342 l 1,8,9
 522 -355 522 -355 481 -362 c 128,-1,10
 440 -369 440 -369 410 -369 c 0,11,12
 276 -369 276 -369 214 -319.5 c 128,-1,13
 152 -270 152 -270 152 -163 c 0,14,15
 152 -111 152 -111 181.5 -53.5 c 128,-1,16
 211 4 211 4 273 75 c 1,17,-1
 475 75 l 1,0,1
EndSplineSet
Validated: 1
EndChar

StartChar: caron
Encoding: 711 711 224
Width: 831
Flags: W
LayerCount: 2
Fore
SplineSet
326 1178 m 1,0,-1
 49 1603 l 1,1,-1
 267 1603 l 1,2,-1
 416 1400 l 1,3,4
 453 1451 453 1451 491.5 1503.5 c 128,-1,5
 530 1556 530 1556 565 1603 c 1,6,-1
 783 1603 l 1,7,-1
 506 1178 l 1,8,-1
 326 1178 l 1,0,-1
EndSplineSet
Validated: 1
EndChar

StartChar: Lslash
Encoding: 321 321 225
Width: 1251
Flags: W
LayerCount: 2
Fore
SplineSet
290 1493 m 1,0,-1
 559 1493 l 1,1,-1
 559 943 l 1,2,-1
 828 1131 l 1,3,-1
 947 963 l 1,4,-1
 559 693 l 1,5,-1
 559 237 l 1,6,-1
 1249 237 l 1,7,-1
 1249 0 l 1,8,-1
 290 0 l 1,9,-1
 290 506 l 1,10,-1
 178 426 l 1,11,-1
 62 593 l 1,12,-1
 290 754 l 1,13,-1
 290 1493 l 1,0,-1
EndSplineSet
Validated: 1
EndChar

StartChar: lslash
Encoding: 322 322 226
Width: 653
Flags: W
LayerCount: 2
Fore
SplineSet
202 1527 m 1,0,-1
 449 1527 l 1,1,-1
 449 1001 l 1,2,-1
 536 1064 l 1,3,-1
 651 903 l 1,4,-1
 449 762 l 1,5,-1
 449 0 l 1,6,-1
 202 0 l 1,7,-1
 202 587 l 1,8,-1
 115 525 l 1,9,-1
 4 684 l 1,10,-1
 202 825 l 1,11,-1
 202 1527 l 1,0,-1
EndSplineSet
Validated: 1
EndChar

StartChar: brokenbar
Encoding: 166 166 231
Width: 836
Flags: W
LayerCount: 2
Fore
SplineSet
539 455 m 1,0,-1
 539 -327 l 1,1,-1
 306 -327 l 1,2,-1
 306 455 l 1,3,-1
 539 455 l 1,0,-1
539 1411 m 1,4,-1
 539 629 l 1,5,-1
 306 629 l 1,6,-1
 306 1411 l 1,7,-1
 539 1411 l 1,4,-1
EndSplineSet
Validated: 1
EndChar

StartChar: Eth
Encoding: 208 208 232
Width: 1745
Flags: W
LayerCount: 2
Fore
SplineSet
311 1493 m 1,0,-1
 744 1493 l 2,1,2
 953 1493 953 1493 1112 1446.5 c 128,-1,3
 1271 1400 1271 1400 1373 1312 c 1,4,5
 1473 1220 1473 1220 1525.5 1078.5 c 128,-1,6
 1578 937 1578 937 1578 748 c 0,7,8
 1578 557 1578 557 1525.5 415.5 c 128,-1,9
 1473 274 1473 274 1372 181 c 1,10,11
 1270 93 1270 93 1111.5 46.5 c 128,-1,12
 953 0 953 0 744 0 c 2,13,-1
 311 0 l 1,14,-1
 311 664 l 1,15,-1
 120 664 l 1,16,-1
 120 877 l 1,17,-1
 311 877 l 1,18,-1
 311 1493 l 1,0,-1
580 1260 m 1,19,-1
 580 877 l 1,20,-1
 899 877 l 1,21,-1
 899 664 l 1,22,-1
 580 664 l 1,23,-1
 580 233 l 1,24,-1
 772 233 l 2,25,26
 1049 233 1049 233 1175 356 c 0,27,28
 1300 478 1300 478 1300 748 c 0,29,30
 1300 1015 1300 1015 1175 1137 c 0,31,32
 1049 1260 1049 1260 772 1260 c 2,33,-1
 580 1260 l 1,19,-1
EndSplineSet
Validated: 1
EndChar

StartChar: eth
Encoding: 240 240 233
Width: 1314
Flags: W
LayerCount: 2
Fore
SplineSet
835 856 m 1,0,-1
 825 859 l 1,1,2
 823 861 823 861 821.5 863.5 c 128,-1,3
 820 866 820 866 818 868 c 2,4,-1
 835 856 l 1,0,-1
910 539 m 0,5,6
 910 744 910 744 825 859 c 1,7,8
 783 872 783 872 748 878.5 c 128,-1,9
 713 885 713 885 680 885 c 0,10,11
 541 885 541 885 465 797 c 1,12,-1
 466 797 l 1,13,14
 389 705 389 705 389 539 c 0,15,16
 389 375 389 375 462 283 c 1,17,18
 531 193 531 193 650 193 c 0,19,20
 767 193 767 193 838 283 c 1,21,22
 910 376 910 376 910 539 c 0,5,6
934 1127 m 1,23,24
 993 1058 993 1058 1038.5 987.5 c 128,-1,25
 1084 917 1084 917 1111 848 c 0,26,27
 1167 706 1167 706 1167 539 c 0,28,29
 1167 285 1167 285 1024 130 c 0,30,31
 880 -27 880 -27 650 -27 c 0,32,33
 418 -27 418 -27 274 130 c 0,34,35
 133 284 133 284 133 539 c 0,36,37
 133 786 133 786 271 942 c 0,38,39
 410 1099 410 1099 634 1099 c 0,40,41
 639 1099 639 1099 639 1099.5 c 128,-1,42
 639 1100 639 1100 637 1100 c 1,43,44
 639 1100 639 1100 642 1099.5 c 128,-1,45
 645 1099 645 1099 648 1099 c 1,46,-1
 579 1178 l 1,47,48
 543 1166 543 1166 503 1152.5 c 128,-1,49
 463 1139 463 1139 422.5 1125 c 128,-1,50
 382 1111 382 1111 342.5 1097.5 c 128,-1,51
 303 1084 303 1084 269 1073 c 1,52,-1
 214 1237 l 1,53,-1
 459 1318 l 1,54,55
 437 1343 437 1343 411.5 1371.5 c 128,-1,56
 386 1400 386 1400 361 1428.5 c 128,-1,57
 336 1457 336 1457 313 1482.5 c 128,-1,58
 290 1508 290 1508 273 1527 c 1,59,-1
 585 1527 l 1,60,-1
 699 1397 l 1,61,-1
 1021 1505 l 1,62,-1
 1076 1344 l 1,63,-1
 818 1258 l 1,64,-1
 934 1127 l 1,23,24
EndSplineSet
Validated: 5
EndChar

StartChar: Thorn
Encoding: 222 222 236
Width: 1297
Flags: W
LayerCount: 2
Fore
SplineSet
306 1493 m 1,0,-1
 574 1493 l 1,1,-1
 574 1242 l 1,2,-1
 777 1242 l 2,3,4
 1036 1242 1036 1242 1166.5 1126.5 c 128,-1,5
 1297 1011 1297 1011 1297 782 c 256,6,7
 1297 553 1297 553 1166.5 437 c 128,-1,8
 1036 321 1036 321 777 321 c 2,9,-1
 574 321 l 1,10,-1
 574 0 l 1,11,-1
 306 0 l 1,12,-1
 306 1493 l 1,0,-1
574 1009 m 1,13,-1
 574 554 l 1,14,-1
 777 554 l 2,15,16
 894 554 894 554 956.5 613.5 c 128,-1,17
 1019 673 1019 673 1019 782 c 256,18,19
 1019 891 1019 891 956.5 950 c 128,-1,20
 894 1009 894 1009 777 1009 c 2,21,-1
 574 1009 l 1,13,-1
EndSplineSet
Validated: 1
EndChar

StartChar: thorn
Encoding: 254 254 237
Width: 1316
Flags: W
LayerCount: 2
Fore
SplineSet
553 -398 m 1,0,-1
 306 -398 l 1,1,-1
 306 1527 l 1,2,-1
 553 1527 l 1,3,-1
 553 1035 l 1,4,5
 610 1092 610 1092 683 1118.5 c 128,-1,6
 756 1145 756 1145 850 1145 c 0,7,8
 1057 1145 1057 1145 1188 980 c 0,9,10
 1316 819 1316 819 1316 559 c 256,11,12
 1316 299 1316 299 1188 138 c 0,13,14
 1057 -27 1057 -27 850 -27 c 0,15,16
 756 -27 756 -27 683 -0.5 c 128,-1,17
 610 26 610 26 553 83 c 1,18,-1
 553 -398 l 1,0,-1
1063 559 m 0,19,20
 1063 735 1063 735 991 833 c 1,21,22
 924 927 924 927 808 927 c 0,23,24
 693 927 693 927 623 833 c 1,25,-1
 624 834 l 1,26,27
 589 785 589 785 571 716.5 c 128,-1,28
 553 648 553 648 553 559 c 256,29,30
 553 470 553 470 571 401 c 128,-1,31
 589 332 589 332 624 283 c 1,32,-1
 623 284 l 1,33,34
 690 191 690 191 808 191 c 256,35,36
 926 191 926 191 991 283 c 1,37,38
 1063 380 1063 380 1063 559 c 0,19,20
EndSplineSet
Validated: 1
EndChar

StartChar: minus
Encoding: 8722 8722 238
Width: 1881
Flags: W
LayerCount: 2
Fore
SplineSet
306 753 m 1,0,-1
 1577 753 l 1,1,-1
 1577 520 l 1,2,-1
 306 520 l 1,3,-1
 306 753 l 1,0,-1
EndSplineSet
Validated: 1
EndChar

StartChar: multiply
Encoding: 215 215 239
Width: 1414
Flags: W
LayerCount: 2
Fore
SplineSet
1258 1017 m 1,0,-1
 896 654 l 1,1,-1
 1248 302 l 1,2,-1
 1039 90 l 1,3,-1
 685 444 l 1,4,-1
 330 90 l 1,5,-1
 122 302 l 1,6,-1
 473 654 l 1,7,-1
 140 989 l 1,8,-1
 349 1202 l 1,9,-1
 685 866 l 1,10,-1
 1048 1229 l 1,11,-1
 1258 1017 l 1,0,-1
EndSplineSet
Validated: 1
EndChar

StartChar: onesuperior
Encoding: 185 185 240
Width: 936
Flags: W
LayerCount: 2
Fore
SplineSet
268 801 m 1,0,-1
 459 801 l 1,1,-1
 459 1290 l 1,2,3
 434 1285 434 1285 406 1280 c 128,-1,4
 378 1275 378 1275 350.5 1270 c 128,-1,5
 323 1265 323 1265 297.5 1260 c 128,-1,6
 272 1255 272 1255 251 1252 c 1,7,-1
 251 1435 l 1,8,-1
 502 1477 l 1,9,-1
 668 1477 l 1,10,-1
 668 801 l 1,11,-1
 859 801 l 1,12,-1
 859 623 l 1,13,-1
 268 623 l 1,14,-1
 268 801 l 1,0,-1
EndSplineSet
Validated: 1
EndChar

StartChar: twosuperior
Encoding: 178 178 241
Width: 1103
Flags: W
LayerCount: 2
Fore
SplineSet
894 805 m 1,0,-1
 894 623 l 1,1,-1
 261 623 l 1,2,-1
 261 780 l 1,3,-1
 364 873 l 1,4,5
 673 1147 673 1147 673 1217 c 0,6,7
 673 1262 673 1262 635 1289.5 c 128,-1,8
 597 1317 597 1317 534 1317 c 0,9,10
 446 1317 446 1317 267 1229 c 1,11,-1
 267 1431 l 1,12,13
 441 1493 441 1493 554 1493 c 0,14,15
 701 1493 701 1493 793 1424 c 0,16,17
 889 1352 889 1352 889 1232 c 0,18,19
 889 1086 889 1086 569 812 c 0,20,21
 569 811 569 811 568 810 c 256,22,23
 567 809 567 809 561 805 c 1,24,-1
 894 805 l 1,0,-1
EndSplineSet
Validated: 1
EndChar

StartChar: threesuperior
Encoding: 179 179 242
Width: 1048
Flags: W
LayerCount: 2
Fore
SplineSet
858 1253 m 0,0,1
 858 1199 858 1199 834 1156.5 c 128,-1,2
 810 1114 810 1114 765 1085 c 1,3,4
 820 1053 820 1053 849 1003.5 c 128,-1,5
 878 954 878 954 878 888 c 0,6,7
 878 753 878 753 780.5 681 c 128,-1,8
 683 609 683 609 498 609 c 0,9,10
 388 609 388 609 226 657 c 1,11,-1
 226 860 l 1,12,13
 367 786 367 786 485 786 c 0,14,15
 570 786 570 786 616 813 c 128,-1,16
 662 840 662 840 662 888 c 0,17,18
 662 990 662 990 494 990 c 2,19,-1
 377 990 l 1,20,-1
 377 1166 l 1,21,-1
 502 1166 l 2,22,23
 571 1166 571 1166 607 1185.5 c 128,-1,24
 643 1205 643 1205 643 1243 c 0,25,26
 643 1279 643 1279 606 1298 c 128,-1,27
 569 1317 569 1317 498 1317 c 0,28,29
 481 1317 481 1317 459 1314.5 c 128,-1,30
 437 1312 437 1312 407.5 1306 c 128,-1,31
 378 1300 378 1300 340 1290.5 c 128,-1,32
 302 1281 302 1281 253 1267 c 1,33,-1
 253 1453 l 1,34,35
 337 1473 337 1473 405.5 1483 c 128,-1,36
 474 1493 474 1493 529 1493 c 0,37,38
 600 1493 600 1493 659.5 1477 c 128,-1,39
 719 1461 719 1461 763 1432 c 1,40,41
 809 1399 809 1399 833.5 1353.5 c 128,-1,42
 858 1308 858 1308 858 1253 c 0,0,1
EndSplineSet
Validated: 1
EndChar

StartChar: dcroat
Encoding: 273 273 255
Width: 1355
Flags: W
LayerCount: 2
Fore
SplineSet
826 1198 m 1,0,-1
 521 1198 l 1,1,-1
 521 1390 l 1,2,-1
 826 1390 l 1,3,-1
 826 1527 l 1,4,-1
 1072 1527 l 1,5,-1
 1072 1390 l 1,6,-1
 1216 1390 l 1,7,-1
 1216 1198 l 1,8,-1
 1072 1198 l 1,9,-1
 1072 0 l 1,10,-1
 826 0 l 1,11,-1
 826 83 l 1,12,13
 769 26 769 26 695.5 -0.5 c 128,-1,14
 622 -27 622 -27 528 -27 c 0,15,16
 320 -27 320 -27 190 138 c 0,17,18
 63 299 63 299 63 559 c 256,19,20
 63 819 63 819 190 980 c 0,21,22
 320 1145 320 1145 528 1145 c 0,23,24
 622 1145 622 1145 695.5 1118.5 c 128,-1,25
 769 1092 769 1092 826 1035 c 1,26,-1
 826 1198 l 1,0,-1
315 599 m 0,27,28
 315 444 315 444 384 355 c 1,29,30
 418 315 418 315 465 293.5 c 128,-1,31
 512 272 512 272 570 272 c 0,32,33
 688 272 688 272 756 355 c 1,34,35
 826 443 826 443 826 599 c 0,36,37
 826 757 826 757 756 844 c 0,38,39
 688 927 688 927 570 927 c 0,40,41
 512 927 512 927 465 905 c 128,-1,42
 418 883 418 883 384 844 c 1,43,44
 315 755 315 755 315 599 c 0,27,28
EndSplineSet
Validated: 1
EndChar

StartChar: sfthyphen
Encoding: 173 173 256
Width: 1186
Flags: W
LayerCount: 2
Fore
SplineSet
306 675 m 1,0,-1
 884 675 l 1,1,-1
 884 447 l 1,2,-1
 306 447 l 1,3,-1
 306 675 l 1,0,-1
EndSplineSet
Validated: 1
EndChar

StartChar: middot.001
Encoding: 8729 8729 257
Width: 934
Flags: W
LayerCount: 2
Fore
SplineSet
306 925 m 1,0,-1
 634 925 l 1,1,-1
 634 545 l 1,2,-1
 306 545 l 1,3,-1
 306 925 l 1,0,-1
EndSplineSet
Validated: 1
EndChar

StartChar: Euro
Encoding: 8364 8364 258
Width: 1453
Flags: W
LayerCount: 2
Fore
SplineSet
1213 1072 m 1,0,1
 1140 1156 1140 1156 1085.5 1207.5 c 128,-1,2
 1031 1259 1031 1259 993 1279 c 0,3,4
 925 1316 925 1316 837 1316 c 0,5,6
 709 1316 709 1316 626 1213 c 1,7,8
 548 1119 548 1119 517 983 c 1,9,-1
 1069 983 l 1,10,-1
 984 793 l 1,11,-1
 492 793 l 1,12,13
 491 781 491 781 491.5 765.5 c 128,-1,14
 492 750 492 750 492 733 c 0,15,16
 492 718 492 718 491.5 711.5 c 128,-1,17
 491 705 491 705 491 700.5 c 128,-1,18
 491 696 491 696 491 691 c 128,-1,19
 491 686 491 686 492 675 c 1,20,-1
 926 675 l 1,21,-1
 849 448 l 1,22,-1
 541 448 l 1,23,24
 552 431 552 431 570.5 410 c 128,-1,25
 589 389 589 389 613 364 c 0,26,27
 696 281 696 281 828 281 c 0,28,29
 914 281 914 281 984 318 c 0,30,31
 1057 357 1057 357 1213 519 c 1,32,-1
 1213 127 l 1,33,34
 1022 -27 1022 -27 830 -27 c 0,35,36
 713 -27 713 -27 615 10 c 128,-1,37
 517 47 517 47 439 119 c 1,38,39
 407 150 407 150 378.5 189 c 128,-1,40
 350 228 350 228 326.5 270.5 c 128,-1,41
 303 313 303 313 286 358 c 128,-1,42
 269 403 269 403 260 448 c 1,43,-1
 34 448 l 1,44,-1
 110 675 l 1,45,-1
 230 675 l 1,46,-1
 230 678 l 2,47,48
 230 689 230 689 229.5 702.5 c 128,-1,49
 229 716 229 716 229 733 c 0,50,51
 229 751 229 751 229.5 765.5 c 128,-1,52
 230 780 230 780 230 792 c 2,53,-1
 230 793 l 1,54,-1
 28 793 l 1,55,-1
 113 983 l 1,56,-1
 251 983 l 1,57,58
 273 1098 273 1098 320.5 1188.5 c 128,-1,59
 368 1279 368 1279 440 1348 c 0,60,61
 594 1493 594 1493 830 1493 c 0,62,63
 1027 1493 1027 1493 1213 1341 c 1,64,-1
 1213 1072 l 1,0,1
EndSplineSet
Validated: 1
EndChar

StartChar: c6459
Encoding: 65537 -1 259
Width: 1238
Flags: W
LayerCount: 2
Fore
SplineSet
671 1472 m 1,0,-1
 935 1472 l 1,1,-1
 935 1208 l 1,2,-1
 671 1208 l 1,3,-1
 671 1472 l 1,0,-1
306 1472 m 1,4,-1
 571 1472 l 1,5,-1
 571 1208 l 1,6,-1
 306 1208 l 1,7,-1
 306 1472 l 1,4,-1
EndSplineSet
Validated: 1
EndChar

StartChar: c6460
Encoding: 65538 -1 260
Width: 541
Flags: W
LayerCount: 2
Fore
SplineSet
262 1499 m 1,0,-1
 535 1499 l 1,1,-1
 258 1178 l 1,2,-1
 23 1178 l 1,3,-1
 262 1499 l 1,0,-1
EndSplineSet
Validated: 1
EndChar

StartChar: c6461
Encoding: 65539 -1 261
Width: 1096
Flags: W
LayerCount: 2
Fore
SplineSet
476 1283 m 2,0,1
 441 1302 441 1302 432 1302 c 0,2,3
 415 1302 415 1302 406.5 1288.5 c 128,-1,4
 398 1275 398 1275 398 1251 c 2,5,-1
 398 1208 l 1,6,-1
 207 1208 l 1,7,8
 207 1272 207 1272 222 1323.5 c 128,-1,9
 237 1375 237 1375 265 1411.5 c 128,-1,10
 293 1448 293 1448 332.5 1467.5 c 128,-1,11
 372 1487 372 1487 420 1487 c 0,12,13
 440 1487 440 1487 457 1485 c 128,-1,14
 474 1483 474 1483 492 1478 c 128,-1,15
 510 1473 510 1473 529.5 1464.5 c 128,-1,16
 549 1456 549 1456 574 1442 c 1,17,-1
 573 1442 l 1,18,-1
 627 1414 l 1,19,20
 659 1395 659 1395 676 1395 c 0,21,22
 690 1395 690 1395 698 1408.5 c 128,-1,23
 706 1422 706 1422 706 1444 c 2,24,-1
 706 1487 l 1,25,-1
 898 1487 l 1,26,27
 896 1423 896 1423 880.5 1371.5 c 128,-1,28
 865 1320 865 1320 837 1283.5 c 128,-1,29
 809 1247 809 1247 770 1227.5 c 128,-1,30
 731 1208 731 1208 684 1208 c 0,31,32
 664 1208 664 1208 647 1210 c 128,-1,33
 630 1212 630 1212 614 1216 c 0,34,35
 582 1225 582 1225 530 1252 c 1,36,-1
 476 1283 l 2,0,1
EndSplineSet
Validated: 1
EndChar

StartChar: c6462
Encoding: 65540 -1 262
Width: 542
Flags: W
LayerCount: 2
Fore
SplineSet
279 1499 m 1,0,-1
 517 1178 l 1,1,-1
 284 1178 l 1,2,-1
 5 1499 l 1,3,-1
 279 1499 l 1,0,-1
EndSplineSet
Validated: 1
EndChar

StartChar: c6463
Encoding: 65541 -1 263
Width: 850
Flags: W
LayerCount: 2
Fore
SplineSet
319 1501 m 1,0,-1
 530 1501 l 1,1,-1
 787 1178 l 1,2,-1
 564 1178 l 1,3,-1
 424 1327 l 1,4,5
 389 1291 389 1291 353.5 1252 c 128,-1,6
 318 1213 318 1213 286 1178 c 1,7,-1
 63 1178 l 1,8,-1
 319 1501 l 1,0,-1
EndSplineSet
Validated: 1
EndChar

StartChar: c6466
Encoding: 65542 -1 264
Width: 840
Flags: W
LayerCount: 2
Fore
SplineSet
314 1178 m 1,0,-1
 58 1501 l 1,1,-1
 281 1501 l 1,2,-1
 421 1351 l 1,3,4
 456 1388 456 1388 491.5 1427 c 128,-1,5
 527 1466 527 1466 559 1501 c 1,6,-1
 782 1501 l 1,7,-1
 525 1178 l 1,8,-1
 314 1178 l 1,0,-1
EndSplineSet
Validated: 1
EndChar

StartChar: c6467
Encoding: 65543 -1 265
Width: 816
Flags: W
LayerCount: 2
Fore
SplineSet
390 1213 m 1,0,-1
 214 973 l 1,1,-1
 390 973 l 1,2,-1
 390 1213 l 1,0,-1
389 1477 m 1,3,-1
 600 1477 l 1,4,-1
 600 973 l 1,5,-1
 726 973 l 1,6,-1
 726 797 l 1,7,-1
 600 797 l 1,8,-1
 600 623 l 1,9,-1
 390 623 l 1,10,-1
 390 797 l 1,11,-1
 4 797 l 1,12,-1
 4 959 l 1,13,-1
 389 1477 l 1,3,-1
EndSplineSet
Validated: 1
EndChar

StartChar: c6468
Encoding: 65544 -1 266
Width: 958
Flags: W
LayerCount: 2
Fore
SplineSet
327 1501 m 1,0,1
 339 1450 339 1450 377.5 1423.5 c 128,-1,2
 416 1397 416 1397 479 1397 c 0,3,4
 602 1397 602 1397 632 1501 c 1,5,-1
 812 1501 l 1,6,7
 800 1352 800 1352 715.5 1276 c 128,-1,8
 631 1200 631 1200 479 1200 c 256,9,10
 327 1200 327 1200 243 1275.5 c 128,-1,11
 159 1351 159 1351 147 1501 c 1,12,-1
 327 1501 l 1,0,1
EndSplineSet
Validated: 1
EndChar

StartChar: c6469
Encoding: 65545 -1 267
Width: 869
Flags: W
LayerCount: 2
Fore
SplineSet
306 1474 m 1,0,-1
 571 1474 l 1,1,-1
 571 1208 l 1,2,-1
 306 1208 l 1,3,-1
 306 1474 l 1,0,-1
EndSplineSet
Validated: 1
EndChar

StartChar: fraction
Encoding: 8260 8260 268
Width: 781
Flags: W
LayerCount: 2
Fore
SplineSet
566 1799 m 1,0,-1
 781 1793 l 1,1,-1
 294 162 l 1,2,-1
 0 172 l 1,3,-1
 566 1799 l 1,0,-1
EndSplineSet
Validated: 1
EndChar
